  0
SECTION
  2
HEADER
  9
$ACADVER
  1
AC1015
  9
$ACADMAINTVER
 70
     6
  9
$DWGCODEPAGE
  3
ANSI_1252
  9
$INSBASE
 10
0.0
 20
0.0
 30
0.0
  9
$EXTMIN
 10
-43.9964976094
 20
11.8416430164
 30
0.0
  9
$EXTMAX
 10
-12.1390710486
 20
64.3317296318
 30
0.0
  9
$LIMMIN
 10
0.0
 20
0.0
  9
$LIMMAX
 10
420.0
 20
297.0
  9
$ORTHOMODE
 70
     0
  9
$REGENMODE
 70
     1
  9
$FILLMODE
 70
     1
  9
$QTEXTMODE
 70
     0
  9
$MIRRTEXT
 70
     1
  9
$LTSCALE
 40
1.0
  9
$ATTMODE
 70
     1
  9
$TEXTSIZE
 40
3.5
  9
$TRACEWID
 40
1.0
  9
$TEXTSTYLE
  7
Standard
  9
$CLAYER
  8
0
  9
$CELTYPE
  6
ByLayer
  9
$CECOLOR
 62
   256
  9
$CELTSCALE
 40
1.0
  9
$DISPSILH
 70
     0
  9
$DIMSCALE
 40
1.0
  9
$DIMASZ
 40
3.302
  9
$DIMEXO
 40
0.0
  9
$DIMDLI
 40
3.75
  9
$DIMRND
 40
0.0
  9
$DIMDLE
 40
0.0
  9
$DIMEXE
 40
1.0
  9
$DIMTP
 40
0.0
  9
$DIMTM
 40
0.0
  9
$DIMTXT
 40
3.5
  9
$DIMCEN
 40
2.5
  9
$DIMTSZ
 40
0.0
  9
$DIMTOL
 70
     0
  9
$DIMLIM
 70
     0
  9
$DIMTIH
 70
     1
  9
$DIMTOH
 70
     1
  9
$DIMSE1
 70
     0
  9
$DIMSE2
 70
     0
  9
$DIMTAD
 70
     1
  9
$DIMZIN
 70
     1
  9
$DIMBLK
  1

  9
$DIMASO
 70
     1
  9
$DIMSHO
 70
     1
  9
$DIMPOST
  1

  9
$DIMAPOST
  1

  9
$DIMALT
 70
     0
  9
$DIMALTD
 70
     3
  9
$DIMALTF
 40
0.0393700787
  9
$DIMLFAC
 40
1.0
  9
$DIMTOFL
 70
     1
  9
$DIMTVP
 40
0.0
  9
$DIMTIX
 70
     0
  9
$DIMSOXD
 70
     0
  9
$DIMSAH
 70
     0
  9
$DIMBLK1
  1

  9
$DIMBLK2
  1

  9
$DIMSTYLE
  2
ISO-25
  9
$DIMCLRD
 70
     0
  9
$DIMCLRE
 70
     0
  9
$DIMCLRT
 70
     0
  9
$DIMTFAC
 40
1.0
  9
$DIMGAP
 40
1.524
  9
$DIMJUST
 70
     0
  9
$DIMSD1
 70
     0
  9
$DIMSD2
 70
     0
  9
$DIMTOLJ
 70
     0
  9
$DIMTZIN
 70
     1
  9
$DIMALTZ
 70
     0
  9
$DIMALTTZ
 70
     0
  9
$DIMUPT
 70
     0
  9
$DIMDEC
 70
     2
  9
$DIMTDEC
 70
     2
  9
$DIMALTU
 70
     2
  9
$DIMALTTD
 70
     3
  9
$DIMTXSTY
  7
Standard
  9
$DIMAUNIT
 70
     0
  9
$DIMADEC
 70
     2
  9
$DIMALTRND
 40
0.0
  9
$DIMAZIN
 70
     0
  9
$DIMDSEP
 70
    44
  9
$DIMATFIT
 70
     3
  9
$DIMFRAC
 70
     0
  9
$DIMLDRBLK
  1

  9
$DIMLUNIT
 70
     2
  9
$DIMLWD
 70
    -2
  9
$DIMLWE
 70
    -2
  9
$DIMTMOVE
 70
     0
  9
$LUNITS
 70
     2
  9
$LUPREC
 70
     2
  9
$SKETCHINC
 40
1.0
  9
$FILLETRAD
 40
0.0
  9
$AUNITS
 70
     0
  9
$AUPREC
 70
     2
  9
$MENU
  1
.
  9
$ELEVATION
 40
0.0
  9
$PELEVATION
 40
0.0
  9
$THICKNESS
 40
0.0
  9
$LIMCHECK
 70
     0
  9
$CHAMFERA
 40
0.0
  9
$CHAMFERB
 40
0.0
  9
$CHAMFERC
 40
0.0
  9
$CHAMFERD
 40
0.0
  9
$SKPOLY
 70
     0
  9
$TDCREATE
 40
2460951.558548299
  9
$TDUCREATE
 40
2460951.808548299
  9
$TDUPDATE
 40
2460951.558586794
  9
$TDUUPDATE
 40
2460951.808586794
  9
$TDINDWG
 40
0.0000000116
  9
$TDUSRTIMER
 40
0.0000000116
  9
$USRTIMER
 70
     1
  9
$ANGBASE
 50
0.0
  9
$ANGDIR
 70
     0
  9
$PDMODE
 70
     0
  9
$PDSIZE
 40
-1.0
  9
$PLINEWID
 40
0.0
  9
$SPLFRAME
 70
     0
  9
$SPLINETYPE
 70
     6
  9
$SPLINESEGS
 70
     8
  9
$HANDSEED
  5
6D
  9
$SURFTAB1
 70
     6
  9
$SURFTAB2
 70
     6
  9
$SURFTYPE
 70
     6
  9
$SURFU
 70
     6
  9
$SURFV
 70
     6
  9
$UCSBASE
  2

  9
$UCSNAME
  2

  9
$UCSORG
 10
0.0
 20
0.0
 30
0.0
  9
$UCSXDIR
 10
1.0
 20
0.0
 30
0.0
  9
$UCSYDIR
 10
0.0
 20
1.0
 30
0.0
  9
$UCSORTHOREF
  2

  9
$UCSORTHOVIEW
 70
     0
  9
$UCSORGTOP
 10
0.0
 20
0.0
 30
0.0
  9
$UCSORGBOTTOM
 10
0.0
 20
0.0
 30
0.0
  9
$UCSORGLEFT
 10
0.0
 20
0.0
 30
0.0
  9
$UCSORGRIGHT
 10
0.0
 20
0.0
 30
0.0
  9
$UCSORGFRONT
 10
0.0
 20
0.0
 30
0.0
  9
$UCSORGBACK
 10
0.0
 20
0.0
 30
0.0
  9
$PUCSBASE
  2

  9
$PUCSNAME
  2

  9
$PUCSORG
 10
0.0
 20
0.0
 30
0.0
  9
$PUCSXDIR
 10
1.0
 20
0.0
 30
0.0
  9
$PUCSYDIR
 10
0.0
 20
1.0
 30
0.0
  9
$PUCSORTHOREF
  2

  9
$PUCSORTHOVIEW
 70
     0
  9
$PUCSORGTOP
 10
0.0
 20
0.0
 30
0.0
  9
$PUCSORGBOTTOM
 10
0.0
 20
0.0
 30
0.0
  9
$PUCSORGLEFT
 10
0.0
 20
0.0
 30
0.0
  9
$PUCSORGRIGHT
 10
0.0
 20
0.0
 30
0.0
  9
$PUCSORGFRONT
 10
0.0
 20
0.0
 30
0.0
  9
$PUCSORGBACK
 10
0.0
 20
0.0
 30
0.0
  9
$USERI1
 70
     0
  9
$USERI2
 70
     0
  9
$USERI3
 70
     0
  9
$USERI4
 70
     0
  9
$USERI5
 70
     0
  9
$USERR1
 40
0.0
  9
$USERR2
 40
0.0
  9
$USERR3
 40
0.0
  9
$USERR4
 40
0.0
  9
$USERR5
 40
0.0
  9
$WORLDVIEW
 70
     1
  9
$SHADEDGE
 70
     3
  9
$SHADEDIF
 70
    70
  9
$TILEMODE
 70
     1
  9
$MAXACTVP
 70
    64
  9
$PINSBASE
 10
0.0
 20
0.0
 30
0.0
  9
$PLIMCHECK
 70
     0
  9
$PEXTMIN
 10
1.0000000000E+20
 20
1.0000000000E+20
 30
1.0000000000E+20
  9
$PEXTMAX
 10
-1.0000000000E+20
 20
-1.0000000000E+20
 30
-1.0000000000E+20
  9
$PLIMMIN
 10
0.0
 20
0.0
  9
$PLIMMAX
 10
420.0
 20
297.0
  9
$UNITMODE
 70
     0
  9
$VISRETAIN
 70
     1
  9
$PLINEGEN
 70
     0
  9
$PSLTSCALE
 70
     1
  9
$TREEDEPTH
 70
  3020
  9
$CMLSTYLE
  2
Standard
  9
$CMLJUST
 70
     0
  9
$CMLSCALE
 40
20.0
  9
$PROXYGRAPHICS
 70
     1
  9
$MEASUREMENT
 70
     1
  9
$CELWEIGHT
370
    -1
  9
$ENDCAPS
280
     0
  9
$JOINSTYLE
280
     0
  9
$LWDISPLAY
290
     1
  9
$INSUNITS
 70
     4
  9
$HYPERLINKBASE
  1

  9
$STYLESHEET
  1

  9
$XEDIT
290
     1
  9
$CEPSNTYPE
380
     0
  9
$PSTYLEMODE
290
     1
  9
$FINGERPRINTGUID
  2
{9c80b3d7-c388-45bf-aab8-71e32366b4b9}
  9
$VERSIONGUID
  2
{FAEB1C32-E019-11D5-929B-00C0DF256EC4}
  9
$EXTNAMES
290
     1
  9
$PSVPSCALE
 40
0.0
  9
$OLESTARTUP
290
     0
  0
ENDSEC
  0
SECTION
  2
CLASSES
  0
CLASS
  1
ACDBDICTIONARYWDFLT
  2
AcDbDictionaryWithDefault
  3
ObjectDBX Classes
 90
        0
280
     0
281
     0
  0
CLASS
  1
VISUALSTYLE
  2
AcDbVisualStyle
  3
ObjectDBX Classes
 90
     4095
280
     0
281
     0
  0
CLASS
  1
MATERIAL
  2
AcDbMaterial
  3
ObjectDBX Classes
 90
     1153
280
     0
281
     0
  0
CLASS
  1
SCALE
  2
AcDbScale
  3
ObjectDBX Classes
 90
     1153
280
     0
281
     0
  0
CLASS
  1
TABLESTYLE
  2
AcDbTableStyle
  3
ObjectDBX Classes
 90
     4095
280
     0
281
     0
  0
CLASS
  1
MLEADERSTYLE
  2
AcDbMLeaderStyle
  3
ACDB_MLEADERSTYLE_CLASS
 90
     4095
280
     0
281
     0
  0
CLASS
  1
SUN
  2
AcDbSun
  3
SCENEOE
 90
     1153
280
     0
281
     0
  0
CLASS
  1
ACDBPLACEHOLDER
  2
AcDbPlaceHolder
  3
ObjectDBX Classes
 90
        0
280
     0
281
     0
  0
CLASS
  1
LAYOUT
  2
AcDbLayout
  3
ObjectDBX Classes
 90
        0
280
     0
281
     0
  0
ENDSEC
  0
SECTION
  2
TABLES
  0
TABLE
  2
VPORT
  5
8
330
0
100
AcDbSymbolTable
 70
     1
  0
VPORT
  5
29
330
8
100
AcDbSymbolTableRecord
100
AcDbViewportTableRecord
  2
*Active
 70
     0
 10
0.0
 20
0.0
 11
1.0
 21
1.0
 12
-28.067784329
 22
38.0866863241
 13
0.0
 23
0.0
 14
10.0
 24
10.0
 15
10.0
 25
10.0
 16
0.0
 26
0.0
 36
1.0
 17
0.0
 27
0.0
 37
0.0
 40
53.5398883478
 41
0.606922728
 42
50.0
 43
0.0
 44
0.0
 50
0.0
 51
0.0
 71
     0
 72
   100
 73
     1
 74
     3
 75
     0
 76
     0
 77
     0
 78
     0
281
     0
 65
     1
110
0.0
120
0.0
130
0.0
111
1.0
121
0.0
131
0.0
112
0.0
122
1.0
132
0.0
 79
     0
146
0.0
  0
ENDTAB
  0
TABLE
  2
LTYPE
  5
5
330
0
100
AcDbSymbolTable
 70
     6
  0
LTYPE
  5
14
330
5
100
AcDbSymbolTableRecord
100
AcDbLinetypeTableRecord
  2
ByBlock
 70
     0
  3

 72
    65
 73
     0
 40
0.0
  0
LTYPE
  5
15
330
5
100
AcDbSymbolTableRecord
100
AcDbLinetypeTableRecord
  2
ByLayer
 70
     0
  3

 72
    65
 73
     0
 40
0.0
  0
LTYPE
  5
16
330
5
100
AcDbSymbolTableRecord
100
AcDbLinetypeTableRecord
  2
Continuous
 70
     0
  3
Solid line
 72
    65
 73
     0
 40
0.0
  0
LTYPE
  5
5E
330
5
100
AcDbSymbolTableRecord
100
AcDbLinetypeTableRecord
  2
HIDDEN
 70
     0
  3
Hidden __ __ __ __ __ __ __ __ __ __ __ __ __ __
 72
    65
 73
     2
 40
1.905
 49
1.27
 74
     0
 49
-0.635
 74
     0
  0
LTYPE
  5
5F
330
5
100
AcDbSymbolTableRecord
100
AcDbLinetypeTableRecord
  2
PHANTOM
 70
     0
  3
Phantom ______  __  __  ______  __  __  ______
 72
    65
 73
     6
 40
12.7
 49
6.35
 74
     0
 49
-1.27
 74
     0
 49
1.27
 74
     0
 49
-1.27
 74
     0
 49
1.27
 74
     0
 49
-1.27
 74
     0
  0
LTYPE
  5
60
330
5
100
AcDbSymbolTableRecord
100
AcDbLinetypeTableRecord
  2
CENTER
 70
     0
  3
Center ____ _ ____ _ ____ _ ____ _ ____ _ ____
 72
    65
 73
     4
 40
10.16
 49
6.35
 74
     0
 49
-1.27
 74
     0
 49
1.27
 74
     0
 49
-1.27
 74
     0
  0
LTYPE
  5
61
330
5
100
AcDbSymbolTableRecord
100
AcDbLinetypeTableRecord
  2
CENTERX2
 70
     0
  3
Center (2x) ________  __  ________  __  _____
 72
    65
 73
     4
 40
20.32
 49
12.7
 74
     0
 49
-2.54
 74
     0
 49
2.54
 74
     0
 49
-2.54
 74
     0
  0
LTYPE
  5
62
330
5
100
AcDbSymbolTableRecord
100
AcDbLinetypeTableRecord
  2
DOT2
 70
     0
  3
Dot (.5x) ........................................
 72
    65
 73
     2
 40
0.635
 49
0.0
 74
     0
 49
-0.635
 74
     0
  0
ENDTAB
  0
TABLE
  2
LAYER
  5
2
330
0
100
AcDbSymbolTable
 70
     1
  0
LAYER
  5
10
330
2
100
AcDbSymbolTableRecord
100
AcDbLayerTableRecord
  2
0
 70
     0
 62
     7
  6
Continuous
370
    -3
390
F
  0
ENDTAB
  0
TABLE
  2
STYLE
  5
3
330
0
100
AcDbSymbolTable
 70
     2
  0
STYLE
  5
11
330
3
100
AcDbSymbolTableRecord
100
AcDbTextStyleTableRecord
  2
Standard
 70
     0
 40
0.0
 41
1.0
 50
0.0
 71
     0
 42
3.5
  3
txt
  4

  0
STYLE
  5
69
330
3
100
AcDbSymbolTableRecord
100
AcDbTextStyleTableRecord
  2
SLDTEXTSTYLE0
 70
     0
 40
0.0
 41
0.7
 50
0.0
 71
     0
 42
3.5
  3
TXT
  4

  0
ENDTAB
  0
TABLE
  2
VIEW
  5
6
330
0
100
AcDbSymbolTable
 70
     0
  0
ENDTAB
  0
TABLE
  2
UCS
  5
7
330
0
100
AcDbSymbolTable
 70
     0
  0
ENDTAB
  0
TABLE
  2
APPID
  5
9
330
0
100
AcDbSymbolTable
 70
     1
  0
APPID
  5
12
330
9
100
AcDbSymbolTableRecord
100
AcDbRegAppTableRecord
  2
ACAD
 70
     0
  0
ENDTAB
  0
TABLE
  2
DIMSTYLE
  5
A
330
0
100
AcDbSymbolTable
 70
     1
100
AcDbDimStyleTable
  0
DIMSTYLE
105
27
330
A
100
AcDbSymbolTableRecord
100
AcDbDimStyleTableRecord
  2
ISO-25
 70
     0
 41
2.5
 42
0.625
 43
3.75
 44
1.25
 73
     0
 74
     0
 77
     1
 78
     8
140
2.5
141
2.5
143
0.0393700787
147
0.625
171
     3
172
     1
178
     0
271
     2
272
     2
274
     3
278
    44
283
     0
284
     8
340
11
  0
ENDTAB
  0
TABLE
  2
BLOCK_RECORD
  5
1
330
0
100
AcDbSymbolTable
 70
     1
  0
BLOCK_RECORD
  5
1F
330
1
100
AcDbSymbolTableRecord
100
AcDbBlockTableRecord
  2
*Model_Space
340
22
  0
BLOCK_RECORD
  5
1B
330
1
100
AcDbSymbolTableRecord
100
AcDbBlockTableRecord
  2
*Paper_Space
340
1E
  0
BLOCK_RECORD
  5
23
330
1
100
AcDbSymbolTableRecord
100
AcDbBlockTableRecord
  2
*Paper_Space0
340
26
  0
ENDTAB
  0
ENDSEC
  0
SECTION
  2
BLOCKS
  0
BLOCK
  5
20
330
1F
100
AcDbEntity
  8
0
100
AcDbBlockBegin
  2
*Model_Space
 70
     0
 10
0.0
 20
0.0
 30
0.0
  3
*Model_Space
  1

  0
ENDBLK
  5
21
330
1F
100
AcDbEntity
  8
0
100
AcDbBlockEnd
  0
BLOCK
  5
1C
330
1B
100
AcDbEntity
 67
     1
  8
0
100
AcDbBlockBegin
  2
*Paper_Space
 70
     0
 10
0.0
 20
0.0
 30
0.0
  3
*Paper_Space
  1

  0
ENDBLK
  5
1D
330
1B
100
AcDbEntity
 67
     1
  8
0
100
AcDbBlockEnd
  0
BLOCK
  5
24
330
23
100
AcDbEntity
  8
0
100
AcDbBlockBegin
  2
*Paper_Space0
 70
     0
 10
0.0
 20
0.0
 30
0.0
  3
*Paper_Space0
  1

  0
ENDBLK
  5
25
330
23
100
AcDbEntity
  8
0
100
AcDbBlockEnd
  0
ENDSEC
  0
SECTION
  2
ENTITIES
  0
CIRCLE
  5
63
330
1F
100
AcDbEntity
  8
0
  6
Continuous
 62
     7
100
AcDbCircle
 10
-31.3501032089
 20
31.0316134988
 30
0.0
 40
2.081279630636875
  0
LINE
  5
64
330
1F
100
AcDbEntity
  8
0
  6
Continuous
 62
     7
100
AcDbLine
 10
-28.9119561925
 20
12.0376613324
 30
0.0
 11
-23.1787826097
 21
14.8559428283
 31
0.0
  0
SPLINE
  5
65
330
1F
100
AcDbEntity
  8
0
  6
Continuous
 62
     7
100
AcDbSpline
210
0.0
220
0.0
230
1.0
 70
     8
 71
     3
 72
    64
 73
    60
 74
     0
 42
0.00000001
 43
0.00000001
 40
0.0
 40
0.0
 40
0.0
 40
0.0
 40
0.0533958983298444
 40
0.0915676579406921
 40
0.1204916788166919
 40
0.1452553172536864
 40
0.1676376986411032
 40
0.1886100752124696
 40
0.2274976443787383
 40
0.2570070846623387
 40
0.2828107706930243
 40
0.2992629485709118
 40
0.3188156857621847
 40
0.3363145557572352
 40
0.3390564781338601
 40
0.3408494624702837
 40
0.345269074230164
 40
0.3562079984654702
 40
0.3724540979207537
 40
0.3993798893913558
 40
0.4355041140711275
 40
0.4735990802980277
 40
0.5144842415393461
 40
0.548352735520741
 40
0.5812263744738374
 40
0.6141508916981904
 40
0.6384770565091785
 40
0.6513687928985489
 40
0.6559388445630742
 40
0.6620447845510943
 40
0.6654553769057003
 40
0.6688950456006175
 40
0.6736373340854522
 40
0.6821580035009586
 40
0.6961520418873218
 40
0.7151972511450585
 40
0.7653946277836022
 40
0.8077662852674347
 40
0.840392736946434
 40
0.8608166312591203
 40
0.8834311360416525
 40
0.9062967345859072
 40
0.9307937949636008
 40
0.9491714807237583
 40
0.9659070592011814
 40
0.9813210301644217
 40
0.9940455513904416
 40
0.9949972887463369
 40
0.9952816877207353
 40
0.9953204950429886
 40
0.9953569083293351
 40
0.9954039006740769
 40
0.9954230148901204
 40
0.99543162103752
 40
0.9954409795606033
 40
0.9954534490731993
 40
0.9954903611786331
 40
0.9965632977989838
 40
0.9999999999999999
 40
0.9999999999999999
 40
0.9999999999999999
 40
0.9999999999999999
 10
-20.55695652961731
 20
37.26094267338205
 30
0.0
 10
-23.37725259694665
 20
41.8322461504925
 30
0.0
 10
-25.53582363458267
 20
45.0079337405126
 30
0.0
 10
-27.28822460042838
 20
47.33059345403011
 30
0.0
 10
-28.85871314035166
 20
49.2642431520207
 30
0.0
 10
-30.34509915013545
 20
50.95541118518432
 30
0.0
 10
-31.81325668357053
 20
52.47044229113405
 30
0.0
 10
-34.73342469429443
 20
55.07336542378859
 30
0.0
 10
-37.10977850214587
 20
56.85234154518636
 30
0.0
 10
-39.26144390754614
 20
58.30422349058153
 30
0.0
 10
-40.59861403943751
 20
59.27939738551822
 30
0.0
 10
-42.16042221048232
 20
60.47497115965562
 30
0.0
 10
-43.63063551593062
 20
61.44298843693172
 30
0.0
 10
-43.90616352786325
 20
61.45569136401362
 30
0.0
 10
-44.00189069894352
 20
61.30282793338839
 30
0.0
 10
-43.99057179486181
 20
60.85838602970095
 30
0.0
 10
-43.77058208569593
 20
59.78021129703495
 30
0.0
 10
-43.41551363417738
 20
58.1849910572734
 30
0.0
 10
-42.63533138212988
 20
55.59121579354918
 30
0.0
 10
-41.03272675368889
 20
52.32981737268578
 30
0.0
 10
-39.07832189632515
 20
49.03353815124085
 30
0.0
 10
-36.5939587478665
 20
45.75587923810497
 30
0.0
 10
-34.14755517847401
 20
43.38469511684266
 30
0.0
 10
-31.49227405374949
 20
41.41365760055665
 30
0.0
 10
-28.64366137166048
 20
39.72404571657346
 30
0.0
 10
-26.5434814716642
 20
38.4681132380457
 30
0.0
 10
-25.37157757624838
 20
37.91276682114976
 30
0.0
 10
-24.91385214403589
 20
37.86999638092568
 30
0.0
 10
-24.29994373624091
 20
37.88956970639607
 30
0.0
 10
-24.03193889696082
 20
37.67537215135977
 30
0.0
 10
-24.03944830741598
 20
37.32944393681282
 30
0.0
 10
-24.4916245225412
 20
37.17742777526511
 30
0.0
 10
-25.34873275673575
 20
37.17169213553177
 30
0.0
 10
-26.75329633258961
 20
37.07755041692278
 30
0.0
 10
-28.63327734582548
 20
36.70865522720919
 30
0.0
 10
-33.24774808463577
 20
34.6581388790403
 30
0.0
 10
-36.41409466355832
 20
31.8047704878925
 30
0.0
 10
-38.0305087706368
 20
28.94839596535529
 30
0.0
 10
-38.5935161117483
 20
26.97252340529801
 30
0.0
 10
-38.73103662325478
 20
24.70180249983277
 30
0.0
 10
-37.99117389236726
 20
22.52390290453711
 30
0.0
 10
-36.2248696755027
 20
20.80555423222582
 30
0.0
 10
-34.74980002983074
 20
19.69119381227044
 30
0.0
 10
-33.34445902709557
 20
18.76427441944497
 30
0.0
 10
-31.937862648255
 20
18.11182000551146
 30
0.0
 10
-30.69957073647616
 20
17.78769509912359
 30
0.0
 10
-30.60670264021762
 20
17.76442561755421
 30
0.0
 10
-30.58013582948151
 20
17.75381108839824
 30
0.0
 10
-30.57759476730366
 20
17.75084755966927
 30
0.0
 10
-30.57932839509877
 20
17.74762083190845
 30
0.0
 10
-30.58346467238607
 20
17.74533236160798
 30
0.0
 10
-30.58504764342247
 20
17.74424091244616
 30
0.0
 10
-30.58522053141068
 20
17.74339262521166
 30
0.0
 10
-30.58452109707924
 20
17.74276251001988
 30
0.0
 10
-30.58338122422463
 20
17.74223896314682
 30
0.0
 10
-30.5798129044177
 20
17.74121209916331
 30
0.0
 10
-30.47277842978454
 20
17.72733054754421
 30
0.0
 10
-30.12908214181749
 20
17.6900590410341
 30
0.0
 10
-30.24369512558014
 20
17.70402984653749
 30
0.0
 10
-30.12908214181749
 20
17.69005904103411
 30
0.0
  0
SPLINE
  5
66
330
1F
100
AcDbEntity
  8
0
  6
Continuous
 62
     7
100
AcDbSpline
210
0.0
220
0.0
230
1.0
 70
     8
 71
     3
 72
    16
 73
    12
 74
     0
 42
0.00000001
 43
0.00000001
 40
0.0
 40
0.0
 40
0.0
 40
0.0
 40
0.1204521804318351
 40
0.1623072032654016
 40
0.2046937760232338
 40
0.3330193929148213
 40
0.8271184598785031
 40
0.9421466222536611
 40
0.9808790568825017
 40
0.9924818601112729
 40
0.9999999999999999
 40
0.9999999999999999
 40
0.9999999999999999
 40
0.9999999999999999
 10
-30.129075050354
 20
17.6900590410341
 30
0.0
 10
-29.316655848117
 20
17.81627087855925
 30
0.0
 10
-29.05631138576709
 20
17.69863479015588
 30
0.0
 10
-28.91627958632185
 20
17.44546528806479
 30
0.0
 10
-28.8887999276382
 20
16.56999067517652
 30
0.0
 10
-28.9263358378738
 20
13.19765215539178
 30
0.0
 10
-28.97428761434274
 20
12.41397582414758
 30
0.0
 10
-28.96925606844028
 20
12.14964965710166
 30
0.0
 10
-28.94911012948229
 20
12.07305817769079
 30
0.0
 10
-28.91195619250817
 20
12.03766133236682
 30
0.0
 10
-28.92588582240709
 20
12.04850596897948
 30
0.0
 10
-28.91195619250817
 20
12.03766133236682
 30
0.0
  0
SPLINE
  5
67
330
1F
100
AcDbEntity
  8
0
  6
Continuous
 62
     7
100
AcDbSpline
210
0.0
220
0.0
230
1.0
 70
     8
 71
     3
 72
    52
 73
    48
 74
     0
 42
0.00000001
 43
0.00000001
 40
0.0
 40
0.0
 40
0.0
 40
0.0
 40
0.0279896384433814
 40
0.049388428544169
 40
0.0690125017552539
 40
0.0864093610079345
 40
0.101440955296463
 40
0.156338143538215
 40
0.1881538086831796
 40
0.2126701702913849
 40
0.2377945668647278
 40
0.269079152500708
 40
0.2971516365011648
 40
0.3155855336763566
 40
0.3365230459928162
 40
0.3447036225383895
 40
0.3498287671535956
 40
0.3560001317787688
 40
0.3629455832005299
 40
0.3719179455627248
 40
0.3859373627705398
 40
0.4046617722122799
 40
0.4333125863316084
 40
0.4543613832392463
 40
0.4770772149828498
 40
0.48613802411488
 40
0.4900129426585014
 40
0.4924874859732047
 40
0.4947956020217234
 40
0.4992783685675121
 40
0.5082592573806841
 40
0.5255201872742556
 40
0.5694258408698349
 40
0.7061586295017985
 40
0.8038503495831368
 40
0.8793445698688176
 40
0.9303183419276293
 40
0.9568548689952282
 40
0.9673581418299969
 40
0.9797467786856002
 40
0.9870819475465308
 40
0.9953824784381127
 40
0.9962736588157158
 40
0.9965086056441278
 40
0.9966538813063802
 40
0.9975349188241724
 40
1.0
 40
1.0
 40
1.0
 40
1.0
 10
-20.55695652961731
 20
37.26094267338205
 30
0.0
 10
-20.59091424821512
 20
38.91480142916186
 30
0.0
 10
-20.97341065011135
 20
40.12025611827132
 30
0.0
 10
-21.26246158611345
 20
41.24345582201203
 30
0.0
 10
-21.43770451709295
 20
42.25657799222473
 30
0.0
 10
-21.49781534556249
 20
43.14291980640729
 30
0.0
 10
-21.6760994777201
 20
46.38248019277913
 30
0.0
 10
-21.81046059724709
 20
48.25800178896438
 30
0.0
 10
-21.50531262372493
 20
49.67443926274926
 30
0.0
 10
-21.3536286323403
 20
51.15154097607707
 30
0.0
 10
-20.93821753119763
 20
52.9532114695184
 30
0.0
 10
-20.4940311845995
 20
54.55174928105954
 30
0.0
 10
-20.13408225043393
 20
55.58002540867261
 30
0.0
 10
-19.69172480013157
 20
56.73567777549632
 30
0.0
 10
-19.59096743165832
 20
57.20854008895716
 30
0.0
 10
-19.57120188286312
 20
57.51079416076594
 30
0.0
 10
-19.3354559403791
 20
57.78909845095738
 30
0.0
 10
-19.01306989754089
 20
58.04318888161615
 30
0.0
 10
-18.8216246340749
 20
58.53769681224037
 30
0.0
 10
-18.72609301809151
 20
59.3607284757139
 30
0.0
 10
-18.11565702630367
 20
60.28376071563331
 30
0.0
 10
-17.03752357116376
 20
61.58945460498818
 30
0.0
 10
-16.37210697836634
 20
62.64052718156997
 30
0.0
 10
-15.67309906579696
 20
63.78671752881169
 30
0.0
 10
-15.30216840338932
 20
64.17294402463081
 30
0.0
 10
-15.11797167700589
 20
64.30902244176806
 30
0.0
 10
-14.97633841620869
 20
64.34546799198328
 30
0.0
 10
-14.86537631937086
 20
64.26612411203811
 30
0.0
 10
-14.76802922500911
 20
64.01972217097735
 30
0.0
 10
-14.64559248387831
 20
63.50325986819862
 30
0.0
 10
-14.5107554671352
 20
62.49207712656371
 30
0.0
 10
-14.09853232915646
 20
59.93017456346751
 30
0.0
 10
-13.03719191634319
 20
51.91917067971206
 30
0.0
 10
-13.23699919484443
 20
46.14897962681488
 30
0.0
 10
-14.17917473877893
 20
41.7878305227102
 30
0.0
 10
-15.26634599498389
 20
38.97825191717151
 30
0.0
 10
-16.0623816151316
 20
37.62696430097681
 30
0.0
 10
-16.35604493146304
 20
37.08006994606487
 30
0.0
 10
-16.45307854178756
 20
36.35435108084258
 30
0.0
 10
-16.22463885510507
 20
35.98590924197784
 30
0.0
 10
-15.83436851299447
 20
35.68867994244174
 30
0.0
 10
-15.79631614007526
 20
35.65226454302677
 30
0.0
 10
-15.79312239244003
 20
35.63875130049158
 30
0.0
 10
-15.78765523229106
 20
35.63213104867332
 30
0.0
 10
-15.74039147792543
 20
35.61028119929522
 30
0.0
 10
-15.60538488072443
 20
35.55552518018611
 30
0.0
 10
-15.64925767368844
 20
35.57547188404883
 30
0.0
 10
-15.60538488072443
 20
35.55552518018611
 30
0.0
  0
SPLINE
  5
68
330
1F
100
AcDbEntity
  8
0
  6
Continuous
 62
     7
100
AcDbSpline
210
0.0
220
0.0
230
1.0
 70
     8
 71
     3
 72
    35
 73
    31
 74
     0
 42
0.00000001
 43
0.00000001
 40
0.0
 40
0.0
 40
0.0
 40
0.0
 40
0.0086270227404221
 40
0.0164739243920506
 40
0.0361630701679257
 40
0.07333354866489
 40
0.0882459894227789
 40
0.0943807533705643
 40
0.0958579456781151
 40
0.0982951760731518
 40
0.1102125051558038
 40
0.1598444591890206
 40
0.2148299765743489
 40
0.2736721749742659
 40
0.3204892963114228
 40
0.3715648237786904
 40
0.4003389468680901
 40
0.4422745654177045
 40
0.4841433513573394
 40
0.5975285078972755
 40
0.7135433881640402
 40
0.8057159925173211
 40
0.8757702187671726
 40
0.9056397284528089
 40
0.9436359230968434
 40
0.9739889762733468
 40
0.979230781475054
 40
0.9809105214851586
 40
0.9848441620116182
 40
0.9999999999999999
 40
0.9999999999999999
 40
0.9999999999999999
 40
0.9999999999999999
 10
-23.17877113819122
 20
14.85594282830532
 30
0.0
 10
-22.91759124275025
 20
14.72766203145052
 30
0.0
 10
-22.81054685484371
 20
14.48560503107647
 30
0.0
 10
-22.87040152038374
 20
13.82420855630153
 30
0.0
 10
-22.90285641276258
 20
12.57089789090492
 30
0.0
 10
-22.93197292909645
 20
12.06875651888981
 30
0.0
 10
-22.88303336256712
 20
11.86770650608181
 30
0.0
 10
-22.84123923107296
 20
11.84058208792504
 30
0.0
 10
-22.7590337423785
 20
11.84082633738155
 30
0.0
 10
-22.41434138879385
 20
12.04761291978475
 30
0.0
 10
-21.01120552135205
 20
12.96065260508519
 30
0.0
 10
-19.28846360349914
 20
13.64750636457824
 30
0.0
 10
-17.46549733329994
 20
14.43225543249959
 30
0.0
 10
-16.03065207376545
 20
15.09164143390426
 30
0.0
 10
-14.49575248055061
 20
15.8738858733849
 30
0.0
 10
-13.70412377166656
 20
16.43535656981636
 30
0.0
 10
-13.20960744476983
 20
17.76054981873637
 30
0.0
 10
-12.90025243780375
 20
19.1384508110555
 30
0.0
 10
-12.20694130931765
 20
22.89947334020971
 30
0.0
 10
-12.03706872425874
 20
26.80887445771122
 30
0.0
 10
-12.42801820244819
 20
29.89310425988754
 30
0.0
 10
-13.25163445659166
 20
32.10778885362664
 30
0.0
 10
-13.71124241795887
 20
33.00431895422999
 30
0.0
 10
-14.43210303841556
 20
34.0639468444461
 30
0.0
 10
-15.05030384209793
 20
34.88001201941312
 30
0.0
 10
-15.14926623634198
 20
35.02652266835238
 30
0.0
 10
-15.17476629639675
 20
35.07711598150686
 30
0.0
 10
-15.25852972838655
 20
35.18001055466724
 30
0.0
 10
-15.60538488072443
 20
35.5555251801861
 30
0.0
 10
-15.49132923779553
 20
35.43008968730321
 30
0.0
 10
-15.60538488072443
 20
35.5555251801861
 30
0.0
  0
MTEXT
  5
6A
330
1F
100
AcDbEntity
  8
0
  6
Continuous
 62
     7
100
AcDbMText
 10
-43.9964976094
 20
10.8220766247
 30
0.0
 40
4.83362
 41
0.0
 71
     1
 72
     1
  1
Producto SOLIDWORKS Educational.
  7
SLDTEXTSTYLE0
 73
     1
 44
1.0
  0
MTEXT
  5
6B
330
1F
100
AcDbEntity
  8
0
  6
Continuous
 62
     7
100
AcDbMText
 10
-43.9964976094
 20
3.5716466247
 30
0.0
 40
4.83362
 41
0.0
 71
     1
 72
     1
  1
Solo para uso en la enseñanza.
  7
SLDTEXTSTYLE0
 73
     1
 44
1.0
  0
ENDSEC
  0
SECTION
  2
OBJECTS
  0
DICTIONARY
  5
C
330
0
100
AcDbDictionary
281
     1
  3
ACAD_GROUP
350
D
  3
ACAD_LAYOUT
350
1A
  3
ACAD_MLINESTYLE
350
17
  3
ACAD_PLOTSETTINGS
350
19
  3
ACAD_PLOTSTYLENAME
350
E
  3
ACAD_SCALELIST
350
47
  3
DWGPROPS
350
6C
  0
DICTIONARY
  5
D
102
{ACAD_REACTORS
330
C
102
}
330
C
100
AcDbDictionary
281
     1
  0
DICTIONARY
  5
1A
102
{ACAD_REACTORS
330
C
102
}
330
C
100
AcDbDictionary
281
     1
  3
Layout1
350
1E
  3
Layout2
350
26
  3
Model
350
22
  0
DICTIONARY
  5
17
102
{ACAD_REACTORS
330
C
102
}
330
C
100
AcDbDictionary
281
     1
  3
Standard
350
18
  0
DICTIONARY
  5
19
102
{ACAD_REACTORS
330
C
102
}
330
C
100
AcDbDictionary
281
     1
  0
ACDBDICTIONARYWDFLT
  5
E
102
{ACAD_REACTORS
330
C
102
}
330
C
100
AcDbDictionary
281
     1
  3
Normal
350
F
100
AcDbDictionaryWithDefault
340
F
  0
DICTIONARY
  5
47
102
{ACAD_REACTORS
330
C
102
}
330
C
100
AcDbDictionary
281
     1
  3
A0
350
48
  3
A1
350
49
  3
A2
350
4A
  3
A3
350
4B
  3
A4
350
4C
  3
A5
350
4D
  3
A6
350
4E
  3
A7
350
4F
  3
A8
350
50
  3
A9
350
51
  3
B0
350
52
  3
B1
350
53
  3
B2
350
54
  3
B3
350
55
  3
B4
350
56
  3
B5
350
57
  3
B6
350
58
  0
XRECORD
  5
6C
102
{ACAD_REACTORS
330
C
102
}
330
C
100
AcDbXrecord
280
     1
  1
DWGPROPS COOKIE
  2

  3

  4

  6

  7

  8
joy_2
  9

300
=
301
=
302
=
303
=
304
=
305
=
306
=
307
=
308
=
309
=
 40
0.0
 41
2460951.808548299
 42
2460951.808586794
  1

 90
        0
  0
LAYOUT
  5
1E
102
{ACAD_REACTORS
330
1A
102
}
330
1A
100
AcDbPlotSettings
  1

  2
none_device
  4

  6

 40
0.0
 41
0.0
 42
0.0
 43
0.0
 44
0.0
 45
0.0
 46
0.0
 47
0.0
 48
0.0
 49
0.0
140
0.0
141
0.0
142
1.0
143
1.0
 70
   688
 72
     1
 73
     0
 74
     5
  7

 75
    16
147
1.0
148
0.0
149
0.0
100
AcDbLayout
  1
Layout1
 70
     1
 71
     1
 10
0.0
 20
0.0
 11
420.0
 21
297.0
 12
0.0
 22
0.0
 32
0.0
 14
1.0000000000E+20
 24
1.0000000000E+20
 34
1.0000000000E+20
 15
-1.0000000000E+20
 25
-1.0000000000E+20
 35
-1.0000000000E+20
146
0.0
 13
0.0
 23
0.0
 33
0.0
 16
1.0
 26
0.0
 36
0.0
 17
0.0
 27
1.0
 37
0.0
 76
     0
330
1B
  0
LAYOUT
  5
26
102
{ACAD_REACTORS
330
1A
102
}
330
1A
100
AcDbPlotSettings
  1

  2
none_device
  4

  6

 40
0.0
 41
0.0
 42
0.0
 43
0.0
 44
0.0
 45
0.0
 46
0.0
 47
0.0
 48
0.0
 49
0.0
140
0.0
141
0.0
142
1.0
143
1.0
 70
   688
 72
     1
 73
     0
 74
     5
  7

 75
    16
147
1.0
148
0.0
149
0.0
100
AcDbLayout
  1
Layout2
 70
     1
 71
     2
 10
0.0
 20
0.0
 11
0.0
 21
0.0
 12
0.0
 22
0.0
 32
0.0
 14
0.0
 24
0.0
 34
0.0
 15
0.0
 25
0.0
 35
0.0
146
0.0
 13
0.0
 23
0.0
 33
0.0
 16
1.0
 26
0.0
 36
0.0
 17
0.0
 27
1.0
 37
0.0
 76
     0
330
23
  0
LAYOUT
  5
22
102
{ACAD_REACTORS
330
1A
102
}
330
1A
100
AcDbPlotSettings
  1

  2
none_device
  4
ANSI_A_(11.00_x_8.50_Inches)
  6

 40
6.35
 41
19.05
 42
6.35000508
 43
19.05000254
 44
279.4
 45
215.9
 46
247.6427463788
 47
-66.1899800929
 48
0.0
 49
0.0
140
0.0
141
0.0
142
0.1603159862
143
1.0
 70
  1696
 72
     0
 73
     0
 74
     0
  7

 75
     0
147
0.0179189148
148
-1300.4909072572
149
0.0
100
AcDbLayout
  1
Model
 70
     1
 71
     0
 10
0.0
 20
0.0
 11
420.0
 21
297.0
 12
0.0
 22
0.0
 32
0.0
 14
-43.9964976094
 24
11.8416430164
 34
0.0
 15
-12.1390710486
 25
64.3317296318
 35
0.0
146
0.0
 13
0.0
 23
0.0
 33
0.0
 16
1.0
 26
0.0
 36
0.0
 17
0.0
 27
1.0
 37
0.0
 76
     0
330
1F
331
29
  0
MLINESTYLE
  5
18
102
{ACAD_REACTORS
330
17
102
}
330
17
100
AcDbMlineStyle
  2
Standard
 70
     0
  3

 62
   256
 51
90.0
 52
90.0
 71
     2
 49
0.5
 62
   256
  6
BYLAYER
 49
-0.5
 62
   256
  6
BYLAYER
  0
ACDBPLACEHOLDER
  5
F
102
{ACAD_REACTORS
330
E
102
}
330
E
  0
SCALE
  5
48
102
{ACAD_REACTORS
330
47
102
}
330
47
100
AcDbScale
 70
     0
300
1:1
140
1.0
141
1.0
290
     1
  0
SCALE
  5
49
102
{ACAD_REACTORS
330
47
102
}
330
47
100
AcDbScale
 70
     0
300
1:2
140
1.0
141
2.0
290
     0
  0
SCALE
  5
4A
102
{ACAD_REACTORS
330
47
102
}
330
47
100
AcDbScale
 70
     0
300
1:4
140
1.0
141
4.0
290
     0
  0
SCALE
  5
4B
102
{ACAD_REACTORS
330
47
102
}
330
47
100
AcDbScale
 70
     0
300
1:5
140
1.0
141
5.0
290
     0
  0
SCALE
  5
4C
102
{ACAD_REACTORS
330
47
102
}
330
47
100
AcDbScale
 70
     0
300
1:8
140
1.0
141
8.0
290
     0
  0
SCALE
  5
4D
102
{ACAD_REACTORS
330
47
102
}
330
47
100
AcDbScale
 70
     0
300
1:10
140
1.0
141
10.0
290
     0
  0
SCALE
  5
4E
102
{ACAD_REACTORS
330
47
102
}
330
47
100
AcDbScale
 70
     0
300
1:16
140
1.0
141
16.0
290
     0
  0
SCALE
  5
4F
102
{ACAD_REACTORS
330
47
102
}
330
47
100
AcDbScale
 70
     0
300
1:20
140
1.0
141
20.0
290
     0
  0
SCALE
  5
50
102
{ACAD_REACTORS
330
47
102
}
330
47
100
AcDbScale
 70
     0
300
1:30
140
1.0
141
30.0
290
     0
  0
SCALE
  5
51
102
{ACAD_REACTORS
330
47
102
}
330
47
100
AcDbScale
 70
     0
300
1:40
140
1.0
141
40.0
290
     0
  0
SCALE
  5
52
102
{ACAD_REACTORS
330
47
102
}
330
47
100
AcDbScale
 70
     0
300
1:50
140
1.0
141
50.0
290
     0
  0
SCALE
  5
53
102
{ACAD_REACTORS
330
47
102
}
330
47
100
AcDbScale
 70
     0
300
1:100
140
1.0
141
100.0
290
     0
  0
SCALE
  5
54
102
{ACAD_REACTORS
330
47
102
}
330
47
100
AcDbScale
 70
     0
300
2:1
140
2.0
141
1.0
290
     0
  0
SCALE
  5
55
102
{ACAD_REACTORS
330
47
102
}
330
47
100
AcDbScale
 70
     0
300
4:1
140
4.0
141
1.0
290
     0
  0
SCALE
  5
56
102
{ACAD_REACTORS
330
47
102
}
330
47
100
AcDbScale
 70
     0
300
8:1
140
8.0
141
1.0
290
     0
  0
SCALE
  5
57
102
{ACAD_REACTORS
330
47
102
}
330
47
100
AcDbScale
 70
     0
300
10:1
140
10.0
141
1.0
290
     0
  0
SCALE
  5
58
102
{ACAD_REACTORS
330
47
102
}
330
47
100
AcDbScale
 70
     0
300
100:1
140
100.0
141
1.0
290
     0
  0
ENDSEC
  0
EOF
