  0
SECTION
  2
HEADER
  9
$ACADVER
  1
AC1015
  9
$ACADMAINTVER
 70
     6
  9
$DWGCODEPAGE
  3
ANSI_1252
  9
$INSBASE
 10
0.0
 20
0.0
 30
0.0
  9
$EXTMIN
 10
-150.4906832928
 20
-100.0
 30
0.0
  9
$EXTMAX
 10
149.5093167072
 20
100.0
 30
0.0
  9
$LIMMIN
 10
0.0
 20
0.0
  9
$LIMMAX
 10
420.0
 20
297.0
  9
$ORTHOMODE
 70
     0
  9
$REGENMODE
 70
     1
  9
$FILLMODE
 70
     1
  9
$QTEXTMODE
 70
     0
  9
$MIRRTEXT
 70
     1
  9
$LTSCALE
 40
1.0
  9
$ATTMODE
 70
     1
  9
$TEXTSIZE
 40
3.5
  9
$TRACEWID
 40
1.0
  9
$TEXTSTYLE
  7
Standard
  9
$CLAYER
  8
0
  9
$CELTYPE
  6
ByLayer
  9
$CECOLOR
 62
   256
  9
$CELTSCALE
 40
1.0
  9
$DISPSILH
 70
     0
  9
$DIMSCALE
 40
1.0
  9
$DIMASZ
 40
3.302
  9
$DIMEXO
 40
0.0
  9
$DIMDLI
 40
3.75
  9
$DIMRND
 40
0.0
  9
$DIMDLE
 40
0.0
  9
$DIMEXE
 40
1.0
  9
$DIMTP
 40
0.0
  9
$DIMTM
 40
0.0
  9
$DIMTXT
 40
3.5
  9
$DIMCEN
 40
2.5
  9
$DIMTSZ
 40
0.0
  9
$DIMTOL
 70
     0
  9
$DIMLIM
 70
     0
  9
$DIMTIH
 70
     1
  9
$DIMTOH
 70
     1
  9
$DIMSE1
 70
     0
  9
$DIMSE2
 70
     0
  9
$DIMTAD
 70
     1
  9
$DIMZIN
 70
     1
  9
$DIMBLK
  1

  9
$DIMASO
 70
     1
  9
$DIMSHO
 70
     1
  9
$DIMPOST
  1

  9
$DIMAPOST
  1

  9
$DIMALT
 70
     0
  9
$DIMALTD
 70
     3
  9
$DIMALTF
 40
0.0393700787
  9
$DIMLFAC
 40
1.0
  9
$DIMTOFL
 70
     1
  9
$DIMTVP
 40
0.0
  9
$DIMTIX
 70
     0
  9
$DIMSOXD
 70
     0
  9
$DIMSAH
 70
     0
  9
$DIMBLK1
  1

  9
$DIMBLK2
  1

  9
$DIMSTYLE
  2
ISO-25
  9
$DIMCLRD
 70
     0
  9
$DIMCLRE
 70
     0
  9
$DIMCLRT
 70
     0
  9
$DIMTFAC
 40
1.0
  9
$DIMGAP
 40
1.524
  9
$DIMJUST
 70
     0
  9
$DIMSD1
 70
     0
  9
$DIMSD2
 70
     0
  9
$DIMTOLJ
 70
     0
  9
$DIMTZIN
 70
     1
  9
$DIMALTZ
 70
     0
  9
$DIMALTTZ
 70
     0
  9
$DIMUPT
 70
     0
  9
$DIMDEC
 70
     2
  9
$DIMTDEC
 70
     2
  9
$DIMALTU
 70
     2
  9
$DIMALTTD
 70
     3
  9
$DIMTXSTY
  7
Standard
  9
$DIMAUNIT
 70
     0
  9
$DIMADEC
 70
     2
  9
$DIMALTRND
 40
0.0
  9
$DIMAZIN
 70
     0
  9
$DIMDSEP
 70
    44
  9
$DIMATFIT
 70
     3
  9
$DIMFRAC
 70
     0
  9
$DIMLDRBLK
  1

  9
$DIMLUNIT
 70
     2
  9
$DIMLWD
 70
    -2
  9
$DIMLWE
 70
    -2
  9
$DIMTMOVE
 70
     0
  9
$LUNITS
 70
     2
  9
$LUPREC
 70
     2
  9
$SKETCHINC
 40
1.0
  9
$FILLETRAD
 40
0.0
  9
$AUNITS
 70
     0
  9
$AUPREC
 70
     2
  9
$MENU
  1
.
  9
$ELEVATION
 40
0.0
  9
$PELEVATION
 40
0.0
  9
$THICKNESS
 40
0.0
  9
$LIMCHECK
 70
     0
  9
$CHAMFERA
 40
0.0
  9
$CHAMFERB
 40
0.0
  9
$CHAMFERC
 40
0.0
  9
$CHAMFERD
 40
0.0
  9
$SKPOLY
 70
     0
  9
$TDCREATE
 40
2461004.483670903
  9
$TDUCREATE
 40
2461004.733670903
  9
$TDUPDATE
 40
2461004.483855417
  9
$TDUUPDATE
 40
2461004.733855417
  9
$TDINDWG
 40
0.0000000116
  9
$TDUSRTIMER
 40
0.0000000116
  9
$USRTIMER
 70
     1
  9
$ANGBASE
 50
0.0
  9
$ANGDIR
 70
     0
  9
$PDMODE
 70
     0
  9
$PDSIZE
 40
-1.0
  9
$PLINEWID
 40
0.0
  9
$SPLFRAME
 70
     0
  9
$SPLINETYPE
 70
     6
  9
$SPLINESEGS
 70
     8
  9
$HANDSEED
  5
93
  9
$SURFTAB1
 70
     6
  9
$SURFTAB2
 70
     6
  9
$SURFTYPE
 70
     6
  9
$SURFU
 70
     6
  9
$SURFV
 70
     6
  9
$UCSBASE
  2

  9
$UCSNAME
  2

  9
$UCSORG
 10
0.0
 20
0.0
 30
0.0
  9
$UCSXDIR
 10
1.0
 20
0.0
 30
0.0
  9
$UCSYDIR
 10
0.0
 20
1.0
 30
0.0
  9
$UCSORTHOREF
  2

  9
$UCSORTHOVIEW
 70
     0
  9
$UCSORGTOP
 10
0.0
 20
0.0
 30
0.0
  9
$UCSORGBOTTOM
 10
0.0
 20
0.0
 30
0.0
  9
$UCSORGLEFT
 10
0.0
 20
0.0
 30
0.0
  9
$UCSORGRIGHT
 10
0.0
 20
0.0
 30
0.0
  9
$UCSORGFRONT
 10
0.0
 20
0.0
 30
0.0
  9
$UCSORGBACK
 10
0.0
 20
0.0
 30
0.0
  9
$PUCSBASE
  2

  9
$PUCSNAME
  2

  9
$PUCSORG
 10
0.0
 20
0.0
 30
0.0
  9
$PUCSXDIR
 10
1.0
 20
0.0
 30
0.0
  9
$PUCSYDIR
 10
0.0
 20
1.0
 30
0.0
  9
$PUCSORTHOREF
  2

  9
$PUCSORTHOVIEW
 70
     0
  9
$PUCSORGTOP
 10
0.0
 20
0.0
 30
0.0
  9
$PUCSORGBOTTOM
 10
0.0
 20
0.0
 30
0.0
  9
$PUCSORGLEFT
 10
0.0
 20
0.0
 30
0.0
  9
$PUCSORGRIGHT
 10
0.0
 20
0.0
 30
0.0
  9
$PUCSORGFRONT
 10
0.0
 20
0.0
 30
0.0
  9
$PUCSORGBACK
 10
0.0
 20
0.0
 30
0.0
  9
$USERI1
 70
     0
  9
$USERI2
 70
     0
  9
$USERI3
 70
     0
  9
$USERI4
 70
     0
  9
$USERI5
 70
     0
  9
$USERR1
 40
0.0
  9
$USERR2
 40
0.0
  9
$USERR3
 40
0.0
  9
$USERR4
 40
0.0
  9
$USERR5
 40
0.0
  9
$WORLDVIEW
 70
     1
  9
$SHADEDGE
 70
     3
  9
$SHADEDIF
 70
    70
  9
$TILEMODE
 70
     1
  9
$MAXACTVP
 70
    64
  9
$PINSBASE
 10
0.0
 20
0.0
 30
0.0
  9
$PLIMCHECK
 70
     0
  9
$PEXTMIN
 10
1.0000000000E+20
 20
1.0000000000E+20
 30
1.0000000000E+20
  9
$PEXTMAX
 10
-1.0000000000E+20
 20
-1.0000000000E+20
 30
-1.0000000000E+20
  9
$PLIMMIN
 10
0.0
 20
0.0
  9
$PLIMMAX
 10
420.0
 20
297.0
  9
$UNITMODE
 70
     0
  9
$VISRETAIN
 70
     1
  9
$PLINEGEN
 70
     0
  9
$PSLTSCALE
 70
     1
  9
$TREEDEPTH
 70
  3020
  9
$CMLSTYLE
  2
Standard
  9
$CMLJUST
 70
     0
  9
$CMLSCALE
 40
20.0
  9
$PROXYGRAPHICS
 70
     1
  9
$MEASUREMENT
 70
     1
  9
$CELWEIGHT
370
    -1
  9
$ENDCAPS
280
     0
  9
$JOINSTYLE
280
     0
  9
$LWDISPLAY
290
     1
  9
$INSUNITS
 70
     4
  9
$HYPERLINKBASE
  1

  9
$STYLESHEET
  1

  9
$XEDIT
290
     1
  9
$CEPSNTYPE
380
     0
  9
$PSTYLEMODE
290
     1
  9
$FINGERPRINTGUID
  2
{67f73592-0866-4fb5-a2e8-8d7835adc3f9}
  9
$VERSIONGUID
  2
{FAEB1C32-E019-11D5-929B-00C0DF256EC4}
  9
$EXTNAMES
290
     1
  9
$PSVPSCALE
 40
0.0
  9
$OLESTARTUP
290
     0
  0
ENDSEC
  0
SECTION
  2
CLASSES
  0
CLASS
  1
ACDBDICTIONARYWDFLT
  2
AcDbDictionaryWithDefault
  3
ObjectDBX Classes
 90
        0
280
     0
281
     0
  0
CLASS
  1
VISUALSTYLE
  2
AcDbVisualStyle
  3
ObjectDBX Classes
 90
     4095
280
     0
281
     0
  0
CLASS
  1
MATERIAL
  2
AcDbMaterial
  3
ObjectDBX Classes
 90
     1153
280
     0
281
     0
  0
CLASS
  1
SCALE
  2
AcDbScale
  3
ObjectDBX Classes
 90
     1153
280
     0
281
     0
  0
CLASS
  1
TABLESTYLE
  2
AcDbTableStyle
  3
ObjectDBX Classes
 90
     4095
280
     0
281
     0
  0
CLASS
  1
MLEADERSTYLE
  2
AcDbMLeaderStyle
  3
ACDB_MLEADERSTYLE_CLASS
 90
     4095
280
     0
281
     0
  0
CLASS
  1
SUN
  2
AcDbSun
  3
SCENEOE
 90
     1153
280
     0
281
     0
  0
CLASS
  1
ACDBPLACEHOLDER
  2
AcDbPlaceHolder
  3
ObjectDBX Classes
 90
        0
280
     0
281
     0
  0
CLASS
  1
LAYOUT
  2
AcDbLayout
  3
ObjectDBX Classes
 90
        0
280
     0
281
     0
  0
ENDSEC
  0
SECTION
  2
TABLES
  0
TABLE
  2
VPORT
  5
8
330
0
100
AcDbSymbolTable
 70
     1
  0
VPORT
  5
29
330
8
100
AcDbSymbolTableRecord
100
AcDbViewportTableRecord
  2
*Active
 70
     0
 10
0.0
 20
0.0
 11
1.0
 21
1.0
 12
-0.4906832928
 22
0.0
 13
0.0
 23
0.0
 14
10.0
 24
10.0
 15
10.0
 25
10.0
 16
0.0
 26
0.0
 36
1.0
 17
0.0
 27
0.0
 37
0.0
 40
204.0
 41
1.5
 42
50.0
 43
0.0
 44
0.0
 50
0.0
 51
0.0
 71
     0
 72
   100
 73
     1
 74
     3
 75
     0
 76
     0
 77
     0
 78
     0
281
     0
 65
     1
110
0.0
120
0.0
130
0.0
111
1.0
121
0.0
131
0.0
112
0.0
122
1.0
132
0.0
 79
     0
146
0.0
  0
ENDTAB
  0
TABLE
  2
LTYPE
  5
5
330
0
100
AcDbSymbolTable
 70
     6
  0
LTYPE
  5
14
330
5
100
AcDbSymbolTableRecord
100
AcDbLinetypeTableRecord
  2
ByBlock
 70
     0
  3

 72
    65
 73
     0
 40
0.0
  0
LTYPE
  5
15
330
5
100
AcDbSymbolTableRecord
100
AcDbLinetypeTableRecord
  2
ByLayer
 70
     0
  3

 72
    65
 73
     0
 40
0.0
  0
LTYPE
  5
16
330
5
100
AcDbSymbolTableRecord
100
AcDbLinetypeTableRecord
  2
Continuous
 70
     0
  3
Solid line
 72
    65
 73
     0
 40
0.0
  0
LTYPE
  5
5E
330
5
100
AcDbSymbolTableRecord
100
AcDbLinetypeTableRecord
  2
HIDDEN
 70
     0
  3
Hidden __ __ __ __ __ __ __ __ __ __ __ __ __ __
 72
    65
 73
     2
 40
1.905
 49
1.27
 74
     0
 49
-0.635
 74
     0
  0
LTYPE
  5
5F
330
5
100
AcDbSymbolTableRecord
100
AcDbLinetypeTableRecord
  2
PHANTOM
 70
     0
  3
Phantom ______  __  __  ______  __  __  ______
 72
    65
 73
     6
 40
12.7
 49
6.35
 74
     0
 49
-1.27
 74
     0
 49
1.27
 74
     0
 49
-1.27
 74
     0
 49
1.27
 74
     0
 49
-1.27
 74
     0
  0
LTYPE
  5
60
330
5
100
AcDbSymbolTableRecord
100
AcDbLinetypeTableRecord
  2
CENTER
 70
     0
  3
Center ____ _ ____ _ ____ _ ____ _ ____ _ ____
 72
    65
 73
     4
 40
10.16
 49
6.35
 74
     0
 49
-1.27
 74
     0
 49
1.27
 74
     0
 49
-1.27
 74
     0
  0
LTYPE
  5
61
330
5
100
AcDbSymbolTableRecord
100
AcDbLinetypeTableRecord
  2
CENTERX2
 70
     0
  3
Center (2x) ________  __  ________  __  _____
 72
    65
 73
     4
 40
20.32
 49
12.7
 74
     0
 49
-2.54
 74
     0
 49
2.54
 74
     0
 49
-2.54
 74
     0
  0
LTYPE
  5
62
330
5
100
AcDbSymbolTableRecord
100
AcDbLinetypeTableRecord
  2
DOT2
 70
     0
  3
Dot (.5x) ........................................
 72
    65
 73
     2
 40
0.635
 49
0.0
 74
     0
 49
-0.635
 74
     0
  0
ENDTAB
  0
TABLE
  2
LAYER
  5
2
330
0
100
AcDbSymbolTable
 70
     1
  0
LAYER
  5
10
330
2
100
AcDbSymbolTableRecord
100
AcDbLayerTableRecord
  2
0
 70
     0
 62
     7
  6
Continuous
370
    -3
390
F
  0
ENDTAB
  0
TABLE
  2
STYLE
  5
3
330
0
100
AcDbSymbolTable
 70
     1
  0
STYLE
  5
11
330
3
100
AcDbSymbolTableRecord
100
AcDbTextStyleTableRecord
  2
Standard
 70
     0
 40
0.0
 41
1.0
 50
0.0
 71
     0
 42
3.5
  3
txt
  4

  0
ENDTAB
  0
TABLE
  2
VIEW
  5
6
330
0
100
AcDbSymbolTable
 70
     0
  0
ENDTAB
  0
TABLE
  2
UCS
  5
7
330
0
100
AcDbSymbolTable
 70
     0
  0
ENDTAB
  0
TABLE
  2
APPID
  5
9
330
0
100
AcDbSymbolTable
 70
     1
  0
APPID
  5
12
330
9
100
AcDbSymbolTableRecord
100
AcDbRegAppTableRecord
  2
ACAD
 70
     0
  0
ENDTAB
  0
TABLE
  2
DIMSTYLE
  5
A
330
0
100
AcDbSymbolTable
 70
     1
100
AcDbDimStyleTable
  0
DIMSTYLE
105
27
330
A
100
AcDbSymbolTableRecord
100
AcDbDimStyleTableRecord
  2
ISO-25
 70
     0
 41
2.5
 42
0.625
 43
3.75
 44
1.25
 73
     0
 74
     0
 77
     1
 78
     8
140
2.5
141
2.5
143
0.0393700787
147
0.625
171
     3
172
     1
178
     0
271
     2
272
     2
274
     3
278
    44
283
     0
284
     8
340
11
  0
ENDTAB
  0
TABLE
  2
BLOCK_RECORD
  5
1
330
0
100
AcDbSymbolTable
 70
     1
  0
BLOCK_RECORD
  5
1F
330
1
100
AcDbSymbolTableRecord
100
AcDbBlockTableRecord
  2
*Model_Space
340
22
  0
BLOCK_RECORD
  5
1B
330
1
100
AcDbSymbolTableRecord
100
AcDbBlockTableRecord
  2
*Paper_Space
340
1E
  0
BLOCK_RECORD
  5
23
330
1
100
AcDbSymbolTableRecord
100
AcDbBlockTableRecord
  2
*Paper_Space0
340
26
  0
ENDTAB
  0
ENDSEC
  0
SECTION
  2
BLOCKS
  0
BLOCK
  5
20
330
1F
100
AcDbEntity
  8
0
100
AcDbBlockBegin
  2
*Model_Space
 70
     0
 10
0.0
 20
0.0
 30
0.0
  3
*Model_Space
  1

  0
ENDBLK
  5
21
330
1F
100
AcDbEntity
  8
0
100
AcDbBlockEnd
  0
BLOCK
  5
1C
330
1B
100
AcDbEntity
 67
     1
  8
0
100
AcDbBlockBegin
  2
*Paper_Space
 70
     0
 10
0.0
 20
0.0
 30
0.0
  3
*Paper_Space
  1

  0
ENDBLK
  5
1D
330
1B
100
AcDbEntity
 67
     1
  8
0
100
AcDbBlockEnd
  0
BLOCK
  5
24
330
23
100
AcDbEntity
  8
0
100
AcDbBlockBegin
  2
*Paper_Space0
 70
     0
 10
0.0
 20
0.0
 30
0.0
  3
*Paper_Space0
  1

  0
ENDBLK
  5
25
330
23
100
AcDbEntity
  8
0
100
AcDbBlockEnd
  0
ENDSEC
  0
SECTION
  2
ENTITIES
  0
CIRCLE
  5
63
330
1F
100
AcDbEntity
  8
0
  6
Continuous
 62
     7
100
AcDbCircle
 10
-0.4906832928
 20
82.2684021538
 30
0.0
 40
5.448060558292241
  0
LINE
  5
65
330
1F
100
AcDbEntity
  8
0
  6
Continuous
 62
     7
100
AcDbLine
 10
-150.4906832928
 20
100.0
 30
0.0
 11
149.5093167072
 21
100.0
 31
0.0
  0
LINE
  5
66
330
1F
100
AcDbEntity
  8
0
  6
Continuous
 62
     7
100
AcDbLine
 10
-150.4906832928
 20
100.0
 30
0.0
 11
-150.4906832928
 21
-100.0
 31
0.0
  0
LINE
  5
67
330
1F
100
AcDbEntity
  8
0
  6
Continuous
 62
     7
100
AcDbLine
 10
-150.4906832928
 20
-100.0
 30
0.0
 11
149.5093167072
 21
-100.0
 31
0.0
  0
LINE
  5
68
330
1F
100
AcDbEntity
  8
0
  6
Continuous
 62
     7
100
AcDbLine
 10
149.5093167072
 20
100.0
 30
0.0
 11
149.5093167072
 21
-100.0
 31
0.0
  0
LWPOLYLINE
  5
6B
330
1F
100
AcDbEntity
  8
0
  6
Continuous
 62
     7
100
AcDbPolyline
 90
       51
 70
   128
 43
0.0
 10
-79.9831151962
 20
27.7613933212
 10
-80.6279269106
 20
27.5049124973
 10
-80.6279269106
 20
27.5049124973
 10
-81.2559453765
 20
28.2168265598
 10
-81.8599936719
 20
28.9335346564
 10
-82.4400717969
 20
29.6550367871
 10
-82.9937827344
 20
30.3837299689
 10
-83.5259205185
 20
31.1148201678
 10
-84.0340881322
 20
31.8531014178
 10
-84.5158885583
 20
32.5937796848
 10
-84.976115831
 20
33.341649003
 10
-85.4051818822
 20
34.0871213042
 10
-85.7934986435
 20
34.8206085201
 10
-86.1458601492
 20
35.5445076678
 10
-86.4598693822
 20
36.2564217303
 10
-86.7379233594
 20
36.9587477246
 10
-86.9752280469
 20
37.6514856507
 10
-87.1765774788
 20
38.3322384917
 10
-87.3395746378
 20
39.0010062473
 10
-87.3395746378
 20
39.0010062473
 10
-87.3395746378
 20
27.5049124973
 10
-87.3395746378
 20
27.5049124973
 10
-88.2600291833
 20
27.5049124973
 10
-88.2600291833
 20
27.5049124973
 10
-88.2600291833
 20
41.0049124973
 10
-88.2600291833
 20
41.0049124973
 10
-87.4258672515
 20
41.0049124973
 10
-87.4258672515
 20
41.0049124973
 10
-87.0782997799
 20
40.0245325257
 10
-86.7091591549
 20
39.0681227246
 10
-86.3232394106
 20
38.1308890598
 10
-85.9205405469
 20
37.2176255655
 10
-85.4962685299
 20
36.3259352246
 10
-85.0552173935
 20
35.4558180371
 10
-84.5949901208
 20
34.607274003
 10
-84.1155867117
 20
33.7803031223
 10
-84.1155867117
 20
33.7803031223
 10
-83.6913146947
 20
33.077977128
 10
-83.2742337288
 20
32.3996213042
 10
-82.8619467969
 20
31.7404416167
 10
-82.4568509163
 20
31.1052320996
 10
-82.0565490697
 20
30.493992753
 10
-81.6634382742
 20
29.9019295428
 10
-81.2775185299
 20
29.333836503
 10
-80.8963928197
 20
28.7873166167
 10
-80.8963928197
 20
28.7873166167
 10
-81.0881541833
 20
40.6980943155
 10
-81.0881541833
 20
40.6980943155
 10
-80.0909950924
 20
40.6980943155
 10
-80.0909950924
 20
40.6980943155
 10
-79.9831293253
 20
27.7613933212
  0
LWPOLYLINE
  5
6C
330
1F
100
AcDbEntity
  8
0
  6
Continuous
 62
     7
100
AcDbPolyline
 90
       84
 70
   128
 43
0.0
 10
-70.4180598259
 20
31.8770715882
 10
-70.569084581
 20
31.4623876394
 10
-70.7176996378
 20
31.0764678951
 10
-70.8639176776
 20
30.7169153382
 10
-71.0053416833
 20
30.388524003
 10
-71.1443686719
 20
30.0864998553
 10
-71.2809986435
 20
29.8132399121
 10
-71.4152315981
 20
29.5663471564
 10
-71.5446705185
 20
29.3506156223
 10
-71.5446705185
 20
29.3506156223
 10
-71.8035483594
 20
28.9886660485
 10
-72.0816023367
 20
28.6674657644
 10
-72.3836264844
 20
28.382220736
 10
-72.7048267685
 20
28.1377249973
 10
-73.045203189
 20
27.9291845144
 10
-73.4095497799
 20
27.7613933212
 10
-73.7930725072
 20
27.6295573837
 10
-74.1981683878
 20
27.538470736
 10
-74.1981683878
 20
27.538470736
 10
-74.365959581
 20
27.5145005655
 10
-74.5337507742
 20
27.5049124973
 10
-74.5337507742
 20
27.5049124973
 10
-74.7470852913
 20
27.5168975826
 10
-74.946037706
 20
27.5552498553
 10
-75.1354020526
 20
27.6199693155
 10
-75.312781314
 20
27.7110559632
 10
-75.4805725072
 20
27.8261127814
 10
-75.6339815981
 20
27.9675367871
 10
-75.7778026208
 20
28.1353279803
 10
-75.9096385583
 20
28.3270893439
 10
-75.9096385583
 20
28.3270893439
 10
-76.0151073083
 20
28.5164536905
 10
-76.103796939
 20
28.7202001394
 10
-76.1805014844
 20
28.9335346564
 10
-76.2428239276
 20
29.1636482928
 10
-76.2931612856
 20
29.4033499973
 10
-76.3267195242
 20
29.6574338042
 10
-76.3482926776
 20
29.9235026962
 10
-76.3554837288
 20
30.2015566735
 10
-76.3554837288
 20
30.2015566735
 10
-76.3458956606
 20
30.5419330939
 10
-76.314734439
 20
30.8799124973
 10
-76.262000064
 20
31.2202889178
 10
-76.1900895526
 20
31.5582683212
 10
-76.1900895526
 20
31.5582683212
 10
-76.0750327344
 20
31.9585701678
 10
-75.9431967969
 20
32.339695878
 10
-75.7945817401
 20
32.6968514178
 10
-75.6267905469
 20
33.0300367871
 10
-75.4422202344
 20
33.3440460201
 10
-75.2384737856
 20
33.6340850826
 10
-75.0179482174
 20
33.9025509917
 10
-74.7806435299
 20
34.1494437473
 10
-74.524162706
 20
34.3747633496
 10
-74.2509027628
 20
34.5761127814
 10
-73.9584666833
 20
34.7558890598
 10
-73.6492514844
 20
34.9140921848
 10
-73.3232571663
 20
35.0507221564
 10
-72.9780867117
 20
35.1657789746
 10
-72.6161371378
 20
35.2568656223
 10
-72.2350114276
 20
35.3263791167
 10
-72.2350114276
 20
35.3263791167
 10
-72.0025007742
 20
35.343158236
 10
-71.779578189
 20
35.3311731507
 10
-71.571037706
 20
35.292820878
 10
-71.3768793253
 20
35.2257044007
 10
-71.1923090128
 20
35.132220736
 10
-71.0221208026
 20
35.0123698837
 10
-70.8639176776
 20
34.8661518439
 10
-70.7176996378
 20
34.6911695996
 10
-70.7176996378
 20
34.6911695996
 10
-70.6002458026
 20
34.5065992871
 10
-70.4995710867
 20
34.3172349405
 10
-70.4132784731
 20
34.1182825257
 10
-70.3437649788
 20
33.9097420428
 10
-70.2886335867
 20
33.6964075257
 10
-70.250281314
 20
33.4734849405
 10
-70.2263111435
 20
33.2433713042
 10
-70.2191200924
 20
33.0060666167
 10
-70.2191200924
 20
33.0060666167
 10
-70.2311051776
 20
32.7232186053
 10
-70.2694574503
 20
32.4403705939
 10
-70.3317798935
 20
32.1575225826
 10
-70.4180725072
 20
31.8770715882
  0
LWPOLYLINE
  5
6D
330
1F
100
AcDbEntity
  8
0
  6
Continuous
 62
     7
100
AcDbPolyline
 90
       68
 70
   128
 43
0.0
 10
-71.2977647781
 20
32.0688329519
 10
-71.2282642685
 20
32.2965495712
 10
-71.1779269106
 20
32.5338542587
 10
-71.149162706
 20
32.7759529803
 10
-71.1395746378
 20
33.0276397701
 10
-71.1395746378
 20
33.0276397701
 10
-71.1563537572
 20
33.3464430371
 10
-71.2042940981
 20
33.6340850826
 10
-71.2857926776
 20
33.8881688894
 10
-71.3984524788
 20
34.1134884917
 10
-71.3984524788
 20
34.1134884917
 10
-71.5446705185
 20
34.2980588042
 10
-71.7076676776
 20
34.4179096564
 10
-71.8922379901
 20
34.4730410485
 10
-72.095984439
 20
34.4658499973
 10
-72.095984439
 20
34.4658499973
 10
-72.3932145526
 20
34.4107186053
 10
-72.676062564
 20
34.3364110769
 10
-72.9445284731
 20
34.2429274121
 10
-73.2010092969
 20
34.130267611
 10
-73.4455050356
 20
33.9984316735
 10
-73.6756186719
 20
33.8474195996
 10
-73.8937472231
 20
33.6772313894
 10
-74.099890689
 20
33.4878670428
 10
-74.2916520526
 20
33.2817235769
 10
-74.469031314
 20
33.0540069576
 10
-74.6344254901
 20
32.8095112189
 10
-74.787834581
 20
32.5434423269
 10
-74.9268615697
 20
32.2605943155
 10
-75.0539034731
 20
31.9561731507
 10
-75.1665632742
 20
31.6349728667
 10
-75.2672379901
 20
31.2945964462
 10
-75.2672379901
 20
31.2945964462
 10
-75.3415455185
 20
30.9781901962
 10
-75.3918828765
 20
30.6569899121
 10
-75.4254411151
 20
30.3309955939
 10
-75.4350291833
 20
30.0026042587
 10
-75.4350291833
 20
30.0026042587
 10
-75.418250064
 20
29.6166845144
 10
-75.3703097231
 20
29.278705111
 10
-75.2912081606
 20
28.9886660485
 10
-75.1809453765
 20
28.7465673269
 10
-75.1809453765
 20
28.7465673269
 10
-75.0443154049
 20
28.5380268439
 10
-74.8957003481
 20
28.3918088042
 10
-74.7398942401
 20
28.3007221564
 10
-74.574500064
 20
28.2719579519
 10
-74.574500064
 20
28.2719579519
 10
-74.4546492117
 20
28.2743549689
 10
-74.3060341549
 20
28.2887370712
 10
-74.3060341549
 20
28.2887370712
 10
-74.0088040413
 20
28.3630445996
 10
-73.7235590128
 20
28.4685133496
 10
-73.4502990697
 20
28.6099373553
 10
-73.1890242117
 20
28.7849195996
 10
-72.942131456
 20
28.9934600826
 10
-72.7048267685
 20
29.2355588042
 10
-72.4819041833
 20
29.5136127814
 10
-72.2709666833
 20
29.8228279803
 10
-72.2709666833
 20
29.8228279803
 10
-72.1726889844
 20
29.9930161905
 10
-72.0672202344
 20
30.1943656223
 10
-71.9545604333
 20
30.4268762757
 10
-71.834709581
 20
30.6905481507
 10
-71.7100646947
 20
30.9877782644
 10
-71.5806257742
 20
31.3161695996
 10
-71.4415987856
 20
31.6757221564
 10
-71.2977777628
 20
32.0688329519
  0
LWPOLYLINE
  5
6E
330
1F
100
AcDbEntity
  8
0
  6
Continuous
 62
     7
100
AcDbPolyline
 90
      148
 70
   128
 43
0.0
 10
-54.4807612896
 20
30.7984139178
 10
-54.569475206
 20
30.5347420428
 10
-54.6917230753
 20
30.280658236
 10
-54.8475291833
 20
30.0337654803
 10
-55.0392905469
 20
29.7916667587
 10
-55.2646101492
 20
29.5591561053
 10
-55.5234879901
 20
29.3362335201
 10
-55.8159240697
 20
29.1181049689
 10
-56.1419183878
 20
28.909564486
 10
-56.5038679617
 20
28.7058180371
 10
-56.8993757742
 20
28.5116596564
 10
-57.3284418253
 20
28.3246923269
 10
-57.7934631322
 20
28.1449160485
 10
-58.2920426776
 20
27.9747278382
 10
-58.8217834447
 20
27.8093336621
 10
-59.3898764844
 20
27.6535275542
 10
-59.9891307458
 20
27.5049124973
 10
-59.9891307458
 20
27.5049124973
 10
-59.9891307458
 20
28.2743549689
 10
-59.9891307458
 20
28.2743549689
 10
-59.5121243538
 20
28.3942058212
 10
-59.0734702344
 20
28.5116596564
 10
-58.6755654049
 20
28.6219224405
 10
-58.3160128481
 20
28.7249941735
 10
-57.994812564
 20
28.8256688894
 10
-57.7119645526
 20
28.9191525542
 10
-57.469865831
 20
29.0078421848
 10
-57.2661193822
 20
29.0917377814
 10
-57.2661193822
 20
29.0917377814
 10
-56.8945817401
 20
29.2739110769
 10
-56.5637933878
 20
29.4656724405
 10
-56.2689602913
 20
29.6718159064
 10
-56.0148764844
 20
29.8875474405
 10
-55.7991449503
 20
30.1128670428
 10
-55.621765689
 20
30.3525687473
 10
-55.4851357174
 20
30.6018585201
 10
-55.3844610015
 20
30.863133378
 10
-55.3844610015
 20
30.863133378
 10
-55.3269325924
 20
31.0836589462
 10
-55.307756456
 20
31.2682292587
 10
-55.307756456
 20
31.2682292587
 10
-55.3221385583
 20
31.3928741451
 10
-55.360490831
 20
31.5007399121
 10
-55.4276073083
 20
31.5918265598
 10
-55.5210909731
 20
31.6685311053
 10
-55.6409418253
 20
31.7260595144
 10
-55.7871598651
 20
31.7668088042
 10
-55.9621421094
 20
31.7931759917
 10
-56.1610945242
 20
31.8003670428
 10
-56.1610945242
 20
31.8003670428
 10
-56.2713573083
 20
31.7979700257
 10
-56.4007962288
 20
31.7907789746
 10
-56.5518083026
 20
31.7787938894
 10
-56.7243935299
 20
31.7620147701
 10
-56.9185519106
 20
31.7404416167
 10
-57.1318864276
 20
31.7140744292
 10
-57.3667940981
 20
31.6829132076
 10
-57.6208779049
 20
31.6469579519
 10
-57.8773587288
 20
31.6110026962
 10
-58.1146634163
 20
31.5798414746
 10
-58.3327919674
 20
31.5534742871
 10
-58.5341413992
 20
31.5319011337
 10
-58.7163146947
 20
31.5151220144
 10
-58.8793118538
 20
31.5031369292
 10
-59.0255298935
 20
31.495945878
 10
-59.1525717969
 20
31.493548861
 10
-59.1525717969
 20
31.493548861
 10
-59.4018615697
 20
31.5055339462
 10
-59.6175931038
 20
31.5414892019
 10
-59.8021634163
 20
31.599017611
 10
-59.9507784731
 20
31.6829132076
 10
-60.0682323083
 20
31.7883819576
 10
-60.1497308878
 20
31.9202178951
 10
-60.2000682458
 20
32.073626986
 10
-60.2168473651
 20
32.2510062473
 10
-60.2168473651
 20
32.2510062473
 10
-60.1952742117
 20
32.4667377814
 10
-60.1305547515
 20
32.7112335201
 10
-60.1305547515
 20
32.7112335201
 10
-60.0154979333
 20
33.0156546848
 10
-59.8716769106
 20
33.3032967303
 10
-59.6942976492
 20
33.5717626394
 10
-59.4881541833
 20
33.8234494292
 10
-59.2484524788
 20
34.0559600826
 10
-58.9775895526
 20
34.2716916167
 10
-58.6779624219
 20
34.4682470144
 10
-58.3447770526
 20
34.6480232928
 10
-58.3447770526
 20
34.6480232928
 10
-58.0115916833
 20
34.7918443155
 10
-57.6616271947
 20
34.9140921848
 10
-57.2924865697
 20
35.0123698837
 10
-56.9041698083
 20
35.0866774121
 10
-56.4990739276
 20
35.1394117871
 10
-56.0748019106
 20
35.1681759917
 10
-55.6313537572
 20
35.1729700257
 10
-55.1711264844
 20
35.1537938894
 10
-55.1711264844
 20
35.1537938894
 10
-55.1711264844
 20
34.3915424689
 10
-55.1711264844
 20
34.3915424689
 10
-55.571428331
 20
34.4059245712
 10
-55.9525540413
 20
34.4059245712
 10
-56.3121065981
 20
34.3867484348
 10
-56.6524830185
 20
34.3507931792
 10
-56.9712862856
 20
34.2980588042
 10
-57.2685163992
 20
34.2285453098
 10
-57.5465703765
 20
34.1422526962
 10
-57.8030512003
 20
34.0391809632
 10
-58.0403558878
 20
33.919330111
 10
-58.2632784731
 20
33.7803031223
 10
-58.469421939
 20
33.6268940314
 10
-58.6587862856
 20
33.4567058212
 10
-58.8337685299
 20
33.2673414746
 10
-58.9919716549
 20
33.0611980087
 10
-59.1333956606
 20
32.8406724405
 10
-59.2580405469
 20
32.600970736
 10
-59.2580405469
 20
32.600970736
 10
-59.2868047515
 20
32.5026930371
 10
-59.2963928197
 20
32.3948272701
 10
-59.2963928197
 20
32.3948272701
 10
-59.2820107174
 20
32.337298861
 10
-59.2364673935
 20
32.2941525542
 10
-59.1621598651
 20
32.2701823837
 10
-59.0566911151
 20
32.2605943155
 10
-59.0566911151
 20
32.2605943155
 10
-58.9680014844
 20
32.2629913326
 10
-58.8577387003
 20
32.2701823837
 10
-58.7211087288
 20
32.2821674689
 10
-58.5629056038
 20
32.2989465882
 10
-58.3831293253
 20
32.3205197417
 10
-58.1769858594
 20
32.3468869292
 10
-57.9492692401
 20
32.3780481507
 10
-57.6975824503
 20
32.4140034064
 10
-57.203796939
 20
32.4811198837
 10
-56.7747308878
 20
32.5290602246
 10
-56.412781314
 20
32.5578244292
 10
-56.1155512003
 20
32.5674124973
 10
-56.1155512003
 20
32.5674124973
 10
-55.7104553197
 20
32.550633378
 10
-55.360490831
 20
32.495501986
 10
-55.0632607174
 20
32.4068123553
 10
-54.8187649788
 20
32.2797704519
 10
-54.6294006322
 20
32.1191703098
 10
-54.4951676776
 20
31.9202178951
 10
-54.4136690981
 20
31.6877072417
 10
-54.3873019106
 20
31.4168443155
 10
-54.3873019106
 20
31.4168443155
 10
-54.411272081
 20
31.1339963042
 10
-54.4807855753
 20
30.7984139178
  0
LWPOLYLINE
  5
6F
330
1F
100
AcDbEntity
  8
0
  6
Continuous
 62
     7
100
AcDbPolyline
 90
      180
 70
   128
 43
0.0
 10
-45.0691282749
 20
33.7779061053
 10
-45.1626215128
 20
33.5549835201
 10
-45.2920604333
 20
33.339251986
 10
-45.4550575924
 20
33.128314486
 10
-45.6540100072
 20
32.9245680371
 10
-45.8865206606
 20
32.7280126394
 10
-46.1525895526
 20
32.5362512757
 10
-46.4546137003
 20
32.3516809632
 10
-46.7901960867
 20
32.1719046848
 10
-46.7901960867
 20
32.1719046848
 10
-47.0586619958
 20
32.0496568155
 10
-47.3199368538
 20
31.9417910485
 10
-47.5740206606
 20
31.8531014178
 10
-47.8233104333
 20
31.7787938894
 10
-48.0630121378
 20
31.7212654803
 10
-48.2979198083
 20
31.6805161905
 10
-48.5232394106
 20
31.654149003
 10
-48.7437649788
 20
31.6469579519
 10
-48.7437649788
 20
31.6469579519
 10
-48.8803949503
 20
31.6589430371
 10
-48.9978487856
 20
31.6948982928
 10
-49.1009205185
 20
31.757220736
 10
-49.1848161151
 20
31.8411163326
 10
-49.1848161151
 20
31.8411163326
 10
-48.3554482174
 20
32.6081617871
 10
-48.3554482174
 20
32.6081617871
 10
-48.3578452344
 20
32.5242661905
 10
-48.3626392685
 20
32.4619437473
 10
-48.3746243538
 20
32.4259884917
 10
-48.389006456
 20
32.4140034064
 10
-48.389006456
 20
32.4140034064
 10
-48.1013644106
 20
32.442767611
 10
-47.7825611435
 20
32.5242661905
 10
-47.4325966549
 20
32.6632931792
 10
-47.0514709447
 20
32.8550545428
 10
-47.0514709447
 20
32.8550545428
 10
-46.8333423935
 20
32.9820964462
 10
-46.6391840128
 20
33.1139323837
 10
-46.4642017685
 20
33.2481653382
 10
-46.3131896947
 20
33.3847953098
 10
-46.1861477913
 20
33.5262193155
 10
-46.0782820242
 20
33.6724373553
 10
-45.9943864276
 20
33.8210524121
 10
-45.9320639844
 20
33.972064486
 10
-45.9320639844
 20
33.972064486
 10
-45.8769325924
 20
34.1806049689
 10
-45.857756456
 20
34.3579842303
 10
-45.857756456
 20
34.3579842303
 10
-45.8649475072
 20
34.4418798269
 10
-45.8865206606
 20
34.5137903382
 10
-45.9248729333
 20
34.5761127814
 10
-45.9776073083
 20
34.6264501394
 10
-46.0447237856
 20
34.6648024121
 10
-46.1262223651
 20
34.6935666167
 10
-46.224500064
 20
34.710345736
 10
-46.3371598651
 20
34.7151397701
 10
-46.3371598651
 20
34.7151397701
 10
-46.4809808878
 20
34.7079487189
 10
-46.6415810299
 20
34.6887725826
 10
-46.8141662572
 20
34.6528173269
 10
-47.0035306038
 20
34.607274003
 10
-47.2096740697
 20
34.5449515598
 10
-47.4278026208
 20
34.4706440314
 10
-47.6627102913
 20
34.3819544007
 10
-47.912000064
 20
34.2788826678
 10
-47.912000064
 20
34.2788826678
 10
-48.0582181038
 20
34.2093691735
 10
-48.2092301776
 20
34.1158855087
 10
-48.3698303197
 20
33.9960346564
 10
-48.5352244958
 20
33.8522136337
 10
-48.7102067401
 20
33.6820254235
 10
-48.8923800356
 20
33.4878670428
 10
-49.0817443822
 20
33.2673414746
 10
-49.2782997799
 20
33.022845736
 10
-49.2782997799
 20
33.022845736
 10
-49.4988253481
 20
32.7232186053
 10
-49.6953807458
 20
32.4140034064
 10
-49.8727600072
 20
32.0952001394
 10
-50.0261690981
 20
31.7716028382
 10
-50.1556080185
 20
31.4384174689
 10
-50.2658708026
 20
31.0956440314
 10
-50.3521634163
 20
30.7456795428
 10
-50.4168828765
 20
30.388524003
 10
-50.4168828765
 20
30.388524003
 10
-50.4480440981
 20
30.0960879235
 10
-50.4600291833
 20
29.8012548269
 10
-50.4600291833
 20
29.8012548269
 10
-50.443250064
 20
29.4417022701
 10
-50.392912706
 20
29.1324870712
 10
-50.3066200924
 20
28.8688151962
 10
-50.1891662572
 20
28.6554806792
 10
-50.0357571663
 20
28.487689486
 10
-49.8511868538
 20
28.3678386337
 10
-49.6306612856
 20
28.2959281223
 10
-49.3765774788
 20
28.2719579519
 10
-49.3765774788
 20
28.2719579519
 10
-48.9930547515
 20
28.3055161905
 10
-48.5927529049
 20
28.4037938894
 10
-48.1732749219
 20
28.5691880655
 10
-47.7394148367
 20
28.7993017019
 10
-47.2863786151
 20
29.0965318155
 10
-46.8141662572
 20
29.4584813894
 10
-46.3275717969
 20
29.8875474405
 10
-45.8218012003
 20
30.3813329519
 10
-45.8218012003
 20
30.3813329519
 10
-45.1961797515
 20
29.8779593723
 10
-45.1961797515
 20
29.8779593723
 10
-45.4742337288
 20
29.5903173269
 10
-45.749890689
 20
29.3218514178
 10
-46.0231506322
 20
29.0725616451
 10
-46.2964105753
 20
28.8400509917
 10
-46.5672735015
 20
28.6267164746
 10
-46.8357394106
 20
28.4325580939
 10
-47.1018083026
 20
28.2551788326
 10
-47.3678771947
 20
28.0993727246
 10
-47.6315490697
 20
27.9579487189
 10
-47.8928239276
 20
27.8380978667
 10
-48.1517017685
 20
27.7374231507
 10
-48.4081825924
 20
27.6535275542
 10
-48.6646634163
 20
27.5888080939
 10
-48.9187472231
 20
27.540867753
 10
-49.1704340128
 20
27.5145005655
 10
-49.4221208026
 20
27.5049124973
 10
-49.4221208026
 20
27.5049124973
 10
-49.6426463708
 20
27.5145005655
 10
-49.8487898367
 20
27.5432647701
 10
-50.0453452344
 20
27.5888080939
 10
-50.2299155469
 20
27.6559245712
 10
-50.4025007742
 20
27.7398201678
 10
-50.5654979333
 20
27.8428919007
 10
-50.7141129901
 20
27.962742753
 10
-50.8531399788
 20
28.1041667587
 10
-50.9777848651
 20
28.2623698837
 10
-51.0832536151
 20
28.437352128
 10
-51.1743402628
 20
28.6267164746
 10
-51.2486477913
 20
28.8328599405
 10
-51.3061762003
 20
29.0557825257
 10
-51.3469254901
 20
29.2954842303
 10
-51.3732926776
 20
29.5519650542
 10
-51.3804837288
 20
29.8228279803
 10
-51.3804837288
 20
29.8228279803
 10
-51.3684986435
 20
30.1799835201
 10
-51.3325433878
 20
30.5515211621
 10
-51.3325433878
 20
30.5515211621
 10
-51.2606328765
 20
30.9590140598
 10
-51.1599581606
 20
31.3593159064
 10
-51.0329162572
 20
31.7524267019
 10
-50.8747131322
 20
32.1383464462
 10
-50.6901428197
 20
32.5146781223
 10
-50.4768083026
 20
32.8862157644
 10
-50.2371065981
 20
33.2481653382
 10
-49.9662436719
 20
33.602923861
 10
-49.9662436719
 20
33.602923861
 10
-49.7409240697
 20
33.8737867871
 10
-49.5180014844
 20
34.1206795428
 10
-49.2998729333
 20
34.343602128
 10
-49.0817443822
 20
34.5425545428
 10
-48.8708068822
 20
34.7151397701
 10
-48.6598693822
 20
34.8637548269
 10
-48.4537259163
 20
34.9883997132
 10
-48.2499794674
 20
35.0866774121
 10
-48.2499794674
 20
35.0866774121
 10
-47.7777671094
 20
35.2592626394
 10
-47.3151428197
 20
35.3839075257
 10
-46.8621065981
 20
35.4582150542
 10
-46.4186584447
 20
35.4821852246
 10
-46.4186584447
 20
35.4821852246
 10
-46.0710909731
 20
35.4654061053
 10
-45.7714638424
 20
35.4174657644
 10
-45.5149830185
 20
35.3383642019
 10
-45.3064425356
 20
35.2257044007
 10
-45.1458423935
 20
35.079486361
 10
-45.0307855753
 20
34.9045041167
 10
-44.961272081
 20
34.6959636337
 10
-44.9373019106
 20
34.4538649121
 10
-44.9373019106
 20
34.4538649121
 10
-44.9444929617
 20
34.3124409064
 10
-44.9708601492
 20
34.1518407644
 10
-45.011609439
 20
33.974461503
 10
-45.0691378481
 20
33.7779061053
  0
LWPOLYLINE
  5
70
330
1F
100
AcDbEntity
  8
0
  6
Continuous
 62
     7
100
AcDbPolyline
 90
      150
 70
   128
 43
0.0
 10
-27.5186449289
 20
30.7480765598
 10
-27.6025540413
 20
30.5203599405
 10
-27.6648764844
 20
30.3573627814
 10
-27.7056257742
 20
30.2566880655
 10
-27.7248019106
 20
30.2183357928
 10
-27.7248019106
 20
30.2183357928
 10
-27.7248019106
 20
27.5049124973
 10
-27.7248019106
 20
27.5049124973
 10
-28.645256456
 20
27.5049124973
 10
-28.645256456
 20
27.5049124973
 10
-28.645256456
 20
29.5375829519
 10
-28.645256456
 20
29.5375829519
 10
-28.7866804617
 20
29.3673947417
 10
-28.9544716549
 20
29.1972065314
 10
-29.1486300356
 20
29.0294153382
 10
-29.3715526208
 20
28.8616241451
 10
-29.6232394106
 20
28.6962299689
 10
-29.9036904049
 20
28.5308357928
 10
-30.2105085867
 20
28.3678386337
 10
-30.543693956
 20
28.2048414746
 10
-30.543693956
 20
28.2048414746
 10
-30.9176286151
 20
28.0418443155
 10
-31.279578189
 20
27.8980232928
 10
-31.6271456606
 20
27.7781724405
 10
-31.9603310299
 20
27.6798947417
 10
-32.2791342969
 20
27.6031901962
 10
-32.5859524788
 20
27.5480588042
 10
-32.8783885583
 20
27.5168975826
 10
-33.1588395526
 20
27.5049124973
 10
-33.1588395526
 20
27.5049124973
 10
-33.3529979333
 20
27.5121035485
 10
-33.5327742117
 20
27.5312796848
 10
-33.6981683878
 20
27.5648379235
 10
-33.8515774788
 20
27.6103812473
 10
-33.9906044674
 20
27.6703066735
 10
-34.1152493538
 20
27.7422171848
 10
-34.2279091549
 20
27.8285097985
 10
-34.3261868538
 20
27.9267874973
 10
-34.4124794674
 20
28.0394472985
 10
-34.4843899788
 20
28.1640921848
 10
-34.5419183878
 20
28.3031191735
 10
-34.5850646947
 20
28.4565282644
 10
-34.6162259163
 20
28.6195254235
 10
-34.6330050356
 20
28.7993017019
 10
-34.6377990697
 20
28.9910630655
 10
-34.6282110015
 20
29.1948095144
 10
-34.6282110015
 20
29.1948095144
 10
-34.601843814
 20
29.386570878
 10
-34.5563004901
 20
29.5759352246
 10
-34.4915810299
 20
29.7629025542
 10
-34.4076854333
 20
29.9450758496
 10
-34.3070107174
 20
30.124852128
 10
-34.1847628481
 20
30.3046284064
 10
-34.0457358594
 20
30.4796106507
 10
-33.8851357174
 20
30.652195878
 10
-33.707756456
 20
30.8199870712
 10
-33.5135980753
 20
30.9877782644
 10
-33.2978665413
 20
31.1507754235
 10
-33.0629588708
 20
31.3113755655
 10
-32.811272081
 20
31.4695786905
 10
-32.5380121378
 20
31.6253847985
 10
-32.2479730753
 20
31.7787938894
 10
-31.9387578765
 20
31.9274089462
 10
-31.9387578765
 20
31.9274089462
 10
-31.4881186719
 20
32.128758378
 10
-31.0470675356
 20
32.3085346564
 10
-30.6203985015
 20
32.4691347985
 10
-30.2009205185
 20
32.6105588042
 10
-29.7958246378
 20
32.7304096564
 10
-29.4003168253
 20
32.8310843723
 10
-29.0167940981
 20
32.9101859348
 10
-28.645256456
 20
32.970111361
 10
-28.645256456
 20
32.970111361
 10
-28.645256456
 20
33.655658236
 10
-28.645256456
 20
33.655658236
 10
-28.6644325924
 20
33.8570076678
 10
-28.7243580185
 20
34.0463720144
 10
-28.8226357174
 20
34.2237512757
 10
-28.959265689
 20
34.3915424689
 10
-29.119865831
 20
34.5329664746
 10
-29.2924510583
 20
34.6336411905
 10
-29.4722273367
 20
34.6959636337
 10
-29.6615916833
 20
34.7151397701
 10
-29.6615916833
 20
34.7151397701
 10
-29.7646634163
 20
34.7079487189
 10
-29.8988963708
 20
34.6863755655
 10
-30.066687564
 20
34.6504203098
 10
-30.2632429617
 20
34.6000829519
 10
-30.4933565981
 20
34.5353634917
 10
-30.754631456
 20
34.4538649121
 10
-31.0470675356
 20
34.3603812473
 10
-31.3706648367
 20
34.2525154803
 10
-31.3706648367
 20
34.2525154803
 10
-31.6726889844
 20
34.1470467303
 10
-31.9363608594
 20
34.0439749973
 10
-32.1640774788
 20
33.9456972985
 10
-32.3558388424
 20
33.8498166167
 10
-32.5116449503
 20
33.7539359348
 10
-32.6290987856
 20
33.6628492871
 10
-32.7105973651
 20
33.5765566735
 10
-32.7537436719
 20
33.4902640598
 10
-32.7537436719
 20
33.4902640598
 10
-33.6861833026
 20
33.4902640598
 10
-33.6861833026
 20
33.4902640598
 10
-33.6598161151
 20
33.6532612189
 10
-33.5926996378
 20
33.813861361
 10
-33.4848338708
 20
33.972064486
 10
-33.3338217969
 20
34.1278705939
 10
-33.1444574503
 20
34.2812796848
 10
-32.9095497799
 20
34.4298947417
 10
-32.6362898367
 20
34.5785097985
 10
-32.3198835867
 20
34.7223308212
 10
-32.3198835867
 20
34.7223308212
 10
-31.7589815981
 20
34.9452534064
 10
-31.1932855753
 20
35.1418088042
 10
-30.6180014844
 20
35.3072029803
 10
-30.0355263424
 20
35.4438329519
 10
-30.0355263424
 20
35.4438329519
 10
-29.8725291833
 20
35.4725971564
 10
-29.7095320242
 20
35.4821852246
 10
-29.7095320242
 20
35.4821852246
 10
-29.5081825924
 20
35.4725971564
 10
-29.3164212288
 20
35.4462299689
 10
-29.1294538992
 20
35.398289628
 10
-28.9520746378
 20
35.3359671848
 10
-28.7794894106
 20
35.2520715882
 10
-28.6164922515
 20
35.1513968723
 10
-28.4582891265
 20
35.0315460201
 10
-28.3096740697
 20
34.8925190314
 10
-28.1730440981
 20
34.7439039746
 10
-28.0531932458
 20
34.5928919007
 10
-27.9525185299
 20
34.4394828098
 10
-27.8710199503
 20
34.2812796848
 10
-27.8063004901
 20
34.1206795428
 10
-27.7607571663
 20
33.9576823837
 10
-27.7343899788
 20
33.7922882076
 10
-27.7248019106
 20
33.6220999973
 10
-27.7248019106
 20
33.6220999973
 10
-27.7248019106
 20
32.8262903382
 10
-27.7248019106
 20
32.8262903382
 10
-27.7056257742
 20
32.8023201678
 10
-27.6457003481
 20
32.7399977246
 10
-27.5857749219
 20
32.6632931792
 10
-27.5665987856
 20
32.5937796848
 10
-27.5665987856
 20
32.5937796848
 10
-27.7248019106
 20
32.3636660485
 10
-27.7248019106
 20
32.3636660485
 10
-27.7248019106
 20
30.7888258496
 10
-27.7248019106
 20
30.7888258496
 10
-27.5186584447
 20
30.7480765598
  0
LWPOLYLINE
  5
71
330
1F
100
AcDbEntity
  8
0
  6
Continuous
 62
     7
100
AcDbPolyline
 90
       43
 70
   128
 43
0.0
 10
-28.645247221
 20
30.4580374973
 10
-28.645256456
 20
32.1719046848
 10
-28.645256456
 20
32.1719046848
 10
-29.2972450924
 20
32.0304806792
 10
-29.9851889844
 20
31.8339252814
 10
-30.7066911151
 20
31.5846355087
 10
-31.4617514844
 20
31.2802143439
 10
-31.4617514844
 20
31.2802143439
 10
-31.9459489276
 20
31.0501007076
 10
-32.3702209447
 20
30.808001986
 10
-32.7345675356
 20
30.5539181792
 10
-33.0413857174
 20
30.2902463042
 10
-33.2906754901
 20
30.016986361
 10
-33.4824368538
 20
29.7317413326
 10
-33.6142727913
 20
29.4345112189
 10
-33.6861833026
 20
29.1276930371
 10
-33.6861833026
 20
29.1276930371
 10
-33.707756456
 20
28.9263436053
 10
-33.7005654049
 20
28.753758378
 10
-33.6670071663
 20
28.6051433212
 10
-33.6046847231
 20
28.4852924689
 10
-33.5135980753
 20
28.3918088042
 10
-33.3961442401
 20
28.3246923269
 10
-33.2499262003
 20
28.2863400542
 10
-33.0773409731
 20
28.2719579519
 10
-33.0773409731
 20
28.2719579519
 10
-32.8256541833
 20
28.2839430371
 10
-32.5547912572
 20
28.3222953098
 10
-32.2647521947
 20
28.384617753
 10
-31.9579340128
 20
28.4733073837
 10
-31.6343367117
 20
28.5859671848
 10
-31.2891662572
 20
28.7225971564
 10
-30.9272166833
 20
28.8855943155
 10
-30.5484879901
 20
29.0749586621
 10
-30.5484879901
 20
29.0749586621
 10
-30.1985235015
 20
29.2643230087
 10
-29.8821172515
 20
29.4488933212
 10
-29.594475206
 20
29.6310666167
 10
-29.3403913992
 20
29.806048861
 10
-29.119865831
 20
29.9762370712
 10
-28.9305014844
 20
30.1416312473
 10
-28.7722983594
 20
30.3022313894
 10
-28.645256456
 20
30.4580374973
  0
LWPOLYLINE
  5
72
330
1F
100
AcDbEntity
  8
0
  6
Continuous
 62
     7
100
AcDbPolyline
 90
       99
 70
   128
 43
0.0
 10
-18.7374204397
 20
34.6264501394
 10
-19.3175043253
 20
34.1230765598
 10
-19.3175043253
 20
34.1230765598
 10
-19.5596030469
 20
34.1806049689
 10
-19.7921137003
 20
34.2213542587
 10
-20.0174333026
 20
34.2477214462
 10
-20.2331648367
 20
34.2549124973
 10
-20.2331648367
 20
34.2549124973
 10
-20.4752635583
 20
34.235736361
 10
-20.722156314
 20
34.1782079519
 10
-20.9762401208
 20
34.079930253
 10
-21.2327209447
 20
33.9433002814
 10
-21.4939958026
 20
33.7683180371
 10
-21.7600646947
 20
33.5549835201
 10
-22.0333246378
 20
33.3008997132
 10
-22.3089815981
 20
33.0084636337
 10
-22.5726534731
 20
32.6920573837
 10
-22.8075611435
 20
32.3684600826
 10
-23.0137046094
 20
32.0352747132
 10
-23.1910838708
 20
31.6925012757
 10
-23.3396989276
 20
31.3425367871
 10
-23.4619467969
 20
30.9829842303
 10
-23.5530334447
 20
30.6138436053
 10
-23.6153558878
 20
30.2351149121
 10
-23.6153558878
 20
30.2351149121
 10
-23.6369290413
 20
30.016986361
 10
-23.6441200924
 20
29.8012548269
 10
-23.6441200924
 20
29.8012548269
 10
-23.622546939
 20
29.4417022701
 10
-23.5602244958
 20
29.1324870712
 10
-23.4571527628
 20
28.8688151962
 10
-23.3133317401
 20
28.6554806792
 10
-23.1263644106
 20
28.487689486
 10
-22.8986477913
 20
28.3678386337
 10
-22.6301818822
 20
28.2959281223
 10
-22.3209666833
 20
28.2719579519
 10
-22.3209666833
 20
28.2719579519
 10
-21.9518260583
 20
28.2959281223
 10
-21.5826854333
 20
28.3630445996
 10
-21.2135448083
 20
28.4781014178
 10
-20.8468012003
 20
28.6363045428
 10
-20.4800575924
 20
28.8424480087
 10
-20.1133139844
 20
29.0941347985
 10
-19.7465703765
 20
29.3889678951
 10
-19.3822237856
 20
29.7317413326
 10
-19.3822237856
 20
29.7317413326
 10
-18.7877635583
 20
29.1924124973
 10
-18.7877635583
 20
29.1924124973
 10
-19.1880654049
 20
28.7969046848
 10
-19.6003523367
 20
28.4541312473
 10
-20.0246243538
 20
28.1640921848
 10
-20.458484439
 20
27.9267874973
 10
-20.9067266265
 20
27.7422171848
 10
-21.3645568822
 20
27.6103812473
 10
-21.831975206
 20
27.5312796848
 10
-22.3137756322
 20
27.5049124973
 10
-22.3137756322
 20
27.5049124973
 10
-22.5582713708
 20
27.5145005655
 10
-22.7907820242
 20
27.538470736
 10
-23.0113075924
 20
27.5816170428
 10
-23.2174510583
 20
27.6415424689
 10
-23.411609439
 20
27.7182470144
 10
-23.5937827344
 20
27.8117306792
 10
-23.7615739276
 20
27.9243904803
 10
-23.9173800356
 20
28.0514323837
 10
-23.9173800356
 20
28.0514323837
 10
-24.0683921094
 20
28.2144295428
 10
-24.2002280469
 20
28.3942058212
 10
-24.3128878481
 20
28.5907612189
 10
-24.4015774788
 20
28.804095736
 10
-24.4734879901
 20
29.0318123553
 10
-24.5238253481
 20
29.278705111
 10
-24.5549865697
 20
29.5399799689
 10
-24.5645746378
 20
29.8204309632
 10
-24.5645746378
 20
29.8204309632
 10
-24.5549865697
 20
30.0960879235
 10
-24.5310163992
 20
30.3789359348
 10
-24.5310163992
 20
30.3789359348
 10
-24.4567088708
 20
30.810399003
 10
-24.3464460867
 20
31.229876986
 10
-24.2002280469
 20
31.6421639178
 10
-24.0132607174
 20
32.0472597985
 10
-23.7903381322
 20
32.4403705939
 10
-23.5314602913
 20
32.8262903382
 10
-23.2342301776
 20
33.2026220144
 10
-22.8986477913
 20
33.5693656223
 10
-22.5438892685
 20
33.9097420428
 10
-22.1915277628
 20
34.2045751394
 10
-21.8367692401
 20
34.4538649121
 10
-21.4844077344
 20
34.660008378
 10
-21.1296492117
 20
34.818211503
 10
-20.774890689
 20
34.9308713042
 10
-20.4225291833
 20
35.0003847985
 10
-20.0677706606
 20
35.0219579519
 10
-20.0677706606
 20
35.0219579519
 10
-19.720203189
 20
34.9979877814
 10
-19.3846208026
 20
34.923680253
 10
-19.0562294674
 20
34.7990353667
 10
-18.7374262003
 20
34.6264501394
  0
LWPOLYLINE
  5
73
330
1F
100
AcDbEntity
  8
0
  6
Continuous
 62
     7
100
AcDbPolyline
 90
      180
 70
   128
 43
0.0
 10
-9.4168633223
 20
33.7779061053
 10
-9.5103487856
 20
33.5549835201
 10
-9.639787706
 20
33.339251986
 10
-9.8027848651
 20
33.128314486
 10
-10.0017372799
 20
32.9245680371
 10
-10.2342479333
 20
32.7280126394
 10
-10.5003168253
 20
32.5362512757
 10
-10.8023409731
 20
32.3516809632
 10
-11.1379233594
 20
32.1719046848
 10
-11.1379233594
 20
32.1719046848
 10
-11.4063892685
 20
32.0496568155
 10
-11.6676641265
 20
31.9417910485
 10
-11.9217479333
 20
31.8531014178
 10
-12.171037706
 20
31.7787938894
 10
-12.4107394106
 20
31.7212654803
 10
-12.645647081
 20
31.6805161905
 10
-12.8709666833
 20
31.654149003
 10
-13.0914922515
 20
31.6469579519
 10
-13.0914922515
 20
31.6469579519
 10
-13.2281222231
 20
31.6589430371
 10
-13.3455760583
 20
31.6948982928
 10
-13.4486477913
 20
31.757220736
 10
-13.5325433878
 20
31.8411163326
 10
-13.5325433878
 20
31.8411163326
 10
-12.7031754901
 20
32.6081617871
 10
-12.7031754901
 20
32.6081617871
 10
-12.7055725072
 20
32.5242661905
 10
-12.7103665413
 20
32.4619437473
 10
-12.7223516265
 20
32.4259884917
 10
-12.7367337288
 20
32.4140034064
 10
-12.7367337288
 20
32.4140034064
 10
-12.4490916833
 20
32.442767611
 10
-12.1302884163
 20
32.5242661905
 10
-11.7803239276
 20
32.6632931792
 10
-11.3991982174
 20
32.8550545428
 10
-11.3991982174
 20
32.8550545428
 10
-11.1810696663
 20
32.9820964462
 10
-10.9869112856
 20
33.1139323837
 10
-10.8119290413
 20
33.2481653382
 10
-10.6609169674
 20
33.3847953098
 10
-10.533875064
 20
33.5262193155
 10
-10.4260092969
 20
33.6724373553
 10
-10.3421137003
 20
33.8210524121
 10
-10.2797912572
 20
33.972064486
 10
-10.2797912572
 20
33.972064486
 10
-10.2246598651
 20
34.1806049689
 10
-10.2054837288
 20
34.3579842303
 10
-10.2054837288
 20
34.3579842303
 10
-10.2126747799
 20
34.4418798269
 10
-10.2342479333
 20
34.5137903382
 10
-10.272600206
 20
34.5761127814
 10
-10.325334581
 20
34.6264501394
 10
-10.3924510583
 20
34.6648024121
 10
-10.4739496378
 20
34.6935666167
 10
-10.5722273367
 20
34.710345736
 10
-10.6848871378
 20
34.7151397701
 10
-10.6848871378
 20
34.7151397701
 10
-10.8287081606
 20
34.7079487189
 10
-10.9893083026
 20
34.6887725826
 10
-11.1618935299
 20
34.6528173269
 10
-11.3512578765
 20
34.607274003
 10
-11.5574013424
 20
34.5449515598
 10
-11.7755298935
 20
34.4706440314
 10
-12.010437564
 20
34.3819544007
 10
-12.2597273367
 20
34.2788826678
 10
-12.2597273367
 20
34.2788826678
 10
-12.4059453765
 20
34.2093691735
 10
-12.5569574503
 20
34.1158855087
 10
-12.7175575924
 20
33.9960346564
 10
-12.8829517685
 20
33.8522136337
 10
-13.0579340128
 20
33.6820254235
 10
-13.2401073083
 20
33.4878670428
 10
-13.4294716549
 20
33.2673414746
 10
-13.6260270526
 20
33.022845736
 10
-13.6260270526
 20
33.022845736
 10
-13.8465526208
 20
32.7232186053
 10
-14.0431080185
 20
32.4140034064
 10
-14.2204872799
 20
32.0952001394
 10
-14.3738963708
 20
31.7716028382
 10
-14.5033352913
 20
31.4384174689
 10
-14.6135980753
 20
31.0956440314
 10
-14.699890689
 20
30.7456795428
 10
-14.7646101492
 20
30.388524003
 10
-14.7646101492
 20
30.388524003
 10
-14.7957713708
 20
30.0960879235
 10
-14.807756456
 20
29.8012548269
 10
-14.807756456
 20
29.8012548269
 10
-14.7909773367
 20
29.4417022701
 10
-14.7406399788
 20
29.1324870712
 10
-14.6543473651
 20
28.8688151962
 10
-14.5368935299
 20
28.6554806792
 10
-14.383484439
 20
28.487689486
 10
-14.1989141265
 20
28.3678386337
 10
-13.9783885583
 20
28.2959281223
 10
-13.7243047515
 20
28.2719579519
 10
-13.7243047515
 20
28.2719579519
 10
-13.3407820242
 20
28.3055161905
 10
-12.9404801776
 20
28.4037938894
 10
-12.5210021947
 20
28.5691880655
 10
-12.0871421094
 20
28.7993017019
 10
-11.6341058878
 20
29.0965318155
 10
-11.1618935299
 20
29.4584813894
 10
-10.6752990697
 20
29.8875474405
 10
-10.1695284731
 20
30.3813329519
 10
-10.1695284731
 20
30.3813329519
 10
-9.5439070242
 20
29.8779593723
 10
-9.5439070242
 20
29.8779593723
 10
-9.8219610015
 20
29.5903173269
 10
-10.0976179617
 20
29.3218514178
 10
-10.3708779049
 20
29.0725616451
 10
-10.6441378481
 20
28.8400509917
 10
-10.9150007742
 20
28.6267164746
 10
-11.1834666833
 20
28.4325580939
 10
-11.4495355753
 20
28.2551788326
 10
-11.7156044674
 20
28.0993727246
 10
-11.9792763424
 20
27.9579487189
 10
-12.2405512003
 20
27.8380978667
 10
-12.4994290413
 20
27.7374231507
 10
-12.7559098651
 20
27.6535275542
 10
-13.012390689
 20
27.5888080939
 10
-13.2664744958
 20
27.540867753
 10
-13.5181612856
 20
27.5145005655
 10
-13.7698480753
 20
27.5049124973
 10
-13.7698480753
 20
27.5049124973
 10
-13.9903736435
 20
27.5145005655
 10
-14.1965171094
 20
27.5432647701
 10
-14.3930725072
 20
27.5888080939
 10
-14.5776428197
 20
27.6559245712
 10
-14.7502280469
 20
27.7398201678
 10
-14.913225206
 20
27.8428919007
 10
-15.0618402628
 20
27.962742753
 10
-15.2008672515
 20
28.1041667587
 10
-15.3255121378
 20
28.2623698837
 10
-15.4309808878
 20
28.437352128
 10
-15.5220675356
 20
28.6267164746
 10
-15.596375064
 20
28.8328599405
 10
-15.6539034731
 20
29.0557825257
 10
-15.6946527628
 20
29.2954842303
 10
-15.7210199503
 20
29.5519650542
 10
-15.7282110015
 20
29.8228279803
 10
-15.7282110015
 20
29.8228279803
 10
-15.7162259163
 20
30.1799835201
 10
-15.6802706606
 20
30.5515211621
 10
-15.6802706606
 20
30.5515211621
 10
-15.6083601492
 20
30.9590140598
 10
-15.5076854333
 20
31.3593159064
 10
-15.3806435299
 20
31.7524267019
 10
-15.2224404049
 20
32.1383464462
 10
-15.0378700924
 20
32.5146781223
 10
-14.8245355753
 20
32.8862157644
 10
-14.5848338708
 20
33.2481653382
 10
-14.3139709447
 20
33.602923861
 10
-14.3139709447
 20
33.602923861
 10
-14.0886513424
 20
33.8737867871
 10
-13.8657287572
 20
34.1206795428
 10
-13.647600206
 20
34.343602128
 10
-13.4294716549
 20
34.5425545428
 10
-13.2185341549
 20
34.7151397701
 10
-13.0075966549
 20
34.8637548269
 10
-12.801453189
 20
34.9883997132
 10
-12.5977067401
 20
35.0866774121
 10
-12.5977067401
 20
35.0866774121
 10
-12.1254943822
 20
35.2592626394
 10
-11.6628700924
 20
35.3839075257
 10
-11.2098338708
 20
35.4582150542
 10
-10.7663857174
 20
35.4821852246
 10
-10.7663857174
 20
35.4821852246
 10
-10.4188182458
 20
35.4654061053
 10
-10.1191911151
 20
35.4174657644
 10
-9.8627102913
 20
35.3383642019
 10
-9.6541698083
 20
35.2257044007
 10
-9.4935696663
 20
35.079486361
 10
-9.3785128481
 20
34.9045041167
 10
-9.3089993538
 20
34.6959636337
 10
-9.2850291833
 20
34.4538649121
 10
-9.2850291833
 20
34.4538649121
 10
-9.2922202344
 20
34.3124409064
 10
-9.3185874219
 20
34.1518407644
 10
-9.3593367117
 20
33.974461503
 10
-9.4168651208
 20
33.7779061053
  0
LWPOLYLINE
  5
74
330
1F
100
AcDbEntity
  8
0
  6
Continuous
 62
     7
100
AcDbPolyline
 90
       67
 70
   128
 43
0.0
 10
0.6204037927
 20
32.6369259917
 10
0.6060219531
 20
32.392430253
 10
0.5748607315
 20
32.1503315314
 10
0.5245233735
 20
31.9106298269
 10
0.4574068962
 20
31.6733251394
 10
0.3711142826
 20
31.4360204519
 10
0.2656455326
 20
31.2035097985
 10
0.1433976633
 20
30.9709991451
 10
0.0019736576
 20
30.7408855087
 10
-0.1586264844
 20
30.5131688894
 10
-0.3360057458
 20
30.2878492871
 10
-0.5325611435
 20
30.0649267019
 10
-0.7482926776
 20
29.8444011337
 10
-0.980803331
 20
29.6238755655
 10
-1.2324901208
 20
29.4081440314
 10
-1.5009560299
 20
29.1924124973
 10
-1.7885980753
 20
28.9790779803
 10
-1.7885980753
 20
28.9790779803
 10
-2.457365831
 20
28.5308357928
 10
-3.1716769106
 20
28.1233428951
 10
-3.933928331
 20
27.7542022701
 10
-4.7441200924
 20
27.4258109348
 10
-4.7441200924
 20
27.4258109348
 10
-4.7441200924
 20
24.1299124973
 10
-4.7441200924
 20
24.1299124973
 10
-5.6645746378
 20
24.1299124973
 10
-5.6645746378
 20
24.1299124973
 10
-5.6645746378
 20
32.5050900542
 10
-5.6645746378
 20
32.5050900542
 10
-5.8179837288
 20
32.9820964462
 10
-5.8179837288
 20
32.9820964462
 10
-5.8083956606
 20
32.9892874973
 10
-5.779631456
 20
33.0132576678
 10
-5.7316911151
 20
33.0492129235
 10
-5.6645746378
 20
33.1019472985
 10
-5.6645746378
 20
33.1019472985
 10
-5.6645746378
 20
35.4821852246
 10
-5.6645746378
 20
35.4821852246
 10
-4.7441200924
 20
35.4821852246
 10
-4.7441200924
 20
35.4821852246
 10
-4.7441200924
 20
33.552586503
 10
-4.7441200924
 20
33.552586503
 10
-4.2311584447
 20
33.8618017019
 10
-3.7421669674
 20
34.1278705939
 10
-3.2771456606
 20
34.3555872132
 10
-2.8360945242
 20
34.5401575257
 10
-2.4190135583
 20
34.6839785485
 10
-2.0282997799
 20
34.7870502814
 10
-1.6591591549
 20
34.8469757076
 10
-1.3139887003
 20
34.868548861
 10
-1.3139887003
 20
34.868548861
 10
-1.0766840128
 20
34.8589607928
 10
-0.8537614276
 20
34.8325936053
 10
-0.6452209447
 20
34.7894472985
 10
-0.453459581
 20
34.7295218723
 10
-0.2784773367
 20
34.6504203098
 10
-0.1178771947
 20
34.554539628
 10
0.0259438281
 20
34.4418798269
 10
0.1553827485
 20
34.3100438894
 10
0.2680425497
 20
34.1614288326
 10
0.3663202485
 20
33.9960346564
 10
0.4478188281
 20
33.813861361
 10
0.5125382883
 20
33.6125119292
 10
0.5628756462
 20
33.394383378
 10
0.5988309019
 20
33.1594757076
 10
0.6180070383
 20
32.9077889178
 10
0.6204040553
 20
32.6369259917
  0
LWPOLYLINE
  5
75
330
1F
100
AcDbEntity
  8
0
  6
Continuous
 62
     7
100
AcDbPolyline
 90
       34
 70
   128
 43
0.0
 10
-0.2952562645
 20
32.6441170428
 10
-0.2976534731
 20
32.9868904803
 10
-0.3360057458
 20
33.2817235769
 10
-0.4103132742
 20
33.5334103667
 10
-0.5229730753
 20
33.7371568155
 10
-0.6715881322
 20
33.8977569576
 10
-0.8585554617
 20
34.0104167587
 10
-1.0814780469
 20
34.079930253
 10
-1.3403558878
 20
34.1015034064
 10
-1.3403558878
 20
34.1015034064
 10
-1.5944396947
 20
34.079930253
 10
-1.8988608594
 20
34.0128137757
 10
-2.2512223651
 20
33.9025509917
 10
-2.6515242117
 20
33.7491419007
 10
-3.1021634163
 20
33.550189486
 10
-3.6007429617
 20
33.3080907644
 10
-4.1472628481
 20
33.0204487189
 10
-4.7441200924
 20
32.6896603667
 10
-4.7441200924
 20
32.6896603667
 10
-4.7441200924
 20
28.2192235769
 10
-4.7441200924
 20
28.2192235769
 10
-4.195203189
 20
28.4972775542
 10
-3.617522081
 20
28.8232718723
 10
-3.0134737856
 20
29.2020005655
 10
-2.3830583026
 20
29.6286695996
 10
-2.3830583026
 20
29.6286695996
 10
-1.9084489276
 20
29.9906191735
 10
-1.4937649788
 20
30.3573627814
 10
-1.139006456
 20
30.7289004235
 10
-0.8489673935
 20
31.1052320996
 10
-0.6188537572
 20
31.4839607928
 10
-0.4486655469
 20
31.865086503
 10
-0.3407997799
 20
32.2534032644
 10
-0.295256456
 20
32.6441170428
  0
LWPOLYLINE
  5
76
330
1F
100
AcDbEntity
  8
0
  6
Continuous
 62
     7
100
AcDbPolyline
 90
       88
 70
   128
 43
0.0
 10
9.5334649086
 20
31.0644828098
 10
9.3824601633
 20
30.6210346564
 10
9.1667286292
 20
30.1656014178
 10
8.8862776349
 20
29.6933890598
 10
8.5411071803
 20
29.2067945996
 10
8.5411071803
 20
29.2067945996
 10
8.3277726633
 20
28.9383286905
 10
8.1120411292
 20
28.6914359348
 10
7.889118544
 20
28.4685133496
 10
7.6614019247
 20
28.2671639178
 10
7.4288912712
 20
28.0849906223
 10
7.1939836008
 20
27.9267874973
 10
6.9518848792
 20
27.7925545428
 10
6.7049921235
 20
27.6774977246
 10
6.7049921235
 20
27.6774977246
 10
6.4988486576
 20
27.6031901962
 10
6.2974992258
 20
27.5480588042
 10
6.1009438281
 20
27.5168975826
 10
5.9067854474
 20
27.5049124973
 10
5.9067854474
 20
27.5049124973
 10
5.7342002201
 20
27.5168975826
 10
5.5783941122
 20
27.5552498553
 10
5.4369701065
 20
27.6175722985
 10
5.3123252201
 20
27.7062619292
 10
5.199665419
 20
27.8165247132
 10
5.1061817542
 20
27.9555517019
 10
5.0270801917
 20
28.118548861
 10
4.9623607315
 20
28.3055161905
 10
4.9623607315
 20
28.3055161905
 10
4.9168174076
 20
28.5284387757
 10
4.885656186
 20
28.8136838042
 10
4.8664800497
 20
29.1660453098
 10
4.8592889985
 20
29.5831262757
 10
4.8592889985
 20
29.5831262757
 10
4.8592889985
 20
33.4423237189
 10
4.8592889985
 20
33.4423237189
 10
3.0063948224
 20
32.6584991451
 10
3.0063948224
 20
32.6584991451
 10
3.0207769247
 20
33.4519117871
 10
3.0207769247
 20
33.4519117871
 10
4.8592889985
 20
34.1997811053
 10
4.8592889985
 20
34.1997811053
 10
4.8592889985
 20
39.1640034064
 10
4.8592889985
 20
39.1640034064
 10
5.779743544
 20
39.1640034064
 10
5.779743544
 20
39.1640034064
 10
5.779743544
 20
34.4442768439
 10
5.779743544
 20
34.4442768439
 10
8.2318919815
 20
35.4821852246
 10
8.2318919815
 20
35.4821852246
 10
8.2223039133
 20
34.765477128
 10
8.2223039133
 20
34.765477128
 10
5.779743544
 20
33.7299657644
 10
5.779743544
 20
33.7299657644
 10
5.779743544
 20
29.5375829519
 10
5.779743544
 20
29.5375829519
 10
5.779743544
 20
29.3458215882
 10
5.779743544
 20
29.1780303951
 10
5.779743544
 20
29.0342093723
 10
5.779743544
 20
28.911961503
 10
5.782140561
 20
28.8136838042
 10
5.7845375781
 20
28.7369792587
 10
5.7869345951
 20
28.6842448837
 10
5.7893316122
 20
28.6554806792
 10
5.7893316122
 20
28.6554806792
 10
5.8228898508
 20
28.487689486
 10
5.8636391406
 20
28.3678386337
 10
5.9115794815
 20
28.2959281223
 10
5.9643138565
 20
28.2719579519
 10
5.9643138565
 20
28.2719579519
 10
6.1345020667
 20
28.2983251394
 10
6.3454395667
 20
28.3726326678
 10
6.3454395667
 20
28.3726326678
 10
6.520421811
 20
28.4589252814
 10
6.6978010724
 20
28.5643940314
 10
6.8775773508
 20
28.6938329519
 10
7.0573536292
 20
28.8448450257
 10
7.2371299076
 20
29.017430253
 10
7.4217002201
 20
29.2115886337
 10
7.6062705326
 20
29.4273201678
 10
7.7908408451
 20
29.6646248553
 10
7.7908408451
 20
29.6646248553
 10
8.0641007883
 20
30.0409565314
 10
8.2918174076
 20
30.4005090882
 10
8.4739907031
 20
30.7408855087
 10
8.6106206747
 20
31.0644828098
 10
8.6106206747
 20
31.0644828098
 10
9.5334722372
 20
31.0644828098
  0
LWPOLYLINE
  5
77
330
1F
100
AcDbEntity
  8
0
  6
Continuous
 62
     7
100
AcDbPolyline
 90
      150
 70
   128
 43
0.0
 10
18.8108831644
 20
30.7480765598
 10
18.7269914133
 20
30.5203599405
 10
18.6646689701
 20
30.3573627814
 10
18.6239196803
 20
30.2566880655
 10
18.604743544
 20
30.2183357928
 10
18.604743544
 20
30.2183357928
 10
18.604743544
 20
27.5049124973
 10
18.604743544
 20
27.5049124973
 10
17.6842889985
 20
27.5049124973
 10
17.6842889985
 20
27.5049124973
 10
17.6842889985
 20
29.5375829519
 10
17.6842889985
 20
29.5375829519
 10
17.5428649928
 20
29.3673947417
 10
17.3750737997
 20
29.1972065314
 10
17.180915419
 20
29.0294153382
 10
16.9579928337
 20
28.8616241451
 10
16.706306044
 20
28.6962299689
 10
16.4258550497
 20
28.5308357928
 10
16.1190368678
 20
28.3678386337
 10
15.7858514985
 20
28.2048414746
 10
15.7858514985
 20
28.2048414746
 10
15.4119168394
 20
28.0418443155
 10
15.0499672656
 20
27.8980232928
 10
14.702399794
 20
27.7781724405
 10
14.3692144247
 20
27.6798947417
 10
14.0504111576
 20
27.6031901962
 10
13.7435929758
 20
27.5480588042
 10
13.4511568962
 20
27.5168975826
 10
13.1707059019
 20
27.5049124973
 10
13.1707059019
 20
27.5049124973
 10
12.9765475212
 20
27.5121035485
 10
12.7967712428
 20
27.5312796848
 10
12.6313770667
 20
27.5648379235
 10
12.4779679758
 20
27.6103812473
 10
12.3389409872
 20
27.6703066735
 10
12.2142961008
 20
27.7422171848
 10
12.1016362997
 20
27.8285097985
 10
12.0033586008
 20
27.9267874973
 10
11.9170659872
 20
28.0394472985
 10
11.8451554758
 20
28.1640921848
 10
11.7876270667
 20
28.3031191735
 10
11.7444807599
 20
28.4565282644
 10
11.7133195383
 20
28.6195254235
 10
11.696540419
 20
28.7993017019
 10
11.6917463849
 20
28.9910630655
 10
11.7013344531
 20
29.1948095144
 10
11.7013344531
 20
29.1948095144
 10
11.7277016406
 20
29.386570878
 10
11.7732449644
 20
29.5759352246
 10
11.8379644247
 20
29.7629025542
 10
11.9218600212
 20
29.9450758496
 10
12.0225347372
 20
30.124852128
 10
12.1447826065
 20
30.3046284064
 10
12.2838095951
 20
30.4796106507
 10
12.4444097372
 20
30.652195878
 10
12.6217889985
 20
30.8199870712
 10
12.8159473792
 20
30.9877782644
 10
13.0316789133
 20
31.1507754235
 10
13.2665865837
 20
31.3113755655
 10
13.5182733735
 20
31.4695786905
 10
13.7915333167
 20
31.6253847985
 10
14.0815723792
 20
31.7787938894
 10
14.3907875781
 20
31.9274089462
 10
14.3907875781
 20
31.9274089462
 10
14.8414267826
 20
32.128758378
 10
15.282477919
 20
32.3085346564
 10
15.7091469531
 20
32.4691347985
 10
16.128624936
 20
32.6105588042
 10
16.5337208167
 20
32.7304096564
 10
16.9292286292
 20
32.8310843723
 10
17.3127513565
 20
32.9101859348
 10
17.6842889985
 20
32.970111361
 10
17.6842889985
 20
32.970111361
 10
17.6842889985
 20
33.655658236
 10
17.6842889985
 20
33.655658236
 10
17.6651128622
 20
33.8570076678
 10
17.605187436
 20
34.0463720144
 10
17.5069097372
 20
34.2237512757
 10
17.3702797656
 20
34.3915424689
 10
17.2096796235
 20
34.5329664746
 10
17.0370943962
 20
34.6336411905
 10
16.8573181178
 20
34.6959636337
 10
16.6679537712
 20
34.7151397701
 10
16.6679537712
 20
34.7151397701
 10
16.5648820383
 20
34.7079487189
 10
16.4306490837
 20
34.6863755655
 10
16.2628578906
 20
34.6504203098
 10
16.0663024928
 20
34.6000829519
 10
15.8361888565
 20
34.5353634917
 10
15.5749139985
 20
34.4538649121
 10
15.282477919
 20
34.3603812473
 10
14.9588806178
 20
34.2525154803
 10
14.9588806178
 20
34.2525154803
 10
14.6568564701
 20
34.1470467303
 10
14.3931845951
 20
34.0439749973
 10
14.1654679758
 20
33.9456972985
 10
13.9737066122
 20
33.8498166167
 10
13.8179005042
 20
33.7539359348
 10
13.700446669
 20
33.6628492871
 10
13.6189480894
 20
33.5765566735
 10
13.5758017826
 20
33.4902640598
 10
13.5758017826
 20
33.4902640598
 10
12.6433621519
 20
33.4902640598
 10
12.6433621519
 20
33.4902640598
 10
12.6697293394
 20
33.6532612189
 10
12.7368458167
 20
33.813861361
 10
12.8447115837
 20
33.972064486
 10
12.9957236576
 20
34.1278705939
 10
13.1850880042
 20
34.2812796848
 10
13.4199956747
 20
34.4298947417
 10
13.6932556178
 20
34.5785097985
 10
14.0096618678
 20
34.7223308212
 10
14.0096618678
 20
34.7223308212
 10
14.5705638565
 20
34.9452534064
 10
15.1362598792
 20
35.1418088042
 10
15.7115439701
 20
35.3072029803
 10
16.2940191122
 20
35.4438329519
 10
16.2940191122
 20
35.4438329519
 10
16.4570162712
 20
35.4725971564
 10
16.6200134303
 20
35.4821852246
 10
16.6200134303
 20
35.4821852246
 10
16.8213628622
 20
35.4725971564
 10
17.0131242258
 20
35.4462299689
 10
17.2000915553
 20
35.398289628
 10
17.3774708167
 20
35.3359671848
 10
17.550056044
 20
35.2520715882
 10
17.7130532031
 20
35.1513968723
 10
17.8712563281
 20
35.0315460201
 10
18.0198713849
 20
34.8925190314
 10
18.1565013565
 20
34.7439039746
 10
18.2763522087
 20
34.5928919007
 10
18.3770269247
 20
34.4394828098
 10
18.4585255042
 20
34.2812796848
 10
18.5232449644
 20
34.1206795428
 10
18.5687882883
 20
33.9576823837
 10
18.5951554758
 20
33.7922882076
 10
18.604743544
 20
33.6220999973
 10
18.604743544
 20
33.6220999973
 10
18.604743544
 20
32.8262903382
 10
18.604743544
 20
32.8262903382
 10
18.6239196803
 20
32.8023201678
 10
18.6838451065
 20
32.7399977246
 10
18.7437705326
 20
32.6632931792
 10
18.762946669
 20
32.5937796848
 10
18.762946669
 20
32.5937796848
 10
18.604743544
 20
32.3636660485
 10
18.604743544
 20
32.3636660485
 10
18.604743544
 20
30.7888258496
 10
18.604743544
 20
30.7888258496
 10
18.8108870099
 20
30.7480765598
  0
LWPOLYLINE
  5
78
330
1F
100
AcDbEntity
  8
0
  6
Continuous
 62
     7
100
AcDbPolyline
 90
       43
 70
   128
 43
0.0
 10
17.6842808723
 20
30.4580374973
 10
17.6842889985
 20
32.1719046848
 10
17.6842889985
 20
32.1719046848
 10
17.0323003622
 20
32.0304806792
 10
16.3443564701
 20
31.8339252814
 10
15.6228543394
 20
31.5846355087
 10
14.8677939701
 20
31.2802143439
 10
14.8677939701
 20
31.2802143439
 10
14.3835965269
 20
31.0501007076
 10
13.9593245099
 20
30.808001986
 10
13.594977919
 20
30.5539181792
 10
13.2881597372
 20
30.2902463042
 10
13.0388699644
 20
30.016986361
 10
12.8471086008
 20
29.7317413326
 10
12.7152726633
 20
29.4345112189
 10
12.6433621519
 20
29.1276930371
 10
12.6433621519
 20
29.1276930371
 10
12.6217889985
 20
28.9263436053
 10
12.6289800497
 20
28.753758378
 10
12.6625382883
 20
28.6051433212
 10
12.7248607315
 20
28.4852924689
 10
12.8159473792
 20
28.3918088042
 10
12.9334012144
 20
28.3246923269
 10
13.0796192542
 20
28.2863400542
 10
13.2522044815
 20
28.2719579519
 10
13.2522044815
 20
28.2719579519
 10
13.5038912712
 20
28.2839430371
 10
13.7747541974
 20
28.3222953098
 10
14.0647932599
 20
28.384617753
 10
14.3716114417
 20
28.4733073837
 10
14.6952087428
 20
28.5859671848
 10
15.0403791974
 20
28.7225971564
 10
15.4023287712
 20
28.8855943155
 10
15.7810574644
 20
29.0749586621
 10
15.7810574644
 20
29.0749586621
 10
16.1310219531
 20
29.2643230087
 10
16.4474282031
 20
29.4488933212
 10
16.7350702485
 20
29.6310666167
 10
16.9891540553
 20
29.806048861
 10
17.2096796235
 20
29.9762370712
 10
17.3990439701
 20
30.1416312473
 10
17.5572470951
 20
30.3022313894
 10
17.6842889985
 20
30.4580374973
  0
LWPOLYLINE
  5
79
330
1F
100
AcDbEntity
  8
0
  6
Continuous
 62
     7
100
AcDbPolyline
 90
       85
 70
   128
 43
0.0
 10
26.8274694681
 20
27.5049124973
 10
25.9070162712
 20
27.5049124973
 10
25.9070162712
 20
27.5049124973
 10
25.9070162712
 20
31.6277818155
 10
25.9070162712
 20
31.6277818155
 10
25.9070162712
 20
31.9465850826
 10
25.9046192542
 20
32.2390211621
 10
25.8998252201
 20
32.5002960201
 10
25.895031186
 20
32.7376007076
 10
25.8878401349
 20
32.9437441735
 10
25.8806490837
 20
33.1235204519
 10
25.8710610156
 20
33.2745325257
 10
25.8590759303
 20
33.3967803951
 10
25.8590759303
 20
33.3967803951
 10
25.8303117258
 20
33.5981298269
 10
25.7991505042
 20
33.7731120712
 10
25.7607982315
 20
33.919330111
 10
25.7152549076
 20
34.0415779803
 10
25.6673145667
 20
34.1350616451
 10
25.6121831747
 20
34.2021781223
 10
25.5522577485
 20
34.2405303951
 10
25.4875382883
 20
34.2549124973
 10
25.4875382883
 20
34.2549124973
 10
25.5019203906
 20
34.2525154803
 10
25.4971263565
 20
34.2477214462
 10
25.4971263565
 20
34.2477214462
 10
25.1879111576
 20
34.0871213042
 10
24.8715049076
 20
33.868992753
 10
24.5503046235
 20
33.5909387757
 10
24.2219132883
 20
33.2553563894
 10
23.8863309019
 20
32.8574515598
 10
23.5435574644
 20
32.4044153382
 10
23.1935929758
 20
31.8914536905
 10
22.8388344531
 20
31.3185666167
 10
22.8388344531
 20
31.3185666167
 10
22.8388344531
 20
27.5049124973
 10
22.8388344531
 20
27.5049124973
 10
21.9183799076
 20
27.5049124973
 10
21.9183799076
 20
27.5049124973
 10
21.9183799076
 20
30.757664628
 10
21.9183799076
 20
30.757664628
 10
21.6115617258
 20
30.757664628
 10
21.6115617258
 20
30.757664628
 10
21.6547080326
 20
30.9206617871
 10
21.7194274928
 20
31.0932470144
 10
21.8081171235
 20
31.2706262757
 10
21.9183799076
 20
31.4575936053
 10
21.9183799076
 20
31.4575936053
 10
21.9183799076
 20
35.4821852246
 10
21.9183799076
 20
35.4821852246
 10
22.8388344531
 20
35.4821852246
 10
22.8388344531
 20
35.4821852246
 10
22.8388344531
 20
32.3157257076
 10
22.8388344531
 20
32.3157257076
 10
23.1384615837
 20
32.8934068155
 10
23.4380887144
 20
33.4135595144
 10
23.7401128622
 20
33.868992753
 10
24.0421370099
 20
34.2668975826
 10
24.3465581747
 20
34.6024799689
 10
24.6509793394
 20
34.8805339462
 10
24.9554005042
 20
35.0938684632
 10
25.262218686
 20
35.2496745712
 10
25.262218686
 20
35.2496745712
 10
25.4635681178
 20
35.3095999973
 10
25.6457414133
 20
35.3287761337
 10
25.6457414133
 20
35.3287761337
 10
25.8590759303
 20
35.3072029803
 10
26.050837294
 20
35.240086503
 10
26.2210255042
 20
35.1298237189
 10
26.369640561
 20
34.976414628
 10
26.4942854474
 20
34.7774622132
 10
26.5997541974
 20
34.5329664746
 10
26.6812527769
 20
34.2453244292
 10
26.7411782031
 20
33.9145360769
 10
26.7411782031
 20
33.9145360769
 10
26.7603543394
 20
33.7491419007
 10
26.7795304758
 20
33.550189486
 10
26.7939125781
 20
33.3200758496
 10
26.8058976633
 20
33.0540069576
 10
26.8154857315
 20
32.7567768439
 10
26.8226767826
 20
32.4259884917
 10
26.8250737997
 20
32.0616419007
 10
26.8274708167
 20
31.6637370712
 10
26.8274708167
 20
31.6637370712
 10
26.8274708167
 20
27.5049124973
  0
LWPOLYLINE
  5
7A
330
1F
100
AcDbEntity
  8
0
  6
Continuous
 62
     7
100
AcDbPolyline
 90
       14
 70
   128
 43
0.0
 10
42.8678095341
 20
35.1753670428
 10
40.1615972372
 20
27.5049124973
 10
40.1615972372
 20
27.5049124973
 10
39.4400951065
 20
27.5049124973
 10
39.4400951065
 20
27.5049124973
 10
36.829743544
 20
35.1753670428
 10
36.829743544
 20
35.1753670428
 10
37.726227919
 20
35.1537938894
 10
37.726227919
 20
35.1537938894
 10
39.8068387144
 20
28.6818478667
 10
39.8068387144
 20
28.6818478667
 10
41.9569630042
 20
35.1609849405
 10
41.9569630042
 20
35.1609849405
 10
42.8678294815
 20
35.1753670428
  0
LWPOLYLINE
  5
7B
330
1F
100
AcDbEntity
  8
0
  6
Continuous
 62
     7
100
AcDbPolyline
 90
        8
 70
   128
 43
0.0
 10
47.2001731396
 20
35.6355943155
 10
46.279743544
 20
35.6355943155
 10
46.279743544
 20
35.6355943155
 10
46.279743544
 20
37.1696852246
 10
46.279743544
 20
37.1696852246
 10
47.2001980894
 20
37.1696852246
 10
47.2001980894
 20
37.1696852246
 10
47.2001980894
 20
35.6355943155
  0
LWPOLYLINE
  5
7C
330
1F
100
AcDbEntity
  8
0
  6
Continuous
 62
     7
100
AcDbPolyline
 90
        8
 70
   128
 43
0.0
 10
47.2001731396
 20
35.1753670428
 10
47.2001980894
 20
27.5049124973
 10
47.2001980894
 20
27.5049124973
 10
46.279743544
 20
27.5049124973
 10
46.279743544
 20
27.5049124973
 10
46.279743544
 20
35.1753670428
 10
46.279743544
 20
35.1753670428
 10
47.2001980894
 20
35.1753670428
  0
LWPOLYLINE
  5
7D
330
1F
100
AcDbEntity
  8
0
  6
Continuous
 62
     7
100
AcDbPolyline
 90
      148
 70
   128
 43
0.0
 10
56.8635165691
 20
30.7984139178
 10
56.7748429758
 20
30.5347420428
 10
56.6525951065
 20
30.280658236
 10
56.4967889985
 20
30.0337654803
 10
56.3050276349
 20
29.7916667587
 10
56.0797080326
 20
29.5591561053
 10
55.8208301917
 20
29.3362335201
 10
55.5283941122
 20
29.1181049689
 10
55.202399794
 20
28.909564486
 10
54.8404502201
 20
28.7058180371
 10
54.4449424076
 20
28.5116596564
 10
54.0158763565
 20
28.3246923269
 10
53.5508550497
 20
28.1449160485
 10
53.0522755042
 20
27.9747278382
 10
52.5225347372
 20
27.8093336621
 10
51.9544416974
 20
27.6535275542
 10
51.355187436
 20
27.5049124973
 10
51.355187436
 20
27.5049124973
 10
51.355187436
 20
28.2743549689
 10
51.355187436
 20
28.2743549689
 10
51.8321938281
 20
28.3942058212
 10
52.2708479474
 20
28.5116596564
 10
52.6687527769
 20
28.6219224405
 10
53.0283053337
 20
28.7249941735
 10
53.3495056178
 20
28.8256688894
 10
53.6323536292
 20
28.9191525542
 10
53.8744523508
 20
29.0078421848
 10
54.0781987997
 20
29.0917377814
 10
54.0781987997
 20
29.0917377814
 10
54.4497364417
 20
29.2739110769
 10
54.780524794
 20
29.4656724405
 10
55.0753578906
 20
29.6718159064
 10
55.3294416974
 20
29.8875474405
 10
55.5451732315
 20
30.1128670428
 10
55.7225524928
 20
30.3525687473
 10
55.8591824644
 20
30.6018585201
 10
55.9598571803
 20
30.863133378
 10
55.9598571803
 20
30.863133378
 10
56.0173855894
 20
31.0836589462
 10
56.0365617258
 20
31.2682292587
 10
56.0365617258
 20
31.2682292587
 10
56.0221796235
 20
31.3928741451
 10
55.9838273508
 20
31.5007399121
 10
55.9167108735
 20
31.5918265598
 10
55.8232272087
 20
31.6685311053
 10
55.7033763565
 20
31.7260595144
 10
55.5571583167
 20
31.7668088042
 10
55.3821760724
 20
31.7931759917
 10
55.1832236576
 20
31.8003670428
 10
55.1832236576
 20
31.8003670428
 10
55.0729608735
 20
31.7979700257
 10
54.9435219531
 20
31.7907789746
 10
54.7925098792
 20
31.7787938894
 10
54.6199246519
 20
31.7620147701
 10
54.4257662712
 20
31.7404416167
 10
54.2124317542
 20
31.7140744292
 10
53.9775240837
 20
31.6829132076
 10
53.7234402769
 20
31.6469579519
 10
53.4669594531
 20
31.6110026962
 10
53.2296547656
 20
31.5798414746
 10
53.0115262144
 20
31.5534742871
 10
52.8101767826
 20
31.5319011337
 10
52.6280034872
 20
31.5151220144
 10
52.4650063281
 20
31.5031369292
 10
52.3187882883
 20
31.495945878
 10
52.1917463849
 20
31.493548861
 10
52.1917463849
 20
31.493548861
 10
51.9424566122
 20
31.5055339462
 10
51.7267250781
 20
31.5414892019
 10
51.5421547656
 20
31.599017611
 10
51.3935397087
 20
31.6829132076
 10
51.2760858735
 20
31.7883819576
 10
51.194587294
 20
31.9202178951
 10
51.144249936
 20
32.073626986
 10
51.1274708167
 20
32.2510062473
 10
51.1274708167
 20
32.2510062473
 10
51.1490439701
 20
32.4667377814
 10
51.2137634303
 20
32.7112335201
 10
51.2137634303
 20
32.7112335201
 10
51.3288202485
 20
33.0156546848
 10
51.4726412712
 20
33.3032967303
 10
51.6500205326
 20
33.5717626394
 10
51.8561639985
 20
33.8234494292
 10
52.0958657031
 20
34.0559600826
 10
52.3667286292
 20
34.2716916167
 10
52.6663557599
 20
34.4682470144
 10
52.9995411292
 20
34.6480232928
 10
52.9995411292
 20
34.6480232928
 10
53.3327264985
 20
34.7918443155
 10
53.6826909872
 20
34.9140921848
 10
54.0518316122
 20
35.0123698837
 10
54.4401483735
 20
35.0866774121
 10
54.8452442542
 20
35.1394117871
 10
55.2695162712
 20
35.1681759917
 10
55.7129644247
 20
35.1729700257
 10
56.1731916974
 20
35.1537938894
 10
56.1731916974
 20
35.1537938894
 10
56.1731916974
 20
34.3915424689
 10
56.1731916974
 20
34.3915424689
 10
55.7728898508
 20
34.4059245712
 10
55.3917641406
 20
34.4059245712
 10
55.0322115837
 20
34.3867484348
 10
54.6918351633
 20
34.3507931792
 10
54.3730318962
 20
34.2980588042
 10
54.0758017826
 20
34.2285453098
 10
53.7977478053
 20
34.1422526962
 10
53.5412669815
 20
34.0391809632
 10
53.303962294
 20
33.919330111
 10
53.0810397087
 20
33.7803031223
 10
52.8748962428
 20
33.6268940314
 10
52.6855318962
 20
33.4567058212
 10
52.5105496519
 20
33.2673414746
 10
52.3523465269
 20
33.0611980087
 10
52.2109225212
 20
32.8406724405
 10
52.0862776349
 20
32.600970736
 10
52.0862776349
 20
32.600970736
 10
52.0575134303
 20
32.5026930371
 10
52.0479253622
 20
32.3948272701
 10
52.0479253622
 20
32.3948272701
 10
52.0623074644
 20
32.337298861
 10
52.1078507883
 20
32.2941525542
 10
52.1821583167
 20
32.2701823837
 10
52.2876270667
 20
32.2605943155
 10
52.2876270667
 20
32.2605943155
 10
52.3763166974
 20
32.2629913326
 10
52.4865794815
 20
32.2701823837
 10
52.6232094531
 20
32.2821674689
 10
52.7814125781
 20
32.2989465882
 10
52.9611888565
 20
32.3205197417
 10
53.1673323224
 20
32.3468869292
 10
53.3950489417
 20
32.3780481507
 10
53.6467357315
 20
32.4140034064
 10
54.1405212428
 20
32.4811198837
 10
54.569587294
 20
32.5290602246
 10
54.9315368678
 20
32.5578244292
 10
55.2287669815
 20
32.5674124973
 10
55.2287669815
 20
32.5674124973
 10
55.6338628622
 20
32.550633378
 10
55.9838273508
 20
32.495501986
 10
56.2810574644
 20
32.4068123553
 10
56.5255532031
 20
32.2797704519
 10
56.7149175497
 20
32.1191703098
 10
56.8491505042
 20
31.9202178951
 10
56.9306490837
 20
31.6877072417
 10
56.9570162712
 20
31.4168443155
 10
56.9570162712
 20
31.4168443155
 10
56.9330461008
 20
31.1339963042
 10
56.8635326065
 20
30.7984139178
  0
LWPOLYLINE
  5
7E
330
1F
100
AcDbEntity
  8
0
  6
Continuous
 62
     7
100
AcDbPolyline
 90
        8
 70
   128
 43
0.0
 10
61.9581341743
 20
35.6355943155
 10
61.0376980894
 20
35.6355943155
 10
61.0376980894
 20
35.6355943155
 10
61.0376980894
 20
37.1696852246
 10
61.0376980894
 20
37.1696852246
 10
61.9581526349
 20
37.1696852246
 10
61.9581526349
 20
37.1696852246
 10
61.9581526349
 20
35.6355943155
  0
LWPOLYLINE
  5
7F
330
1F
100
AcDbEntity
  8
0
  6
Continuous
 62
     7
100
AcDbPolyline
 90
        8
 70
   128
 43
0.0
 10
61.9581341743
 20
35.1753670428
 10
61.9581526349
 20
27.5049124973
 10
61.9581526349
 20
27.5049124973
 10
61.0376980894
 20
27.5049124973
 10
61.0376980894
 20
27.5049124973
 10
61.0376980894
 20
35.1753670428
 10
61.0376980894
 20
35.1753670428
 10
61.9581526349
 20
35.1753670428
  0
LWPOLYLINE
  5
80
330
1F
100
AcDbEntity
  8
0
  6
Continuous
 62
     7
100
AcDbPolyline
 90
       88
 70
   128
 43
0.0
 10
71.4800357819
 20
31.0644828098
 10
71.3290510724
 20
30.6210346564
 10
71.1133195383
 20
30.1656014178
 10
70.832868544
 20
29.6933890598
 10
70.4876980894
 20
29.2067945996
 10
70.4876980894
 20
29.2067945996
 10
70.2743635724
 20
28.9383286905
 10
70.0586320383
 20
28.6914359348
 10
69.8357094531
 20
28.4685133496
 10
69.6079928337
 20
28.2671639178
 10
69.3754821803
 20
28.0849906223
 10
69.1405745099
 20
27.9267874973
 10
68.8984757883
 20
27.7925545428
 10
68.6515830326
 20
27.6774977246
 10
68.6515830326
 20
27.6774977246
 10
68.4454395667
 20
27.6031901962
 10
68.2440901349
 20
27.5480588042
 10
68.0475347372
 20
27.5168975826
 10
67.8533763565
 20
27.5049124973
 10
67.8533763565
 20
27.5049124973
 10
67.6807911292
 20
27.5168975826
 10
67.5249850212
 20
27.5552498553
 10
67.3835610156
 20
27.6175722985
 10
67.2589161292
 20
27.7062619292
 10
67.1462563281
 20
27.8165247132
 10
67.0527726633
 20
27.9555517019
 10
66.9736711008
 20
28.118548861
 10
66.9089516406
 20
28.3055161905
 10
66.9089516406
 20
28.3055161905
 10
66.8634083167
 20
28.5284387757
 10
66.8322470951
 20
28.8136838042
 10
66.8130709587
 20
29.1660453098
 10
66.8058799076
 20
29.5831262757
 10
66.8058799076
 20
29.5831262757
 10
66.8058799076
 20
33.4423237189
 10
66.8058799076
 20
33.4423237189
 10
64.9529857315
 20
32.6584991451
 10
64.9529857315
 20
32.6584991451
 10
64.9673678337
 20
33.4519117871
 10
64.9673678337
 20
33.4519117871
 10
66.8058799076
 20
34.1997811053
 10
66.8058799076
 20
34.1997811053
 10
66.8058799076
 20
39.1640034064
 10
66.8058799076
 20
39.1640034064
 10
67.7263344531
 20
39.1640034064
 10
67.7263344531
 20
39.1640034064
 10
67.7263344531
 20
34.4442768439
 10
67.7263344531
 20
34.4442768439
 10
70.1784828906
 20
35.4821852246
 10
70.1784828906
 20
35.4821852246
 10
70.1688948224
 20
34.765477128
 10
70.1688948224
 20
34.765477128
 10
67.7263344531
 20
33.7299657644
 10
67.7263344531
 20
33.7299657644
 10
67.7263344531
 20
29.5375829519
 10
67.7263344531
 20
29.5375829519
 10
67.7263344531
 20
29.3458215882
 10
67.7263344531
 20
29.1780303951
 10
67.7263344531
 20
29.0342093723
 10
67.7263344531
 20
28.911961503
 10
67.7287314701
 20
28.8136838042
 10
67.7311284872
 20
28.7369792587
 10
67.7335255042
 20
28.6842448837
 10
67.7359225212
 20
28.6554806792
 10
67.7359225212
 20
28.6554806792
 10
67.7694807599
 20
28.487689486
 10
67.8102300497
 20
28.3678386337
 10
67.8581703906
 20
28.2959281223
 10
67.9109047656
 20
28.2719579519
 10
67.9109047656
 20
28.2719579519
 10
68.0810929758
 20
28.2983251394
 10
68.2920304758
 20
28.3726326678
 10
68.2920304758
 20
28.3726326678
 10
68.4670127201
 20
28.4589252814
 10
68.6443919815
 20
28.5643940314
 10
68.8241682599
 20
28.6938329519
 10
69.0039445383
 20
28.8448450257
 10
69.1837208167
 20
29.017430253
 10
69.3682911292
 20
29.2115886337
 10
69.5528614417
 20
29.4273201678
 10
69.7374317542
 20
29.6646248553
 10
69.7374317542
 20
29.6646248553
 10
70.0106916974
 20
30.0409565314
 10
70.2384083167
 20
30.4005090882
 10
70.4205816122
 20
30.7408855087
 10
70.5572115837
 20
31.0644828098
 10
70.5572115837
 20
31.0644828098
 10
71.4800631462
 20
31.0644828098
  0
LWPOLYLINE
  5
81
330
1F
100
AcDbEntity
  8
0
  6
Continuous
 62
     7
100
AcDbPolyline
 90
      150
 70
   128
 43
0.0
 10
80.7574391365
 20
30.7480765598
 10
80.6735823224
 20
30.5203599405
 10
80.6112598792
 20
30.3573627814
 10
80.5705105894
 20
30.2566880655
 10
80.5513344531
 20
30.2183357928
 10
80.5513344531
 20
30.2183357928
 10
80.5513344531
 20
27.5049124973
 10
80.5513344531
 20
27.5049124973
 10
79.6308799076
 20
27.5049124973
 10
79.6308799076
 20
27.5049124973
 10
79.6308799076
 20
29.5375829519
 10
79.6308799076
 20
29.5375829519
 10
79.4894559019
 20
29.3673947417
 10
79.3216647087
 20
29.1972065314
 10
79.1275063281
 20
29.0294153382
 10
78.9045837428
 20
28.8616241451
 10
78.6528969531
 20
28.6962299689
 10
78.3724459587
 20
28.5308357928
 10
78.0656277769
 20
28.3678386337
 10
77.7324424076
 20
28.2048414746
 10
77.7324424076
 20
28.2048414746
 10
77.3585077485
 20
28.0418443155
 10
76.9965581747
 20
27.8980232928
 10
76.6489907031
 20
27.7781724405
 10
76.3158053337
 20
27.6798947417
 10
75.9970020667
 20
27.6031901962
 10
75.6901838849
 20
27.5480588042
 10
75.3977478053
 20
27.5168975826
 10
75.117296811
 20
27.5049124973
 10
75.117296811
 20
27.5049124973
 10
74.9231384303
 20
27.5121035485
 10
74.7433621519
 20
27.5312796848
 10
74.5779679758
 20
27.5648379235
 10
74.4245588849
 20
27.6103812473
 10
74.2855318962
 20
27.6703066735
 10
74.1608870099
 20
27.7422171848
 10
74.0482272087
 20
27.8285097985
 10
73.9499495099
 20
27.9267874973
 10
73.8636568962
 20
28.0394472985
 10
73.7917463849
 20
28.1640921848
 10
73.7342179758
 20
28.3031191735
 10
73.691071669
 20
28.4565282644
 10
73.6599104474
 20
28.6195254235
 10
73.6431313281
 20
28.7993017019
 10
73.638337294
 20
28.9910630655
 10
73.6479253622
 20
29.1948095144
 10
73.6479253622
 20
29.1948095144
 10
73.6742925497
 20
29.386570878
 10
73.7198358735
 20
29.5759352246
 10
73.7845553337
 20
29.7629025542
 10
73.8684509303
 20
29.9450758496
 10
73.9691256462
 20
30.124852128
 10
74.0913735156
 20
30.3046284064
 10
74.2304005042
 20
30.4796106507
 10
74.3910006462
 20
30.652195878
 10
74.5683799076
 20
30.8199870712
 10
74.7625382883
 20
30.9877782644
 10
74.9782698224
 20
31.1507754235
 10
75.2131774928
 20
31.3113755655
 10
75.4648642826
 20
31.4695786905
 10
75.7381242258
 20
31.6253847985
 10
76.0281632883
 20
31.7787938894
 10
76.3373784872
 20
31.9274089462
 10
76.3373784872
 20
31.9274089462
 10
76.7880176917
 20
32.128758378
 10
77.2290688281
 20
32.3085346564
 10
77.6557378622
 20
32.4691347985
 10
78.0752158451
 20
32.6105588042
 10
78.4803117258
 20
32.7304096564
 10
78.8758195383
 20
32.8310843723
 10
79.2593422656
 20
32.9101859348
 10
79.6308799076
 20
32.970111361
 10
79.6308799076
 20
32.970111361
 10
79.6308799076
 20
33.655658236
 10
79.6308799076
 20
33.655658236
 10
79.6117037712
 20
33.8570076678
 10
79.5517783451
 20
34.0463720144
 10
79.4535006462
 20
34.2237512757
 10
79.3168706747
 20
34.3915424689
 10
79.1562705326
 20
34.5329664746
 10
78.9836853053
 20
34.6336411905
 10
78.8039090269
 20
34.6959636337
 10
78.6145446803
 20
34.7151397701
 10
78.6145446803
 20
34.7151397701
 10
78.5114729474
 20
34.7079487189
 10
78.3772399928
 20
34.6863755655
 10
78.2094487997
 20
34.6504203098
 10
78.0128934019
 20
34.6000829519
 10
77.7827797656
 20
34.5353634917
 10
77.5215049076
 20
34.4538649121
 10
77.2290688281
 20
34.3603812473
 10
76.9054715269
 20
34.2525154803
 10
76.9054715269
 20
34.2525154803
 10
76.6034473792
 20
34.1470467303
 10
76.3397755042
 20
34.0439749973
 10
76.1120588849
 20
33.9456972985
 10
75.9202975212
 20
33.8498166167
 10
75.7644914133
 20
33.7539359348
 10
75.6470375781
 20
33.6628492871
 10
75.5655389985
 20
33.5765566735
 10
75.5223926917
 20
33.4902640598
 10
75.5223926917
 20
33.4902640598
 10
74.589953061
 20
33.4902640598
 10
74.589953061
 20
33.4902640598
 10
74.6163202485
 20
33.6532612189
 10
74.6834367258
 20
33.813861361
 10
74.7913024928
 20
33.972064486
 10
74.9423145667
 20
34.1278705939
 10
75.1316789133
 20
34.2812796848
 10
75.3665865837
 20
34.4298947417
 10
75.6398465269
 20
34.5785097985
 10
75.9562527769
 20
34.7223308212
 10
75.9562527769
 20
34.7223308212
 10
76.5171547656
 20
34.9452534064
 10
77.0828507883
 20
35.1418088042
 10
77.6581348792
 20
35.3072029803
 10
78.2406100212
 20
35.4438329519
 10
78.2406100212
 20
35.4438329519
 10
78.4036071803
 20
35.4725971564
 10
78.5666043394
 20
35.4821852246
 10
78.5666043394
 20
35.4821852246
 10
78.7679537712
 20
35.4725971564
 10
78.9597151349
 20
35.4462299689
 10
79.1466824644
 20
35.398289628
 10
79.3240617258
 20
35.3359671848
 10
79.4966469531
 20
35.2520715882
 10
79.6596441122
 20
35.1513968723
 10
79.8178472372
 20
35.0315460201
 10
79.966462294
 20
34.8925190314
 10
80.1030922656
 20
34.7439039746
 10
80.2229431178
 20
34.5928919007
 10
80.3236178337
 20
34.4394828098
 10
80.4051164133
 20
34.2812796848
 10
80.4698358735
 20
34.1206795428
 10
80.5153791974
 20
33.9576823837
 10
80.5417463849
 20
33.7922882076
 10
80.5513344531
 20
33.6220999973
 10
80.5513344531
 20
33.6220999973
 10
80.5513344531
 20
32.8262903382
 10
80.5513344531
 20
32.8262903382
 10
80.5705105894
 20
32.8023201678
 10
80.6304360156
 20
32.7399977246
 10
80.6903614417
 20
32.6632931792
 10
80.7095375781
 20
32.5937796848
 10
80.7095375781
 20
32.5937796848
 10
80.5513344531
 20
32.3636660485
 10
80.5513344531
 20
32.3636660485
 10
80.5513344531
 20
30.7888258496
 10
80.5513344531
 20
30.7888258496
 10
80.757477919
 20
30.7480765598
  0
LWPOLYLINE
  5
82
330
1F
100
AcDbEntity
  8
0
  6
Continuous
 62
     7
100
AcDbPolyline
 90
       43
 70
   128
 43
0.0
 10
79.6308517456
 20
30.4580374973
 10
79.6308799076
 20
32.1719046848
 10
79.6308799076
 20
32.1719046848
 10
78.9788912712
 20
32.0304806792
 10
78.2909473792
 20
31.8339252814
 10
77.5694452485
 20
31.5846355087
 10
76.8143848792
 20
31.2802143439
 10
76.8143848792
 20
31.2802143439
 10
76.330187436
 20
31.0501007076
 10
75.905915419
 20
30.808001986
 10
75.5415688281
 20
30.5539181792
 10
75.2347506462
 20
30.2902463042
 10
74.9854608735
 20
30.016986361
 10
74.7936995099
 20
29.7317413326
 10
74.6618635724
 20
29.4345112189
 10
74.589953061
 20
29.1276930371
 10
74.589953061
 20
29.1276930371
 10
74.5683799076
 20
28.9263436053
 10
74.5755709587
 20
28.753758378
 10
74.6091291974
 20
28.6051433212
 10
74.6714516406
 20
28.4852924689
 10
74.7625382883
 20
28.3918088042
 10
74.8799921235
 20
28.3246923269
 10
75.0262101633
 20
28.2863400542
 10
75.1987953906
 20
28.2719579519
 10
75.1987953906
 20
28.2719579519
 10
75.4504821803
 20
28.2839430371
 10
75.7213451065
 20
28.3222953098
 10
76.011384169
 20
28.384617753
 10
76.3182023508
 20
28.4733073837
 10
76.6417996519
 20
28.5859671848
 10
76.9869701065
 20
28.7225971564
 10
77.3489196803
 20
28.8855943155
 10
77.7276483735
 20
29.0749586621
 10
77.7276483735
 20
29.0749586621
 10
78.0776128622
 20
29.2643230087
 10
78.3940191122
 20
29.4488933212
 10
78.6816611576
 20
29.6310666167
 10
78.9357449644
 20
29.806048861
 10
79.1562705326
 20
29.9762370712
 10
79.3456348792
 20
30.1416312473
 10
79.5038380042
 20
30.3022313894
 10
79.6308799076
 20
30.4580374973
  0
LWPOLYLINE
  5
83
330
1F
100
AcDbEntity
  8
0
  6
Continuous
 62
     7
100
AcDbPolyline
 90
      148
 70
   128
 43
0.0
 10
89.6009802818
 20
30.7984139178
 10
89.5123429758
 20
30.5347420428
 10
89.3900951065
 20
30.280658236
 10
89.2342889985
 20
30.0337654803
 10
89.0425276349
 20
29.7916667587
 10
88.8172080326
 20
29.5591561053
 10
88.5583301917
 20
29.3362335201
 10
88.2658941122
 20
29.1181049689
 10
87.939899794
 20
28.909564486
 10
87.5779502201
 20
28.7058180371
 10
87.1824424076
 20
28.5116596564
 10
86.7533763565
 20
28.3246923269
 10
86.2883550497
 20
28.1449160485
 10
85.7897755042
 20
27.9747278382
 10
85.2600347372
 20
27.8093336621
 10
84.6919416974
 20
27.6535275542
 10
84.092687436
 20
27.5049124973
 10
84.092687436
 20
27.5049124973
 10
84.092687436
 20
28.2743549689
 10
84.092687436
 20
28.2743549689
 10
84.5696938281
 20
28.3942058212
 10
85.0083479474
 20
28.5116596564
 10
85.4062527769
 20
28.6219224405
 10
85.7658053337
 20
28.7249941735
 10
86.0870056178
 20
28.8256688894
 10
86.3698536292
 20
28.9191525542
 10
86.6119523508
 20
29.0078421848
 10
86.8156987997
 20
29.0917377814
 10
86.8156987997
 20
29.0917377814
 10
87.1872364417
 20
29.2739110769
 10
87.518024794
 20
29.4656724405
 10
87.8128578906
 20
29.6718159064
 10
88.0669416974
 20
29.8875474405
 10
88.2826732315
 20
30.1128670428
 10
88.4600524928
 20
30.3525687473
 10
88.5966824644
 20
30.6018585201
 10
88.6973571803
 20
30.863133378
 10
88.6973571803
 20
30.863133378
 10
88.7548855894
 20
31.0836589462
 10
88.7740617258
 20
31.2682292587
 10
88.7740617258
 20
31.2682292587
 10
88.7596796235
 20
31.3928741451
 10
88.7213273508
 20
31.5007399121
 10
88.6542108735
 20
31.5918265598
 10
88.5607272087
 20
31.6685311053
 10
88.4408763565
 20
31.7260595144
 10
88.2946583167
 20
31.7668088042
 10
88.1196760724
 20
31.7931759917
 10
87.9207236576
 20
31.8003670428
 10
87.9207236576
 20
31.8003670428
 10
87.8104608735
 20
31.7979700257
 10
87.6810219531
 20
31.7907789746
 10
87.5300098792
 20
31.7787938894
 10
87.3574246519
 20
31.7620147701
 10
87.1632662712
 20
31.7404416167
 10
86.9499317542
 20
31.7140744292
 10
86.7150240837
 20
31.6829132076
 10
86.4609402769
 20
31.6469579519
 10
86.2044594531
 20
31.6110026962
 10
85.9671547656
 20
31.5798414746
 10
85.7490262144
 20
31.5534742871
 10
85.5476767826
 20
31.5319011337
 10
85.3655034872
 20
31.5151220144
 10
85.2025063281
 20
31.5031369292
 10
85.0562882883
 20
31.495945878
 10
84.9292463849
 20
31.493548861
 10
84.9292463849
 20
31.493548861
 10
84.6799566122
 20
31.5055339462
 10
84.4642250781
 20
31.5414892019
 10
84.2796547656
 20
31.599017611
 10
84.1310397087
 20
31.6829132076
 10
84.0135858735
 20
31.7883819576
 10
83.932087294
 20
31.9202178951
 10
83.881749936
 20
32.073626986
 10
83.8649708167
 20
32.2510062473
 10
83.8649708167
 20
32.2510062473
 10
83.8865439701
 20
32.4667377814
 10
83.9512634303
 20
32.7112335201
 10
83.9512634303
 20
32.7112335201
 10
84.0663202485
 20
33.0156546848
 10
84.2101412712
 20
33.3032967303
 10
84.3875205326
 20
33.5717626394
 10
84.5936639985
 20
33.8234494292
 10
84.8333657031
 20
34.0559600826
 10
85.1042286292
 20
34.2716916167
 10
85.4038557599
 20
34.4682470144
 10
85.7370411292
 20
34.6480232928
 10
85.7370411292
 20
34.6480232928
 10
86.0702264985
 20
34.7918443155
 10
86.4201909872
 20
34.9140921848
 10
86.7893316122
 20
35.0123698837
 10
87.1776483735
 20
35.0866774121
 10
87.5827442542
 20
35.1394117871
 10
88.0070162712
 20
35.1681759917
 10
88.4504644247
 20
35.1729700257
 10
88.9106916974
 20
35.1537938894
 10
88.9106916974
 20
35.1537938894
 10
88.9106916974
 20
34.3915424689
 10
88.9106916974
 20
34.3915424689
 10
88.5103898508
 20
34.4059245712
 10
88.1292641406
 20
34.4059245712
 10
87.7697115837
 20
34.3867484348
 10
87.4293351633
 20
34.3507931792
 10
87.1105318962
 20
34.2980588042
 10
86.8133017826
 20
34.2285453098
 10
86.5352478053
 20
34.1422526962
 10
86.2787669815
 20
34.0391809632
 10
86.041462294
 20
33.919330111
 10
85.8185397087
 20
33.7803031223
 10
85.6123962428
 20
33.6268940314
 10
85.4230318962
 20
33.4567058212
 10
85.2480496519
 20
33.2673414746
 10
85.0898465269
 20
33.0611980087
 10
84.9484225212
 20
32.8406724405
 10
84.8237776349
 20
32.600970736
 10
84.8237776349
 20
32.600970736
 10
84.7950134303
 20
32.5026930371
 10
84.7854253622
 20
32.3948272701
 10
84.7854253622
 20
32.3948272701
 10
84.7998074644
 20
32.337298861
 10
84.8453507883
 20
32.2941525542
 10
84.9196583167
 20
32.2701823837
 10
85.0251270667
 20
32.2605943155
 10
85.0251270667
 20
32.2605943155
 10
85.1138166974
 20
32.2629913326
 10
85.2240794815
 20
32.2701823837
 10
85.3607094531
 20
32.2821674689
 10
85.5189125781
 20
32.2989465882
 10
85.6986888565
 20
32.3205197417
 10
85.9048323224
 20
32.3468869292
 10
86.1325489417
 20
32.3780481507
 10
86.3842357315
 20
32.4140034064
 10
86.8780212428
 20
32.4811198837
 10
87.307087294
 20
32.5290602246
 10
87.6690368678
 20
32.5578244292
 10
87.9662669815
 20
32.5674124973
 10
87.9662669815
 20
32.5674124973
 10
88.3713628622
 20
32.550633378
 10
88.7213273508
 20
32.495501986
 10
89.0185574644
 20
32.4068123553
 10
89.2630532031
 20
32.2797704519
 10
89.4524175497
 20
32.1191703098
 10
89.5866505042
 20
31.9202178951
 10
89.6681490837
 20
31.6877072417
 10
89.6945162712
 20
31.4168443155
 10
89.6945162712
 20
31.4168443155
 10
89.6705461008
 20
31.1339963042
 10
89.6010326065
 20
30.7984139178
  0
LWPOLYLINE
  5
84
330
1F
100
AcDbEntity
  8
0
  6
Continuous
 62
     7
100
AcDbPolyline
 90
      162
 70
   128
 43
0.0
 10
-112.9932999611
 20
-12.0024065621
 10
-115.0065665389
 20
-13.8443536774
 10
-115.0065665389
 20
-13.8443536774
 10
-115.2709896158
 20
-13.4837767544
 10
-115.5384175004
 20
-13.1712767544
 10
-115.805845385
 20
-12.9068536774
 10
-116.0732732696
 20
-12.6905075236
 10
-116.3437059619
 20
-12.5222382928
 10
-116.6171434619
 20
-12.4020459851
 10
-116.8905809619
 20
-12.3299306005
 10
-117.1640184619
 20
-12.305892139
 10
-117.1640184619
 20
-12.305892139
 10
-117.4194271158
 20
-12.3239209851
 10
-117.6507973081
 20
-12.3810123313
 10
-117.8551242312
 20
-12.4771661774
 10
-118.0384175004
 20
-12.6093777159
 10
-118.1856530773
 20
-12.7656277159
 10
-118.2938261543
 20
-12.9278873313
 10
-118.3569271158
 20
-13.1051709851
 10
-118.3779607696
 20
-13.2884642544
 10
-118.3779607696
 20
-13.2884642544
 10
-118.3629367312
 20
-13.4747623313
 10
-118.3148598081
 20
-13.6580556005
 10
-118.2367348081
 20
-13.8353392544
 10
-118.1285617312
 20
-14.0066132928
 10
-118.1285617312
 20
-14.0066132928
 10
-118.0233934619
 20
-14.1358200236
 10
-117.876157885
 20
-14.2950748313
 10
-117.6838501927
 20
-14.4903873313
 10
-117.4494751927
 20
-14.7157479082
 10
-117.1760376927
 20
-14.9741613697
 10
-116.8575280773
 20
-15.2626229082
 10
-116.4939463466
 20
-15.587142139
 10
-116.0913021158
 20
-15.9417094467
 10
-116.0913021158
 20
-15.9417094467
 10
-115.7126963466
 20
-16.2692334851
 10
-115.3731530773
 20
-16.563704639
 10
-115.0726723081
 20
-16.8281277159
 10
-114.8112540389
 20
-17.0594979082
 10
-114.5888982696
 20
-17.2608200236
 10
-114.4086098081
 20
-17.4290892544
 10
-114.2643790389
 20
-17.5673104082
 10
-114.1592107696
 20
-17.6724786774
 10
-114.1592107696
 20
-17.6724786774
 10
-113.7685857696
 20
-18.1081757928
 10
-113.4380569235
 20
-18.5348584851
 10
-113.1706290389
 20
-18.9495219467
 10
-112.9632973081
 20
-19.3581757928
 10
-112.8070473081
 20
-19.7698344467
 10
-112.6958694235
 20
-20.196517139
 10
-112.6297636543
 20
-20.6472382928
 10
-112.6087300004
 20
-21.1129834851
 10
-112.6087300004
 20
-21.1129834851
 10
-112.6267588466
 20
-21.5667094467
 10
-112.6868550004
 20
-21.9994017544
 10
-112.7830088466
 20
-22.4140652159
 10
-112.9212300004
 20
-22.8046902159
 10
-113.0955088466
 20
-23.1772863697
 10
-113.3118550004
 20
-23.5318536774
 10
-113.5642588466
 20
-23.8623825236
 10
-113.8587300004
 20
-24.1748825236
 10
-114.1832492312
 20
-24.4573344467
 10
-114.5288021158
 20
-24.7037286774
 10
-114.9013982696
 20
-24.9110604082
 10
-115.2950280773
 20
-25.079329639
 10
-115.7157011543
 20
-25.2115411774
 10
-116.157407885
 20
-25.3076950236
 10
-116.6231530773
 20
-25.3647863697
 10
-117.1129367312
 20
-25.3828152159
 10
-117.1129367312
 20
-25.3828152159
 10
-117.4975521158
 20
-25.3707959851
 10
-117.8731530773
 20
-25.3347382928
 10
-118.2337300004
 20
-25.274642139
 10
-118.579282885
 20
-25.1905075236
 10
-118.9158213466
 20
-25.0823344467
 10
-119.2403405773
 20
-24.9501229082
 10
-119.5498357696
 20
-24.7938729082
 10
-119.8473117312
 20
-24.6135844467
 10
-120.1327684619
 20
-24.4062527159
 10
-120.4092107696
 20
-24.1718777159
 10
-120.6736338466
 20
-23.9104594467
 10
-120.9260376927
 20
-23.6219979082
 10
-121.1694271158
 20
-23.3034882928
 10
-121.4038021158
 20
-22.9609402159
 10
-121.626157885
 20
-22.5883440621
 10
-121.8394992312
 20
-22.188704639
 10
-121.8394992312
 20
-22.188704639
 10
-119.4717107696
 20
-20.7674306005
 10
-119.4717107696
 20
-20.7674306005
 10
-119.2012780773
 20
-21.2181517544
 10
-118.9188261543
 20
-21.6087767544
 10
-118.6273598081
 20
-21.9393056005
 10
-118.3238742312
 20
-22.2097382928
 10
-118.0113742312
 20
-22.4200748313
 10
-117.6898598081
 20
-22.5703152159
 10
-117.3563261543
 20
-22.6604594467
 10
-117.0137780773
 20
-22.6905075236
 10
-117.0137780773
 20
-22.6905075236
 10
-116.665220385
 20
-22.6634642544
 10
-116.3467107696
 20
-22.5823344467
 10
-116.0582492312
 20
-22.4501229082
 10
-115.7968309619
 20
-22.2608200236
 10
-115.5804848081
 20
-22.0384642544
 10
-115.4242348081
 20
-21.798079639
 10
-115.3310857696
 20
-21.5426709851
 10
-115.3010376927
 20
-21.2692334851
 10
-115.3010376927
 20
-21.2692334851
 10
-115.3250761543
 20
-21.0138248313
 10
-115.3941867312
 20
-20.7584161774
 10
-115.5083694235
 20
-20.5030075236
 10
-115.6706290389
 20
-20.2475988697
 10
-115.7757973081
 20
-20.1123825236
 10
-115.9080088466
 20
-19.9591373313
 10
-116.0702684619
 20
-19.7878632928
 10
-116.2595713466
 20
-19.6015652159
 10
-116.4759175004
 20
-19.3972382928
 10
-116.7193069235
 20
-19.1748825236
 10
-116.9897396158
 20
-18.9375027159
 10
-117.290220385
 20
-18.6820940621
 10
-117.290220385
 20
-18.6820940621
 10
-117.8611338466
 20
-18.1953152159
 10
-118.3779607696
 20
-17.7385844467
 10
-118.8437059619
 20
-17.3088969467
 10
-119.2553646158
 20
-16.9062527159
 10
-119.6159415389
 20
-16.5336565621
 10
-119.9224319235
 20
-16.1911084851
 10
-120.1748357696
 20
-15.8756036774
 10
-120.376157885
 20
-15.5901469467
 10
-120.6796434619
 20
-15.0462767544
 10
-120.8959896158
 20
-14.5024065621
 10
-121.0282011543
 20
-13.9585363697
 10
-121.0702684619
 20
-13.4176709851
 10
-121.0702684619
 20
-13.4176709851
 10
-121.0522396158
 20
-13.0330556005
 10
-120.9981530773
 20
-12.6634642544
 10
-120.9110136543
 20
-12.305892139
 10
-120.7878165389
 20
-11.9633440621
 10
-120.6285617312
 20
-11.6358200236
 10
-120.4332492312
 20
-11.3203152159
 10
-120.2018790389
 20
-11.0198344467
 10
-119.9374559619
 20
-10.7343777159
 10
-119.6459896158
 20
-10.4729594467
 10
-119.3364944235
 20
-10.2445940621
 10
-119.0119751927
 20
-10.0522863697
 10
-118.6694271158
 20
-9.8930315621
 10
-118.3088501927
 20
-9.7698344467
 10
-117.9332492312
 20
-9.6826950236
 10
-117.5426242312
 20
-9.6316132928
 10
-117.133970385
 20
-9.6135844467
 10
-117.133970385
 20
-9.6135844467
 10
-116.6051242312
 20
-9.6466373313
 10
-116.0882973081
 20
-9.7427911774
 10
-115.5834896158
 20
-9.9020459851
 10
-115.0937059619
 20
-10.1274065621
 10
-114.8473117312
 20
-10.2686325236
 10
-114.5979126927
 20
-10.4369017544
 10
-114.3425040389
 20
-10.6322142544
 10
-114.0840905773
 20
-10.8515652159
 10
-113.8196675004
 20
-11.1009642544
 10
-113.5492348081
 20
-11.3744017544
 10
-113.2727925004
 20
-11.6748825236
 10
-112.993345385
 20
-12.0024065621
  0
LWPOLYLINE
  5
85
330
1F
100
AcDbEntity
  8
0
  6
Continuous
 62
     7
100
AcDbPolyline
 90
        8
 70
   128
 43
0.0
 10
-107.4933409691
 20
-9.9981998313
 10
-104.8010376927
 20
-9.9981998313
 10
-104.8010376927
 20
-9.9981998313
 10
-104.8010376927
 20
-24.9981998313
 10
-104.8010376927
 20
-24.9981998313
 10
-107.493345385
 20
-24.9981998313
 10
-107.493345385
 20
-24.9981998313
 10
-107.493345385
 20
-9.9981998313
  0
LWPOLYLINE
  5
86
330
1F
100
AcDbEntity
  8
0
  6
Continuous
 62
     7
100
AcDbPolyline
 90
       20
 70
   128
 43
0.0
 10
-98.5317826271
 20
-9.9981998313
 10
-96.1069271158
 20
-9.9981998313
 10
-96.1069271158
 20
-9.9981998313
 10
-89.3010376927
 20
-19.8689931005
 10
-89.3010376927
 20
-19.8689931005
 10
-89.3010376927
 20
-9.9981998313
 10
-89.3010376927
 20
-9.9981998313
 10
-86.6087300004
 20
-9.9981998313
 10
-86.6087300004
 20
-9.9981998313
 10
-86.6087300004
 20
-24.9981998313
 10
-86.6087300004
 20
-24.9981998313
 10
-89.0516386543
 20
-24.9981998313
 10
-89.0516386543
 20
-24.9981998313
 10
-95.8394992312
 20
-15.157454639
 10
-95.8394992312
 20
-15.157454639
 10
-95.8394992312
 20
-24.9981998313
 10
-95.8394992312
 20
-24.9981998313
 10
-98.5318069235
 20
-24.9981998313
 10
-98.5318069235
 20
-24.9981998313
 10
-98.5318069235
 20
-9.9981998313
  0
LWPOLYLINE
  5
87
330
1F
100
AcDbEntity
  8
0
  6
Continuous
 62
     7
100
AcDbPolyline
 90
      124
 70
   128
 43
0.0
 10
-64.5364522934
 20
-82.800277614
 10
-65.1364567829
 20
-82.7859918997
 10
-65.7078853543
 20
-82.7359918997
 10
-66.2578853543
 20
-82.6574204711
 10
-66.7793139257
 20
-82.550277614
 10
-67.2793139257
 20
-82.4074204711
 10
-67.7507424971
 20
-82.2359918997
 10
-68.2007424971
 20
-82.0324204711
 10
-68.6221710686
 20
-81.7967061854
 10
-69.01859964
 20
-81.5324204711
 10
-69.3900282114
 20
-81.2431347568
 10
-69.7328853543
 20
-80.925277614
 10
-70.0507424971
 20
-80.5859918997
 10
-70.34359964
 20
-80.2181347568
 10
-70.6078853543
 20
-79.8217061854
 10
-70.8471710686
 20
-79.4038490425
 10
-71.0578853543
 20
-78.9574204711
 10
-71.24359964
 20
-78.4859918997
 10
-71.4043139257
 20
-77.9967061854
 10
-71.5400282114
 20
-77.4859918997
 10
-71.6507424971
 20
-76.9538490425
 10
-71.7400282114
 20
-76.400277614
 10
-71.8007424971
 20
-75.8288490425
 10
-71.8400282114
 20
-75.2359918997
 10
-71.8507424971
 20
-74.6217061854
 10
-71.8507424971
 20
-74.6217061854
 10
-71.8364567829
 20
-73.9145633283
 10
-71.7864567829
 20
-73.2431347568
 10
-71.7078853543
 20
-72.600277614
 10
-71.5971710686
 20
-71.9931347568
 10
-71.4543139257
 20
-71.4145633283
 10
-71.2793139257
 20
-70.8717061854
 10
-71.0757424971
 20
-70.3609918997
 10
-70.8364567829
 20
-69.8824204711
 10
-70.5721710686
 20
-69.4359918997
 10
-70.2900282114
 20
-69.0217061854
 10
-69.9864567829
 20
-68.6359918997
 10
-69.6650282114
 20
-68.2824204711
 10
-69.3257424971
 20
-67.9645633283
 10
-68.9650282114
 20
-67.675277614
 10
-68.5828853543
 20
-67.4145633283
 10
-68.1828853543
 20
-67.1895633283
 10
-67.76859964
 20
-66.9895633283
 10
-67.34359964
 20
-66.8181347568
 10
-66.9078853543
 20
-66.675277614
 10
-66.4650282114
 20
-66.5538490425
 10
-66.0114567829
 20
-66.4609918997
 10
-65.5471710686
 20
-66.3967061854
 10
-65.0721710686
 20
-66.3574204711
 10
-64.5900282114
 20
-66.3431347568
 10
-64.5900282114
 20
-66.3431347568
 10
-63.8578853543
 20
-66.3645633283
 10
-63.1543139257
 20
-66.4359918997
 10
-62.4828853543
 20
-66.550277614
 10
-61.8400282114
 20
-66.7109918997
 10
-61.2150282114
 20
-66.9145633283
 10
-60.6078853543
 20
-67.1645633283
 10
-60.0114567829
 20
-67.4538490425
 10
-59.4293139257
 20
-67.7895633283
 10
-59.4293139257
 20
-67.7895633283
 10
-60.4114567829
 20
-69.5038490425
 10
-60.4114567829
 20
-69.5038490425
 10
-60.89359964
 20
-69.2145633283
 10
-61.3828853543
 20
-68.9645633283
 10
-61.8828853543
 20
-68.750277614
 10
-62.3900282114
 20
-68.575277614
 10
-62.9043139257
 20
-68.4431347568
 10
-63.4293139257
 20
-68.3467061854
 10
-63.9614567829
 20
-68.2859918997
 10
-64.5043139257
 20
-68.2681347568
 10
-64.5043139257
 20
-68.2681347568
 10
-65.1221710686
 20
-68.2931347568
 10
-65.6971710686
 20
-68.3717061854
 10
-66.2293139257
 20
-68.5038490425
 10
-66.71859964
 20
-68.6859918997
 10
-67.16859964
 20
-68.9217061854
 10
-67.5793139257
 20
-69.2109918997
 10
-67.94359964
 20
-69.550277614
 10
-68.26859964
 20
-69.9431347568
 10
-68.5507424971
 20
-70.3824204711
 10
-68.7971710686
 20
-70.8574204711
 10
-69.0078853543
 20
-71.3681347568
 10
-69.1757424971
 20
-71.9181347568
 10
-69.3078853543
 20
-72.5074204711
 10
-69.4043139257
 20
-73.1324204711
 10
-69.4614567829
 20
-73.7967061854
 10
-69.4793139257
 20
-74.4967061854
 10
-69.4793139257
 20
-74.4967061854
 10
-69.4578853543
 20
-75.2217061854
 10
-69.4007424971
 20
-75.9074204711
 10
-69.3007424971
 20
-76.5538490425
 10
-69.1614567829
 20
-77.1574204711
 10
-68.9828853543
 20
-77.725277614
 10
-68.7614567829
 20
-78.250277614
 10
-68.5043139257
 20
-78.7324204711
 10
-68.2043139257
 20
-79.1788490425
 10
-67.8650282114
 20
-79.575277614
 10
-67.4900282114
 20
-79.9217061854
 10
-67.0793139257
 20
-80.2109918997
 10
-66.6293139257
 20
-80.450277614
 10
-66.1400282114
 20
-80.6359918997
 10
-65.6150282114
 20
-80.7681347568
 10
-65.0543139257
 20
-80.850277614
 10
-64.4543139257
 20
-80.875277614
 10
-64.4543139257
 20
-80.875277614
 10
-63.84359964
 20
-80.8538490425
 10
-63.2614567829
 20
-80.7931347568
 10
-62.7150282114
 20
-80.6931347568
 10
-62.1971710686
 20
-80.550277614
 10
-61.69359964
 20
-80.3681347568
 10
-61.1900282114
 20
-80.1538490425
 10
-60.6900282114
 20
-79.9038490425
 10
-60.1864567829
 20
-79.6181347568
 10
-60.1864567829
 20
-79.6181347568
 10
-59.2793139257
 20
-81.2574204711
 10
-59.2793139257
 20
-81.2574204711
 10
-59.9221710686
 20
-81.6145633283
 10
-60.5614567829
 20
-81.925277614
 10
-61.1900282114
 20
-82.1931347568
 10
-61.8114567829
 20
-82.4109918997
 10
-62.44359964
 20
-82.5824204711
 10
-63.1114567829
 20
-82.7038490425
 10
-63.8078853543
 20
-82.775277614
 10
-64.5364567829
 20
-82.800277614
  0
LWPOLYLINE
  5
88
330
1F
100
AcDbEntity
  8
0
  6
Continuous
 62
     7
100
AcDbPolyline
 90
       88
 70
   128
 43
0.0
 10
-45.4778671265
 20
-77.5431347568
 10
-52.9064567829
 20
-77.5431347568
 10
-52.9064567829
 20
-77.5431347568
 10
-52.88859964
 20
-77.9788490425
 10
-52.8421710686
 20
-78.3824204711
 10
-52.7707424971
 20
-78.7538490425
 10
-52.6707424971
 20
-79.0967061854
 10
-52.5457424971
 20
-79.4109918997
 10
-52.3957424971
 20
-79.6895633283
 10
-52.2171710686
 20
-79.9395633283
 10
-52.01359964
 20
-80.1609918997
 10
-51.78859964
 20
-80.350277614
 10
-51.5457424971
 20
-80.5181347568
 10
-51.28859964
 20
-80.6574204711
 10
-51.0171710686
 20
-80.7717061854
 10
-50.7278853543
 20
-80.8609918997
 10
-50.4243139257
 20
-80.925277614
 10
-50.1064567829
 20
-80.9609918997
 10
-49.7707424971
 20
-80.975277614
 10
-49.7707424971
 20
-80.975277614
 10
-49.2957424971
 20
-80.9609918997
 10
-48.8564567829
 20
-80.9181347568
 10
-48.4457424971
 20
-80.850277614
 10
-48.0707424971
 20
-80.7538490425
 10
-47.6993139257
 20
-80.625277614
 10
-47.3064567829
 20
-80.4681347568
 10
-46.8957424971
 20
-80.2788490425
 10
-46.46359964
 20
-80.0574204711
 10
-46.46359964
 20
-80.0574204711
 10
-45.6564567829
 20
-81.525277614
 10
-45.6564567829
 20
-81.525277614
 10
-46.1600282114
 20
-81.825277614
 10
-46.6707424971
 20
-82.0824204711
 10
-47.18859964
 20
-82.3038490425
 10
-47.7100282114
 20
-82.4824204711
 10
-48.2421710686
 20
-82.6217061854
 10
-48.7743139257
 20
-82.7217061854
 10
-49.3171710686
 20
-82.7788490425
 10
-49.86359964
 20
-82.800277614
 10
-49.86359964
 20
-82.800277614
 10
-50.4350282114
 20
-82.7788490425
 10
-50.9778853543
 20
-82.7181347568
 10
-51.4921710686
 20
-82.6181347568
 10
-51.9778853543
 20
-82.475277614
 10
-52.4314567829
 20
-82.2931347568
 10
-52.8564567829
 20
-82.0717061854
 10
-53.2528853543
 20
-81.8074204711
 10
-53.6207424971
 20
-81.5038490425
 10
-53.9493139257
 20
-81.1574204711
 10
-54.2350282114
 20
-80.7609918997
 10
-54.4778853543
 20
-80.3181347568
 10
-54.6743139257
 20
-79.8288490425
 10
-54.8314567829
 20
-79.2895633283
 10
-54.93859964
 20
-78.7038490425
 10
-55.0064567829
 20
-78.0717061854
 10
-55.0278853543
 20
-77.3931347568
 10
-55.0278853543
 20
-77.3931347568
 10
-54.9921710686
 20
-76.6109918997
 10
-54.8814567829
 20
-75.8645633283
 10
-54.6993139257
 20
-75.1574204711
 10
-54.4457424971
 20
-74.4859918997
 10
-54.1171710686
 20
-73.8645633283
 10
-53.7171710686
 20
-73.3074204711
 10
-53.2457424971
 20
-72.8145633283
 10
-52.7028853543
 20
-72.3895633283
 10
-52.4028853543
 20
-72.2038490425
 10
-52.08859964
 20
-72.0431347568
 10
-51.7600282114
 20
-71.9074204711
 10
-51.41359964
 20
-71.7967061854
 10
-51.0493139257
 20
-71.7109918997
 10
-50.6707424971
 20
-71.650277614
 10
-50.2743139257
 20
-71.6109918997
 10
-49.86359964
 20
-71.600277614
 10
-49.86359964
 20
-71.600277614
 10
-49.1814567829
 20
-71.6359918997
 10
-48.5528853543
 20
-71.7431347568
 10
-47.9778853543
 20
-71.9181347568
 10
-47.4528853543
 20
-72.1681347568
 10
-46.9850282114
 20
-72.4788490425
 10
-46.5743139257
 20
-72.8431347568
 10
-46.2278853543
 20
-73.2574204711
 10
-45.9421710686
 20
-73.7288490425
 10
-45.7171710686
 20
-74.2431347568
 10
-45.5564567829
 20
-74.7895633283
 10
-45.4600282114
 20
-75.375277614
 10
-45.4278853543
 20
-75.9967061854
 10
-45.4278853543
 20
-75.9967061854
 10
-45.4778853543
 20
-77.5431347568
  0
LWPOLYLINE
  5
89
330
1F
100
AcDbEntity
  8
0
  6
Continuous
 62
     7
100
AcDbPolyline
 90
       30
 70
   128
 43
0.0
 10
-49.8885810375
 20
-73.2788490425
 10
-50.1921710686
 20
-73.2895633283
 10
-50.4778853543
 20
-73.325277614
 10
-50.7457424971
 20
-73.3824204711
 10
-50.9957424971
 20
-73.4609918997
 10
-51.2314567829
 20
-73.5609918997
 10
-51.4528853543
 20
-73.6859918997
 10
-51.6528853543
 20
-73.8324204711
 10
-51.83859964
 20
-74.0038490425
 10
-52.1600282114
 20
-74.400277614
 10
-52.4207424971
 20
-74.8609918997
 10
-52.6171710686
 20
-75.3931347568
 10
-52.7564567829
 20
-75.9895633283
 10
-52.7564567829
 20
-75.9895633283
 10
-47.5493139257
 20
-75.9895633283
 10
-47.5493139257
 20
-75.9895633283
 10
-47.5493139257
 20
-75.8967061854
 10
-47.5493139257
 20
-75.8967061854
 10
-47.5600282114
 20
-75.5788490425
 10
-47.58859964
 20
-75.2824204711
 10
-47.6350282114
 20
-75.0074204711
 10
-47.7028853543
 20
-74.750277614
 10
-47.78859964
 20
-74.5145633283
 10
-47.8921710686
 20
-74.300277614
 10
-48.0171710686
 20
-74.1074204711
 10
-48.1600282114
 20
-73.9324204711
 10
-48.4957424971
 20
-73.6467061854
 10
-48.8957424971
 20
-73.4431347568
 10
-49.3600282114
 20
-73.3181347568
 10
-49.88859964
 20
-73.2788490425
  0
LWPOLYLINE
  5
8A
330
1F
100
AcDbEntity
  8
0
  6
Continuous
 62
     7
100
AcDbPolyline
 90
       40
 70
   128
 43
0.0
 10
-34.6300005913
 20
-71.600277614
 10
-34.2443139257
 20
-71.6109918997
 10
-33.8943139257
 20
-71.650277614
 10
-33.5478853543
 20
-71.7109918997
 10
-33.1764567829
 20
-71.7967061854
 10
-33.1764567829
 20
-71.7967061854
 10
-33.55859964
 20
-73.9967061854
 10
-33.55859964
 20
-73.9967061854
 10
-33.9550282114
 20
-73.8681347568
 10
-34.33359964
 20
-73.775277614
 10
-34.6943139257
 20
-73.7181347568
 10
-35.0371710686
 20
-73.700277614
 10
-35.0371710686
 20
-73.700277614
 10
-35.40859964
 20
-73.7217061854
 10
-35.7693139257
 20
-73.7859918997
 10
-36.1121710686
 20
-73.8931347568
 10
-36.4443139257
 20
-74.0431347568
 10
-36.7621710686
 20
-74.250277614
 10
-37.0764567829
 20
-74.5324204711
 10
-37.38359964
 20
-74.8931347568
 10
-37.68359964
 20
-75.3288490425
 10
-37.68359964
 20
-75.3288490425
 10
-37.68359964
 20
-82.5717061854
 10
-37.68359964
 20
-82.5717061854
 10
-39.8050282114
 20
-82.5717061854
 10
-39.8050282114
 20
-82.5717061854
 10
-39.8050282114
 20
-71.8217061854
 10
-39.8050282114
 20
-71.8217061854
 10
-37.68359964
 20
-71.600277614
 10
-37.68359964
 20
-71.600277614
 10
-37.68359964
 20
-73.1859918997
 10
-37.68359964
 20
-73.1859918997
 10
-37.3728853543
 20
-72.8181347568
 10
-37.0407424971
 20
-72.500277614
 10
-36.68359964
 20
-72.2288490425
 10
-36.3014567829
 20
-72.0038490425
 10
-35.9014567829
 20
-71.8288490425
 10
-35.4871710686
 20
-71.700277614
 10
-35.0657424971
 20
-71.625277614
 10
-34.6300282114
 20
-71.600277614
  0
LWPOLYLINE
  5
8B
330
1F
100
AcDbEntity
  8
0
  6
Continuous
 62
     7
100
AcDbPolyline
 90
       28
 70
   128
 43
0.0
 10
-18.867880106
 20
-71.8288490425
 10
-18.8678853543
 20
-71.975277614
 10
-18.8678853543
 20
-71.975277614
 10
-23.2107424971
 20
-82.5717061854
 10
-23.2107424971
 20
-82.5717061854
 10
-25.1714567829
 20
-82.5717061854
 10
-25.1714567829
 20
-82.5717061854
 10
-29.6107424971
 20
-71.975277614
 10
-29.6107424971
 20
-71.975277614
 10
-29.6107424971
 20
-71.8288490425
 10
-29.6107424971
 20
-71.8288490425
 10
-27.27859964
 20
-71.8288490425
 10
-27.27859964
 20
-71.8288490425
 10
-24.6500282114
 20
-78.7467061854
 10
-24.6500282114
 20
-78.7467061854
 10
-24.5857424971
 20
-78.9074204711
 10
-24.5000282114
 20
-79.150277614
 10
-24.3857424971
 20
-79.4717061854
 10
-24.2500282114
 20
-79.875277614
 10
-24.2500282114
 20
-79.875277614
 10
-24.10359964
 20
-80.3395633283
 10
-24.10359964
 20
-80.3395633283
 10
-23.8464567829
 20
-79.525277614
 10
-23.5821710686
 20
-78.7467061854
 10
-23.5821710686
 20
-78.7467061854
 10
-21.1000282114
 20
-71.8288490425
 10
-21.1000282114
 20
-71.8288490425
 10
-18.8678853543
 20
-71.8288490425
  0
LWPOLYLINE
  5
8C
330
1F
100
AcDbEntity
  8
0
  6
Continuous
 62
     7
100
AcDbPolyline
 90
       88
 70
   128
 43
0.0
 10
-5.2950270474
 20
-77.5431347568
 10
-12.72359964
 20
-77.5431347568
 10
-12.72359964
 20
-77.5431347568
 10
-12.7057424971
 20
-77.9788490425
 10
-12.6593139257
 20
-78.3824204711
 10
-12.5878853543
 20
-78.7538490425
 10
-12.4878853543
 20
-79.0967061854
 10
-12.3628853543
 20
-79.4109918997
 10
-12.2128853543
 20
-79.6895633283
 10
-12.0343139257
 20
-79.9395633283
 10
-11.8307424971
 20
-80.1609918997
 10
-11.6057424971
 20
-80.350277614
 10
-11.3628853543
 20
-80.5181347568
 10
-11.1057424971
 20
-80.6574204711
 10
-10.8343139257
 20
-80.7717061854
 10
-10.5450282114
 20
-80.8609918997
 10
-10.2414567829
 20
-80.925277614
 10
-9.92359964
 20
-80.9609918997
 10
-9.5878853543
 20
-80.975277614
 10
-9.5878853543
 20
-80.975277614
 10
-9.1128853543
 20
-80.9609918997
 10
-8.67359964
 20
-80.9181347568
 10
-8.2628853543
 20
-80.850277614
 10
-7.8878853543
 20
-80.7538490425
 10
-7.5164567829
 20
-80.625277614
 10
-7.12359964
 20
-80.4681347568
 10
-6.7128853543
 20
-80.2788490425
 10
-6.2807424971
 20
-80.0574204711
 10
-6.2807424971
 20
-80.0574204711
 10
-5.47359964
 20
-81.525277614
 10
-5.47359964
 20
-81.525277614
 10
-5.9771710686
 20
-81.825277614
 10
-6.4878853543
 20
-82.0824204711
 10
-7.0057424971
 20
-82.3038490425
 10
-7.5271710686
 20
-82.4824204711
 10
-8.0593139257
 20
-82.6217061854
 10
-8.5914567829
 20
-82.7217061854
 10
-9.1343139257
 20
-82.7788490425
 10
-9.6807424971
 20
-82.800277614
 10
-9.6807424971
 20
-82.800277614
 10
-10.2521710686
 20
-82.7788490425
 10
-10.7950282114
 20
-82.7181347568
 10
-11.3093139257
 20
-82.6181347568
 10
-11.7950282114
 20
-82.475277614
 10
-12.24859964
 20
-82.2931347568
 10
-12.67359964
 20
-82.0717061854
 10
-13.0700282114
 20
-81.8074204711
 10
-13.4378853543
 20
-81.5038490425
 10
-13.7664567829
 20
-81.1574204711
 10
-14.0521710686
 20
-80.7609918997
 10
-14.2950282114
 20
-80.3181347568
 10
-14.4914567829
 20
-79.8288490425
 10
-14.64859964
 20
-79.2895633283
 10
-14.7557424971
 20
-78.7038490425
 10
-14.82359964
 20
-78.0717061854
 10
-14.8450282114
 20
-77.3931347568
 10
-14.8450282114
 20
-77.3931347568
 10
-14.8093139257
 20
-76.6109918997
 10
-14.69859964
 20
-75.8645633283
 10
-14.5164567829
 20
-75.1574204711
 10
-14.2628853543
 20
-74.4859918997
 10
-13.9343139257
 20
-73.8645633283
 10
-13.5343139257
 20
-73.3074204711
 10
-13.0628853543
 20
-72.8145633283
 10
-12.5200282114
 20
-72.3895633283
 10
-12.2200282114
 20
-72.2038490425
 10
-11.9057424971
 20
-72.0431347568
 10
-11.5771710686
 20
-71.9074204711
 10
-11.2307424971
 20
-71.7967061854
 10
-10.8664567829
 20
-71.7109918997
 10
-10.4878853543
 20
-71.650277614
 10
-10.0914567829
 20
-71.6109918997
 10
-9.6807424971
 20
-71.600277614
 10
-9.6807424971
 20
-71.600277614
 10
-8.99859964
 20
-71.6359918997
 10
-8.3700282114
 20
-71.7431347568
 10
-7.7950282114
 20
-71.9181347568
 10
-7.2700282114
 20
-72.1681347568
 10
-6.8021710686
 20
-72.4788490425
 10
-6.3914567829
 20
-72.8431347568
 10
-6.0450282114
 20
-73.2574204711
 10
-5.7593139257
 20
-73.7288490425
 10
-5.5343139257
 20
-74.2431347568
 10
-5.37359964
 20
-74.7895633283
 10
-5.2771710686
 20
-75.375277614
 10
-5.2450282114
 20
-75.9967061854
 10
-5.2450282114
 20
-75.9967061854
 10
-5.2950282114
 20
-77.5431347568
  0
LWPOLYLINE
  5
8D
330
1F
100
AcDbEntity
  8
0
  6
Continuous
 62
     7
100
AcDbPolyline
 90
       30
 70
   128
 43
0.0
 10
-9.7057372332
 20
-73.2788490425
 10
-10.0093139257
 20
-73.2895633283
 10
-10.2950282114
 20
-73.325277614
 10
-10.5628853543
 20
-73.3824204711
 10
-10.8128853543
 20
-73.4609918997
 10
-11.04859964
 20
-73.5609918997
 10
-11.2700282114
 20
-73.6859918997
 10
-11.4700282114
 20
-73.8324204711
 10
-11.6557424971
 20
-74.0038490425
 10
-11.9771710686
 20
-74.400277614
 10
-12.2378853543
 20
-74.8609918997
 10
-12.4343139257
 20
-75.3931347568
 10
-12.57359964
 20
-75.9895633283
 10
-12.57359964
 20
-75.9895633283
 10
-7.3664567829
 20
-75.9895633283
 10
-7.3664567829
 20
-75.9895633283
 10
-7.3664567829
 20
-75.8967061854
 10
-7.3664567829
 20
-75.8967061854
 10
-7.3771710686
 20
-75.5788490425
 10
-7.4057424971
 20
-75.2824204711
 10
-7.4521710686
 20
-75.0074204711
 10
-7.5200282114
 20
-74.750277614
 10
-7.6057424971
 20
-74.5145633283
 10
-7.7093139257
 20
-74.300277614
 10
-7.8343139257
 20
-74.1074204711
 10
-7.9771710686
 20
-73.9324204711
 10
-8.3128853543
 20
-73.6467061854
 10
-8.7128853543
 20
-73.4431347568
 10
-9.1771710686
 20
-73.3181347568
 10
-9.7057424971
 20
-73.2788490425
  0
LWPOLYLINE
  5
8E
330
1F
100
AcDbEntity
  8
0
  6
Continuous
 62
     7
100
AcDbPolyline
 90
       20
 70
   128
 43
0.0
 10
2.2385418415
 20
-80.7467061854
 10
8.1492575029
 20
-80.7467061854
 10
8.1492575029
 20
-80.7467061854
 10
8.1492575029
 20
-82.5717061854
 10
8.1492575029
 20
-82.5717061854
 10
-0.7650282114
 20
-82.5717061854
 10
-0.7650282114
 20
-82.5717061854
 10
-0.7650282114
 20
-81.6109918997
 10
-0.7650282114
 20
-81.6109918997
 10
5.1956860743
 20
-73.6538490425
 10
5.1956860743
 20
-73.6538490425
 10
-0.3078853543
 20
-73.6538490425
 10
-0.3078853543
 20
-73.6538490425
 10
-0.0650282114
 20
-71.8288490425
 10
-0.0650282114
 20
-71.8288490425
 10
8.1492575029
 20
-71.8288490425
 10
8.1492575029
 20
-71.8288490425
 10
8.1492575029
 20
-72.7645633283
 10
8.1492575029
 20
-72.7645633283
 10
2.2385432171
 20
-80.7467061854
  0
LWPOLYLINE
  5
8F
330
1F
100
AcDbEntity
  8
0
  6
Continuous
 62
     7
100
AcDbPolyline
 90
       93
 70
   128
 43
0.0
 10
17.9042518139
 20
-71.600277614
 10
18.3721146457
 20
-71.6145633283
 10
18.81140036
 20
-71.6538490425
 10
19.2185432171
 20
-71.7217061854
 10
19.5971146457
 20
-71.8145633283
 10
19.9435432171
 20
-71.9324204711
 10
20.26140036
 20
-72.0788490425
 10
20.5471146457
 20
-72.2538490425
 10
20.8042575029
 20
-72.4538490425
 10
21.0328289314
 20
-72.6824204711
 10
21.2292575029
 20
-72.9431347568
 10
21.3935432171
 20
-73.2324204711
 10
21.5292575029
 20
-73.550277614
 10
21.63640036
 20
-73.900277614
 10
21.71140036
 20
-74.2824204711
 10
21.7578289314
 20
-74.6931347568
 10
21.7721146457
 20
-75.1359918997
 10
21.7721146457
 20
-75.1359918997
 10
21.7721146457
 20
-82.5717061854
 10
21.7721146457
 20
-82.5717061854
 10
19.8471146457
 20
-82.5717061854
 10
19.8471146457
 20
-82.5717061854
 10
19.7256860743
 20
-81.575277614
 10
19.7256860743
 20
-81.575277614
 10
19.2828289314
 20
-81.8609918997
 10
18.8221146457
 20
-82.1109918997
 10
18.3435432171
 20
-82.3217061854
 10
17.8506860743
 20
-82.4931347568
 10
17.3399717886
 20
-82.6288490425
 10
16.81140036
 20
-82.725277614
 10
16.2685432171
 20
-82.7824204711
 10
15.7078289314
 20
-82.800277614
 10
15.7078289314
 20
-82.800277614
 10
15.2399717886
 20
-82.7788490425
 10
14.8006860743
 20
-82.7109918997
 10
14.3828289314
 20
-82.600277614
 10
13.9899717886
 20
-82.4467061854
 10
13.6328289314
 20
-82.250277614
 10
13.3185432171
 20
-82.0181347568
 10
13.0435432171
 20
-81.7467061854
 10
12.8149717886
 20
-81.4431347568
 10
12.6328289314
 20
-81.1074204711
 10
12.5042575029
 20
-80.7467061854
 10
12.4256860743
 20
-80.3645633283
 10
12.4006860743
 20
-79.9609918997
 10
12.4006860743
 20
-79.9609918997
 10
12.4149717886
 20
-79.6288490425
 10
12.46140036
 20
-79.3145633283
 10
12.5399717886
 20
-79.0109918997
 10
12.6471146457
 20
-78.725277614
 10
12.78640036
 20
-78.450277614
 10
12.9542575029
 20
-78.1931347568
 10
13.1542575029
 20
-77.9467061854
 10
13.38640036
 20
-77.7181347568
 10
13.9185432171
 20
-77.300277614
 10
14.53640036
 20
-76.9431347568
 10
15.2328289314
 20
-76.6467061854
 10
16.01140036
 20
-76.4109918997
 10
16.8542575029
 20
-76.225277614
 10
17.7435432171
 20
-76.0859918997
 10
18.6756860743
 20
-75.9895633283
 10
19.6506860743
 20
-75.9431347568
 10
19.6506860743
 20
-75.9431347568
 10
19.6506860743
 20
-75.4288490425
 10
19.6506860743
 20
-75.4288490425
 10
19.6221146457
 20
-74.9395633283
 10
19.53640036
 20
-74.525277614
 10
19.3935432171
 20
-74.1788490425
 10
19.1935432171
 20
-73.9038490425
 10
18.9256860743
 20
-73.6931347568
 10
18.5828289314
 20
-73.5431347568
 10
18.1578289314
 20
-73.4538490425
 10
17.6542575029
 20
-73.425277614
 10
17.6542575029
 20
-73.425277614
 10
17.1899717886
 20
-73.4431347568
 10
16.7221146457
 20
-73.500277614
 10
16.2506860743
 20
-73.5931347568
 10
15.7756860743
 20
-73.7217061854
 10
15.2935432171
 20
-73.8859918997
 10
14.8042575029
 20
-74.0895633283
 10
14.3149717886
 20
-74.3288490425
 10
13.8185432171
 20
-74.6074204711
 10
13.8185432171
 20
-74.6074204711
 10
12.8578289314
 20
-73.175277614
 10
12.8578289314
 20
-73.175277614
 10
13.4649717886
 20
-72.8074204711
 10
14.0756860743
 20
-72.4859918997
 10
14.6971146457
 20
-72.2145633283
 10
15.3256860743
 20
-71.9931347568
 10
15.9578289314
 20
-71.8217061854
 10
16.6006860743
 20
-71.700277614
 10
17.2471146457
 20
-71.625277614
 10
17.9042575029
 20
-71.600277614
  0
LWPOLYLINE
  5
90
330
1F
100
AcDbEntity
  8
0
  6
Continuous
 62
     7
100
AcDbPolyline
 90
       37
 70
   128
 43
0.0
 10
14.6721079946
 20
-79.7181347568
 10
14.6971146457
 20
-80.0109918997
 10
14.7721146457
 20
-80.2681347568
 10
14.8935432171
 20
-80.4824204711
 10
15.0685432171
 20
-80.6609918997
 10
15.2899717886
 20
-80.7967061854
 10
15.5649717886
 20
-80.8967061854
 10
15.8828289314
 20
-80.9538490425
 10
16.2542575029
 20
-80.975277614
 10
16.2542575029
 20
-80.975277614
 10
16.68640036
 20
-80.9609918997
 10
17.1185432171
 20
-80.9145633283
 10
17.5471146457
 20
-80.8395633283
 10
17.9721146457
 20
-80.7324204711
 10
18.3935432171
 20
-80.5967061854
 10
18.8149717886
 20
-80.4288490425
 10
19.2328289314
 20
-80.2324204711
 10
19.6506860743
 20
-80.0038490425
 10
19.6506860743
 20
-80.0038490425
 10
19.6506860743
 20
-77.4967061854
 10
19.6506860743
 20
-77.4967061854
 10
19.1078289314
 20
-77.5288490425
 10
18.5935432171
 20
-77.575277614
 10
18.1042575029
 20
-77.6324204711
 10
17.6399717886
 20
-77.7074204711
 10
17.2042575029
 20
-77.7967061854
 10
16.7935432171
 20
-77.900277614
 10
16.4078289314
 20
-78.0181347568
 10
16.0506860743
 20
-78.150277614
 10
15.7292575029
 20
-78.2967061854
 10
15.4471146457
 20
-78.4574204711
 10
15.21140036
 20
-78.6288490425
 10
15.0185432171
 20
-78.8181347568
 10
14.8649717886
 20
-79.0217061854
 10
14.7578289314
 20
-79.2395633283
 10
14.6935432171
 20
-79.4717061854
 10
14.6721146457
 20
-79.7181347568
  0
POINT
  5
91
330
1F
100
AcDbEntity
  8
0
  6
Continuous
 62
     7
100
AcDbPoint
 10
0.0
 20
0.0
 30
0.0
  0
ENDSEC
  0
SECTION
  2
OBJECTS
  0
DICTIONARY
  5
C
330
0
100
AcDbDictionary
281
     1
  3
ACAD_GROUP
350
D
  3
ACAD_LAYOUT
350
1A
  3
ACAD_MLINESTYLE
350
17
  3
ACAD_PLOTSETTINGS
350
19
  3
ACAD_PLOTSTYLENAME
350
E
  3
ACAD_SCALELIST
350
47
  3
DWGPROPS
350
92
  0
DICTIONARY
  5
D
102
{ACAD_REACTORS
330
C
102
}
330
C
100
AcDbDictionary
281
     1
  0
DICTIONARY
  5
1A
102
{ACAD_REACTORS
330
C
102
}
330
C
100
AcDbDictionary
281
     1
  3
Layout1
350
1E
  3
Layout2
350
26
  3
Model
350
22
  0
DICTIONARY
  5
17
102
{ACAD_REACTORS
330
C
102
}
330
C
100
AcDbDictionary
281
     1
  3
Standard
350
18
  0
DICTIONARY
  5
19
102
{ACAD_REACTORS
330
C
102
}
330
C
100
AcDbDictionary
281
     1
  0
ACDBDICTIONARYWDFLT
  5
E
102
{ACAD_REACTORS
330
C
102
}
330
C
100
AcDbDictionary
281
     1
  3
Normal
350
F
100
AcDbDictionaryWithDefault
340
F
  0
DICTIONARY
  5
47
102
{ACAD_REACTORS
330
C
102
}
330
C
100
AcDbDictionary
281
     1
  3
A0
350
48
  3
A1
350
49
  3
A2
350
4A
  3
A3
350
4B
  3
A4
350
4C
  3
A5
350
4D
  3
A6
350
4E
  3
A7
350
4F
  3
A8
350
50
  3
A9
350
51
  3
B0
350
52
  3
B1
350
53
  3
B2
350
54
  3
B3
350
55
  3
B4
350
56
  3
B5
350
57
  3
B6
350
58
  0
XRECORD
  5
92
102
{ACAD_REACTORS
330
C
102
}
330
C
100
AcDbXrecord
280
     1
  1
DWGPROPS COOKIE
  2

  3

  4

  6

  7

  8
203599
  9

300
=
301
=
302
=
303
=
304
=
305
=
306
=
307
=
308
=
309
=
 40
0.0
 41
2461004.733670903
 42
2461004.733855417
  1

 90
        0
  0
LAYOUT
  5
1E
102
{ACAD_REACTORS
330
1A
102
}
330
1A
100
AcDbPlotSettings
  1

  2
none_device
  4

  6

 40
0.0
 41
0.0
 42
0.0
 43
0.0
 44
0.0
 45
0.0
 46
0.0
 47
0.0
 48
0.0
 49
0.0
140
0.0
141
0.0
142
1.0
143
1.0
 70
   688
 72
     1
 73
     0
 74
     5
  7

 75
    16
147
1.0
148
0.0
149
0.0
100
AcDbLayout
  1
Layout1
 70
     1
 71
     1
 10
0.0
 20
0.0
 11
420.0
 21
297.0
 12
0.0
 22
0.0
 32
0.0
 14
1.0000000000E+20
 24
1.0000000000E+20
 34
1.0000000000E+20
 15
-1.0000000000E+20
 25
-1.0000000000E+20
 35
-1.0000000000E+20
146
0.0
 13
0.0
 23
0.0
 33
0.0
 16
1.0
 26
0.0
 36
0.0
 17
0.0
 27
1.0
 37
0.0
 76
     0
330
1B
  0
LAYOUT
  5
26
102
{ACAD_REACTORS
330
1A
102
}
330
1A
100
AcDbPlotSettings
  1

  2
none_device
  4

  6

 40
0.0
 41
0.0
 42
0.0
 43
0.0
 44
0.0
 45
0.0
 46
0.0
 47
0.0
 48
0.0
 49
0.0
140
0.0
141
0.0
142
1.0
143
1.0
 70
   688
 72
     1
 73
     0
 74
     5
  7

 75
    16
147
1.0
148
0.0
149
0.0
100
AcDbLayout
  1
Layout2
 70
     1
 71
     2
 10
0.0
 20
0.0
 11
0.0
 21
0.0
 12
0.0
 22
0.0
 32
0.0
 14
0.0
 24
0.0
 34
0.0
 15
0.0
 25
0.0
 35
0.0
146
0.0
 13
0.0
 23
0.0
 33
0.0
 16
1.0
 26
0.0
 36
0.0
 17
0.0
 27
1.0
 37
0.0
 76
     0
330
23
  0
LAYOUT
  5
22
102
{ACAD_REACTORS
330
1A
102
}
330
1A
100
AcDbPlotSettings
  1

  2
none_device
  4
ANSI_A_(11.00_x_8.50_Inches)
  6

 40
6.35
 41
19.05
 42
6.35000508
 43
19.05000254
 44
279.4
 45
215.9
 46
133.8024172696
 47
88.89999873
 48
0.0
 49
0.0
140
0.0
141
0.0
142
0.0363
143
1.0
 70
  1696
 72
     0
 73
     0
 74
     0
  7

 75
     0
147
0.0179189148
148
-1300.4909072572
149
0.0
100
AcDbLayout
  1
Model
 70
     1
 71
     0
 10
0.0
 20
0.0
 11
420.0
 21
297.0
 12
0.0
 22
0.0
 32
0.0
 14
-150.4906832928
 24
-100.0
 34
0.0
 15
149.5093167072
 25
100.0
 35
0.0
146
0.0
 13
0.0
 23
0.0
 33
0.0
 16
1.0
 26
0.0
 36
0.0
 17
0.0
 27
1.0
 37
0.0
 76
     0
330
1F
331
29
  0
MLINESTYLE
  5
18
102
{ACAD_REACTORS
330
17
102
}
330
17
100
AcDbMlineStyle
  2
Standard
 70
     0
  3

 62
   256
 51
90.0
 52
90.0
 71
     2
 49
0.5
 62
   256
  6
BYLAYER
 49
-0.5
 62
   256
  6
BYLAYER
  0
ACDBPLACEHOLDER
  5
F
102
{ACAD_REACTORS
330
E
102
}
330
E
  0
SCALE
  5
48
102
{ACAD_REACTORS
330
47
102
}
330
47
100
AcDbScale
 70
     0
300
1:1
140
1.0
141
1.0
290
     1
  0
SCALE
  5
49
102
{ACAD_REACTORS
330
47
102
}
330
47
100
AcDbScale
 70
     0
300
1:2
140
1.0
141
2.0
290
     0
  0
SCALE
  5
4A
102
{ACAD_REACTORS
330
47
102
}
330
47
100
AcDbScale
 70
     0
300
1:4
140
1.0
141
4.0
290
     0
  0
SCALE
  5
4B
102
{ACAD_REACTORS
330
47
102
}
330
47
100
AcDbScale
 70
     0
300
1:5
140
1.0
141
5.0
290
     0
  0
SCALE
  5
4C
102
{ACAD_REACTORS
330
47
102
}
330
47
100
AcDbScale
 70
     0
300
1:8
140
1.0
141
8.0
290
     0
  0
SCALE
  5
4D
102
{ACAD_REACTORS
330
47
102
}
330
47
100
AcDbScale
 70
     0
300
1:10
140
1.0
141
10.0
290
     0
  0
SCALE
  5
4E
102
{ACAD_REACTORS
330
47
102
}
330
47
100
AcDbScale
 70
     0
300
1:16
140
1.0
141
16.0
290
     0
  0
SCALE
  5
4F
102
{ACAD_REACTORS
330
47
102
}
330
47
100
AcDbScale
 70
     0
300
1:20
140
1.0
141
20.0
290
     0
  0
SCALE
  5
50
102
{ACAD_REACTORS
330
47
102
}
330
47
100
AcDbScale
 70
     0
300
1:30
140
1.0
141
30.0
290
     0
  0
SCALE
  5
51
102
{ACAD_REACTORS
330
47
102
}
330
47
100
AcDbScale
 70
     0
300
1:40
140
1.0
141
40.0
290
     0
  0
SCALE
  5
52
102
{ACAD_REACTORS
330
47
102
}
330
47
100
AcDbScale
 70
     0
300
1:50
140
1.0
141
50.0
290
     0
  0
SCALE
  5
53
102
{ACAD_REACTORS
330
47
102
}
330
47
100
AcDbScale
 70
     0
300
1:100
140
1.0
141
100.0
290
     0
  0
SCALE
  5
54
102
{ACAD_REACTORS
330
47
102
}
330
47
100
AcDbScale
 70
     0
300
2:1
140
2.0
141
1.0
290
     0
  0
SCALE
  5
55
102
{ACAD_REACTORS
330
47
102
}
330
47
100
AcDbScale
 70
     0
300
4:1
140
4.0
141
1.0
290
     0
  0
SCALE
  5
56
102
{ACAD_REACTORS
330
47
102
}
330
47
100
AcDbScale
 70
     0
300
8:1
140
8.0
141
1.0
290
     0
  0
SCALE
  5
57
102
{ACAD_REACTORS
330
47
102
}
330
47
100
AcDbScale
 70
     0
300
10:1
140
10.0
141
1.0
290
     0
  0
SCALE
  5
58
102
{ACAD_REACTORS
330
47
102
}
330
47
100
AcDbScale
 70
     0
300
100:1
140
100.0
141
1.0
290
     0
  0
ENDSEC
  0
EOF
